<?xml version="1.0" encoding="us-ascii" standalone="no"?><svg xmlns="http://www.w3.org/2000/svg" xmlns:xlink="http://www.w3.org/1999/xlink" contentStyleType="text/css" height="1173px" preserveAspectRatio="none" style="width:740px;height:1173px;background:#FFFFFF;" version="1.1" viewBox="0 0 740 1173" width="740px" zoomAndPan="magnify"><defs/><g><text fill="#000000" font-family="Noto Sans CJK JP" font-size="14" font-weight="bold" lengthAdjust="spacing" textLength="213" x="253.5" y="26.2399">&#20998;&#25955;&#22411;&#22259;&#26360;&#31649;&#29702;&#12450;&#12503;&#12522; &#30011;&#38754;&#36983;&#31227;&#22259;</text><!--cluster bookManagement--><g id="cluster_bookManagement"><path d="M454.5,114.2719 L687.5,114.2719 A12.5,12.5 0 0 1 700,126.7719 L700,159.8157 L442,159.8157 L442,126.7719 A12.5,12.5 0 0 1 454.5,114.2719 " fill="#90EE90" style="stroke:#90EE90;stroke-width:1.0;"/><rect fill="none" height="146" rx="12.5" ry="12.5" style="stroke:#181818;stroke-width:0.5;" width="258" x="442" y="114.2719"/><line style="stroke:#181818;stroke-width:0.5;" x1="442" x2="700" y1="159.8157" y2="159.8157"/><text fill="#000000" font-family="Noto Sans CJK JP" font-size="14" lengthAdjust="spacing" textLength="112" x="515" y="134.5118">&#21496;&#26360;&#21033;&#29992;&#12513;&#12491;&#12517;&#12540;</text><text fill="#000000" font-family="Noto Sans CJK JP" font-size="14" lengthAdjust="spacing" textLength="56" x="544.5" y="154.7838">&#26412;&#12398;&#30331;&#37682;</text></g><!--cluster bookUse--><g id="cluster_bookUse"><path d="M19.5,413.2719 L714.5,413.2719 A12.5,12.5 0 0 1 727,425.7719 L727,458.8157 L7,458.8157 L7,425.7719 A12.5,12.5 0 0 1 19.5,413.2719 " fill="#ADD8E6" style="stroke:#ADD8E6;stroke-width:1.0;"/><rect fill="none" height="612" rx="12.5" ry="12.5" style="stroke:#181818;stroke-width:0.5;" width="720" x="7" y="413.2719"/><line style="stroke:#181818;stroke-width:0.5;" x1="7" x2="727" y1="458.8157" y2="458.8157"/><text fill="#000000" font-family="Noto Sans CJK JP" font-size="14" lengthAdjust="spacing" textLength="168" x="283" y="433.5118">&#19968;&#33324;&#12518;&#12540;&#12470;&#12540;&#21033;&#29992;&#12513;&#12491;&#12517;&#12540;</text><text fill="#000000" font-family="Noto Sans CJK JP" font-size="14" lengthAdjust="spacing" textLength="308" x="214.5" y="453.7838">&#26412;&#12398;&#26908;&#32034;&#12539;&#36024;&#20986;&#12539;&#20104;&#32004;&#12362;&#12424;&#12403;&#36820;&#21364;&#12539;&#20104;&#32004;&#21462;&#12426;&#28040;&#12375;</text></g><rect fill="#FFE4E1" height="70.8157" rx="12.5" ry="12.5" style="stroke:#181818;stroke-width:0.5;" width="226" x="458" y="173.2719"/><text fill="#000000" font-family="Noto Sans CJK JP" font-size="14" lengthAdjust="spacing" textLength="84" x="529" y="194.5118">&#26412;&#12398;&#30331;&#37682;&#30011;&#38754;</text><text fill="#000000" font-family="Noto Sans CJK JP" font-size="14" lengthAdjust="spacing" textLength="213" x="466" y="214.7838">ISBN&#12434;&#20837;&#21147;&#12375;&#12289;&#26412;&#12398;&#12487;&#12540;&#12479;&#12434;&#21462;&#24471;</text><text fill="#000000" font-family="Noto Sans CJK JP" font-size="14" lengthAdjust="spacing" textLength="182" x="481.5" y="235.0557">&#20445;&#23384;&#22580;&#25152;&#12420;&#29256;&#25968;&#12399;&#25163;&#20837;&#21147;&#12377;&#12427;</text><rect fill="#F0F8FF" height="50.5438" rx="12.5" ry="12.5" style="stroke:#181818;stroke-width:0.5;" width="195" x="22.5" y="472.2719"/><text fill="#000000" font-family="Noto Sans CJK JP" font-size="14" lengthAdjust="spacing" textLength="98" x="71" y="493.5118">&#34101;&#26360;&#12398;&#26908;&#32034;&#30011;&#38754;</text><text fill="#000000" font-family="Noto Sans CJK JP" font-size="14" lengthAdjust="spacing" textLength="182" x="30.5" y="513.7838">&#12479;&#12452;&#12488;&#12523;&#12289;&#33879;&#32773;&#21517;&#12434;&#20837;&#21147;&#12377;&#12427;</text><rect fill="#FFFFE0" height="50.5438" rx="12.5" ry="12.5" style="stroke:#181818;stroke-width:0.5;" width="206" x="43" y="603.2719"/><text fill="#000000" font-family="Noto Sans CJK JP" font-size="14" lengthAdjust="spacing" textLength="154" x="69" y="624.5118">&#34101;&#26360;&#12398;&#26908;&#32034;&#32080;&#26524;&#34920;&#31034;&#30011;&#38754;</text><text fill="#000000" font-family="Noto Sans CJK JP" font-size="14" lengthAdjust="spacing" textLength="196" x="48" y="644.7838">&#65288;&#34101;&#26360;&#12398;&#12522;&#12473;&#12488;&#12364;&#34920;&#31034;&#12373;&#12428;&#12427;&#65289;</text><rect fill="#FFFFE0" height="50.5438" rx="12.5" ry="12.5" style="stroke:#181818;stroke-width:0.5;" width="363" x="22.5" y="734.2719"/><text fill="#000000" font-family="Noto Sans CJK JP" font-size="14" lengthAdjust="spacing" textLength="112" x="148" y="755.5118">&#26412;&#12398;&#24773;&#22577;&#30906;&#35469;&#30011;&#38754;</text><text fill="#000000" font-family="Noto Sans CJK JP" font-size="14" lengthAdjust="spacing" textLength="350" x="30.5" y="775.7838">&#36024;&#20986;&#29366;&#27841;&#65288;&#36024;&#20986;&#21487;&#12414;&#12383;&#12399;&#36024;&#20986;&#20013;&#65289;&#12420;&#26360;&#24433;&#12289;&#38306;&#36899;&#26360;&#31821;&#12394;&#12393;</text><rect fill="#FFE4E1" height="50.5438" rx="12.5" ry="12.5" style="stroke:#181818;stroke-width:0.5;" width="279" x="85.5" y="846.2719"/><text fill="#000000" font-family="Noto Sans CJK JP" font-size="14" lengthAdjust="spacing" textLength="98" x="176" y="867.5118">&#36024;&#20986;&#12539;&#20104;&#32004;&#30011;&#38754;</text><text fill="#000000" font-family="Noto Sans CJK JP" font-size="14" lengthAdjust="spacing" textLength="266" x="93.5" y="887.7838">&#26412;&#12434;&#20511;&#12426;&#12383;&#12426;&#12289;&#20104;&#32004;&#12377;&#12427;&#12383;&#12417;&#12398;&#25805;&#20316;&#12434;&#12377;&#12427;</text><rect fill="#FFFFE0" height="50.5438" rx="12.5" ry="12.5" style="stroke:#181818;stroke-width:0.5;" width="293" x="176.5" y="958.2719"/><text fill="#000000" font-family="Noto Sans CJK JP" font-size="14" lengthAdjust="spacing" textLength="154" x="246" y="979.5118">&#36024;&#20986;&#12539;&#20104;&#32004;&#23436;&#20102;&#34920;&#31034;&#30011;&#38754;</text><text fill="#000000" font-family="Noto Sans CJK JP" font-size="14" lengthAdjust="spacing" textLength="280" x="184.5" y="999.7838">&#26412;&#12398;&#21517;&#21069;&#12539;&#36024;&#20986;&#26399;&#38291;&#12539;&#26412;&#12398;&#22580;&#25152;&#12364;&#34920;&#31034;&#12373;&#12428;&#12427;</text><rect fill="#FFFFE0" height="50.5438" rx="12.5" ry="12.5" style="stroke:#181818;stroke-width:0.5;" width="458" x="253" y="472.2719"/><text fill="#000000" font-family="Noto Sans CJK JP" font-size="14" lengthAdjust="spacing" textLength="98" x="433" y="493.5118">&#12510;&#12452;&#12521;&#12452;&#12502;&#12521;&#12522;</text><text fill="#000000" font-family="Noto Sans CJK JP" font-size="14" lengthAdjust="spacing" textLength="448" x="258" y="513.7838">&#65288;&#33258;&#20998;&#12364;&#20511;&#12426;&#12390;&#12356;&#12427;&#26412;&#12289;&#20104;&#32004;&#12375;&#12390;&#12356;&#12427;&#26412;&#12398;&#12522;&#12473;&#12488;&#12434;&#35211;&#12427;&#12371;&#12392;&#12364;&#12391;&#12365;&#12427;&#65289;</text><rect fill="#FFE4E1" height="40" rx="12.5" ry="12.5" style="stroke:#181818;stroke-width:0.5;" width="136" x="457" y="608.7719"/><text fill="#000000" font-family="Noto Sans CJK JP" font-size="14" lengthAdjust="spacing" textLength="126" x="462" y="634.8759">&#36820;&#21364;&#12539;&#20104;&#32004;&#21462;&#28040;&#30011;&#38754;</text><ellipse cx="257" cy="57.2719" fill="#222222" rx="10" ry="10" style="stroke:#222222;stroke-width:1.0;"/><rect fill="#F1F1F1" height="40" rx="12.5" ry="12.5" style="stroke:#181818;stroke-width:0.5;" width="150" x="182" y="188.7719"/><text fill="#000000" font-family="Noto Sans CJK JP" font-size="14" lengthAdjust="spacing" textLength="140" x="187" y="214.8759">&#12525;&#12464;&#12452;&#12531;&#29992;&#12488;&#12483;&#12503;&#30011;&#38754;</text><rect fill="#ADD8E6" height="40" rx="12.5" ry="12.5" style="stroke:#181818;stroke-width:0.5;" width="178" x="103" y="326.2719"/><text fill="#000000" font-family="Noto Sans CJK JP" font-size="14" lengthAdjust="spacing" textLength="168" x="108" y="352.3759">&#19968;&#33324;&#12518;&#12540;&#12470;&#12540;&#29992;&#12488;&#12483;&#12503;&#30011;&#38754;</text><rect fill="#90EE90" height="40" rx="12.5" ry="12.5" style="stroke:#181818;stroke-width:0.5;" width="122" x="484" y="326.2719"/><text fill="#000000" font-family="Noto Sans CJK JP" font-size="14" lengthAdjust="spacing" textLength="112" x="489" y="352.3759">&#21496;&#26360;&#29992;&#12488;&#12483;&#12503;&#30011;&#38754;</text><!--link *start* to notLogin--><g id="link_*start*_notLogin"><path d="M257,67.6219 C257,91.7219 257,150.3219 257,182.7019 " fill="none" id="*start*-to-notLogin" style="stroke:#181818;stroke-width:1.0;"/><polygon fill="#181818" points="257,188.7019,261,179.7019,257,183.7019,253,179.7019,257,188.7019" style="stroke:#181818;stroke-width:1.0;"/></g><!--link notLogin to user--><g id="link_notLogin_user"><path d="M228.45,228.9619 C213.67,240.6819 197.07,257.0919 189,276.2719 C182.35,292.0719 182.9123,305.8647 185.7223,320.1547 " fill="none" id="notLogin-to-user" style="stroke:#181818;stroke-width:1.0;"/><polygon fill="#181818" points="186.88,326.0419,189.0683,316.4392,185.9153,321.1359,181.2186,317.9828,186.88,326.0419" style="stroke:#181818;stroke-width:1.0;"/><text fill="#000000" font-family="Noto Sans CJK JP" font-size="13" lengthAdjust="spacing" textLength="169" x="190" y="292.3519">&#19968;&#33324;&#12518;&#12540;&#12470;&#12540;&#12364;&#12525;&#12464;&#12452;&#12531;&#12377;&#12427;</text></g><!--link notLogin to librarian--><g id="link_notLogin_librarian"><path d="M292.43,228.8019 C326.55,246.9019 379.79,274.5019 427,296.2719 C449.66,306.7219 469.6313,315.1933 491.1413,323.9333 " fill="none" id="notLogin-to-librarian" style="stroke:#181818;stroke-width:1.0;"/><polygon fill="#181818" points="496.7,326.1919,489.8678,319.0982,492.0678,324.3097,486.8563,326.5098,496.7,326.1919" style="stroke:#181818;stroke-width:1.0;"/><text fill="#000000" font-family="Noto Sans CJK JP" font-size="13" lengthAdjust="spacing" textLength="117" x="428" y="292.3519">&#21496;&#26360;&#12364;&#12525;&#12464;&#12452;&#12531;&#12377;&#12427;</text></g><!--link librarian to bookRegistration--><g id="link_librarian_bookRegistration"><path d="M548.65,326.2619 C552.71,305.0719 558.2504,276.2346 563.2404,250.2046 " fill="none" id="librarian-to-bookRegistration" style="stroke:#181818;stroke-width:1.0;"/><polygon fill="#181818" points="564.37,244.3119,558.7471,252.3979,563.4286,249.2225,566.604,253.9041,564.37,244.3119" style="stroke:#181818;stroke-width:1.0;"/></g><!--link bookRegistration to librarian--><g id="link_bookRegistration_librarian"><path d="M570.47,244.6319 C569.65,260.5419 567.84,279.5319 564,296.2719 C561.68,306.4119 559.9767,311.7014 556.2367,320.5914 " fill="none" id="bookRegistration-to-librarian" style="stroke:#181818;stroke-width:1.0;"/><polygon fill="#181818" points="553.91,326.1219,561.087,319.3773,555.8489,321.5131,553.713,316.275,553.91,326.1219" style="stroke:#181818;stroke-width:1.0;"/><text fill="#000000" font-family="Noto Sans CJK JP" font-size="13" lengthAdjust="spacing" textLength="52" x="568" y="292.3519">&#30331;&#37682;&#23436;&#20102;</text></g><!--link bookSearch to searchResult--><g id="link_bookSearch_searchResult"><path d="M124.95,523.3419 C129.55,546.1519 135.1739,574.0603 139.7939,596.9703 " fill="none" id="bookSearch-to-searchResult" style="stroke:#181818;stroke-width:1.0;"/><polygon fill="#181818" points="140.98,602.8519,143.122,593.2388,139.9916,597.9506,135.2798,594.8202,140.98,602.8519" style="stroke:#181818;stroke-width:1.0;"/></g><!--link searchResult to bookStatus--><g id="link_searchResult_bookStatus"><path d="M157.05,654.3419 C167.3,677.1519 180.0277,705.4704 190.3377,728.3804 " fill="none" id="searchResult-to-bookStatus" style="stroke:#181818;stroke-width:1.0;"/><polygon fill="#181818" points="192.8,733.8519,192.7542,724.0032,190.7481,729.2923,185.4589,727.2862,192.8,733.8519" style="stroke:#181818;stroke-width:1.0;"/><text fill="#000000" font-family="Noto Sans CJK JP" font-size="13" lengthAdjust="spacing" textLength="143" x="179" y="700.3519">&#26412;&#12434;&#36984;&#25246;&#12375;&#12289;&#35443;&#32048;&#12434;&#30906;&#35469;</text></g><!--link bookStatus to borrowAndBook--><g id="link_bookStatus_borrowAndBook"><path d="M208.71,785.4619 C212.17,803.5719 215.7266,822.178 219.1766,840.278 " fill="none" id="bookStatus-to-borrowAndBook" style="stroke:#181818;stroke-width:1.0;"/><polygon fill="#181818" points="220.3,846.1719,222.5441,836.5821,219.3638,841.2603,214.6856,838.08,220.3,846.1719" style="stroke:#181818;stroke-width:1.0;"/></g><!--link borrowAndBook to borrowCompletion--><g id="link_borrowAndBook_borrowCompletion"><path d="M246.99,897.4619 C263.13,915.5719 280.9695,935.5913 297.0895,953.6913 " fill="none" id="borrowAndBook-to-borrowCompletion" style="stroke:#181818;stroke-width:1.0;"/><polygon fill="#181818" points="301.08,958.1719,298.0814,948.7906,297.7546,954.4381,292.1072,954.1113,301.08,958.1719" style="stroke:#181818;stroke-width:1.0;"/></g><!--link borrowCompletion to bookSearch--><g id="link_borrowCompletion_bookSearch"><path d="M364.28,958.1619 C391.06,938.7519 421,908.9619 421,872.7719 C421,627.7719 421,627.7719 421,627.7719 C421,582.7119 311.4253,545.5178 223.5353,522.5678 " fill="none" id="borrowCompletion-to-bookSearch" style="stroke:#181818;stroke-width:1.0;"/><polygon fill="#181818" points="217.73,521.0519,225.4274,527.196,222.5678,522.3152,227.4486,519.4555,217.73,521.0519" style="stroke:#181818;stroke-width:1.0;"/></g><!--link borrowingBooks to returnAndCancelReservation--><g id="link_borrowingBooks_returnAndCancelReservation"><path d="M480.38,523.5919 C480.21,538.4119 481.41,557.3719 487,573.2719 C491.51,586.1119 496.2217,593.983 503.9917,603.823 " fill="none" id="borrowingBooks-to-returnAndCancelReservation" style="stroke:#181818;stroke-width:1.0;"/><polygon fill="#181818" points="507.71,608.5319,505.2718,598.9896,504.6114,604.6078,498.9932,603.9474,507.71,608.5319" style="stroke:#181818;stroke-width:1.0;"/></g><!--link returnAndCancelReservation to borrowingBooks--><g id="link_returnAndCancelReservation_borrowingBooks"><path d="M518.66,608.7519 C511.11,586.0919 500.3667,553.8842 492.0867,529.0342 " fill="none" id="returnAndCancelReservation-to-borrowingBooks" style="stroke:#181818;stroke-width:1.0;"/><polygon fill="#181818" points="490.19,523.3419,489.2401,533.1449,491.7706,528.0855,496.8299,530.616,490.19,523.3419" style="stroke:#181818;stroke-width:1.0;"/><text fill="#000000" font-family="Noto Sans CJK JP" font-size="13" lengthAdjust="spacing" textLength="130" x="507" y="569.3519">&#36820;&#21364;&#12539;&#20104;&#32004;&#21462;&#12426;&#28040;&#12375;&#24460;</text></g><!--link user to bookSearch--><g id="link_user_bookSearch"><path d="M182.73,366.5119 C169.75,393.4819 148.7241,437.1365 134.4641,466.7365 " fill="none" id="user-to-bookSearch" style="stroke:#181818;stroke-width:1.0;"/><polygon fill="#181818" points="131.86,472.1419,139.3698,465.7698,134.0301,467.6374,132.1625,462.2977,131.86,472.1419" style="stroke:#181818;stroke-width:1.0;"/></g><!--link user to borrowingBooks--><g id="link_user_borrowingBooks"><path d="M229.02,366.3619 C281.32,393.3219 371.5167,439.8232 429.0467,469.4732 " fill="none" id="user-to-borrowingBooks" style="stroke:#181818;stroke-width:1.0;"/><polygon fill="#181818" points="434.38,472.2219,428.2125,464.5433,429.9355,469.9313,424.5475,471.6544,434.38,472.2219" style="stroke:#181818;stroke-width:1.0;"/></g><rect fill="#DDDDDD" height="111.3596" id="_legend" rx="7.5" ry="7.5" style="stroke:#000000;stroke-width:1.0;" width="323" x="12" y="1042.2719"/><text fill="#000000" font-family="Noto Sans CJK JP" font-size="14" lengthAdjust="spacing" textLength="12" x="17" y="1063.5118">1.</text><text fill="#000000" font-family="Noto Sans CJK JP" font-size="14" lengthAdjust="spacing" textLength="253" x="33" y="1063.5118">LightBlue&#65288;&#38738;&#65289;: &#19968;&#33324;&#12518;&#12540;&#12470;&#12540;&#23554;&#29992;&#30011;&#38754;</text><text fill="#000000" font-family="Noto Sans CJK JP" font-size="14" lengthAdjust="spacing" textLength="12" x="17" y="1083.7838">2.</text><text fill="#000000" font-family="Noto Sans CJK JP" font-size="14" lengthAdjust="spacing" textLength="221" x="33" y="1083.7838">LightGreen&#65288;&#40644;&#32209;&#65289;: &#21496;&#26360;&#23554;&#29992;&#30011;&#38754;</text><text fill="#000000" font-family="Noto Sans CJK JP" font-size="14" lengthAdjust="spacing" textLength="12" x="17" y="1104.0557">3.</text><text fill="#000000" font-family="Noto Sans CJK JP" font-size="14" lengthAdjust="spacing" textLength="223" x="33" y="1104.0557">AliceBlue&#65288;&#28129;&#12356;&#38738;&#65289;: &#26908;&#32034;&#31995;&#12398;&#30011;&#38754;</text><text fill="#000000" font-family="Noto Sans CJK JP" font-size="14" lengthAdjust="spacing" textLength="12" x="17" y="1124.3276">4.</text><text fill="#000000" font-family="Noto Sans CJK JP" font-size="14" lengthAdjust="spacing" textLength="297" x="33" y="1124.3276">MistyRose&#65288;&#12500;&#12531;&#12463;&#65289;: &#12518;&#12540;&#12470;&#12540;&#12395;&#12424;&#12427;&#25805;&#20316;&#30011;&#38754;</text><text fill="#000000" font-family="Noto Sans CJK JP" font-size="14" lengthAdjust="spacing" textLength="12" x="17" y="1144.5995">5.</text><text fill="#000000" font-family="Noto Sans CJK JP" font-size="14" lengthAdjust="spacing" textLength="223" x="33" y="1144.5995">LightYellow&#65288;&#40644;&#33394;&#65289;: &#34920;&#31034;&#31995;&#12398;&#30011;&#38754;</text><!--SRC=[VLPRJzn657xthnZHXqgLyWUY22aWjKgQe0hKXwhjWmEJnSBOoFOsYgfAEpQNNTWLXDisuXO88K32TRbiMG8_PjRsxbF-Gi_CUEqno-R5iiVdyftlVEVOzeXcZAcMEeg6y4irgpi_ceRJfuvYrDLdEYOQK0qRzJxz6JtzfKiPreOmmgDZpckmjWSjRSpHJ4DH7CtHCVBpay7IUtzznb-f12lLy70pd9kaxXRrojJRH-5YhRcsrIINuSSQM22454N76MmC8Hs_T9JldccPOQT7p-Alr_dcslpNwy93LA_c6ldFrDkXtZLrB-3g7xlXugu85ldyP65iCAVQU7ZvXllvirM0aBPzh6k3E8eVN6vICjxA4colXcTROQL6oM7B-hbcEw_xJPjPKs-HUXNg7d5h6GqbdwYRf-vCi52gVrbDmVeDwxhvIk1g54wvRsDpDzo-IcKI130U5ENt7_v43nvq8yDqdfaP3QW5cf3jg0xqWte7r3scxZPWWRAe1xWy85V4wKAgdVX9RkqKTd3EsjX2IHVa68BE3dwwzi9IBKqraDGExjs2mslYuU_hA2L5kJHAtWAVxVv9cbPxxtTKb1HeFx_7SMzIRuPw7o3V7mOALZ-p1hojDOkdl8ONfZdoN3NK31x5XYCNWlwMYP0T1GKGxSb0Jnzrv_s93_xq2YLbcYF2ZdfJlCfRzdPssRyfWtNzTiq_-DT_TnOKSjGT3mlvOEcOagEWCDEAmEg8OVNZ34ZHKjceeKUFXD2wkvL_b8GHnizTMwND-IwBeWp_i5Y_cbGItkwPkSuSYj6XNgrnMlMdhk2cVfKFpyOfcMQ3GIgDsqM_T1QV0mtKdGuku5KvBl5N6ql2IpFUM3pdhOuonQHpLhUv7Zy1uOqtvKPkmfyhIOr8qJY0LMjmc178utHteszbEPyBrbUZOOqomY37Lh3FgFiVIqwAmegI9UeM8I6CESzfytpzs8QT2bc55RIjJKo1D-6_EmcthXhxfRWwmMOuVH5K24lC7_tP8qfkADa0jOYJUlK0ye6AcD2_d00FpUMjPkuz6zQJ4YNxbEmb343MhDq1ovtsnK0OHc0qjm5TOvdXcYEj5ZE2-I5XTN1XWd6AUCioNpqsXdeWlopUpfc57DFKHrg3xlg5KgorO7MZkRm0Zz5RCL5j3P60z9gZOpgE1Yd5GdhFhdDbxV7hChlnzaN_f_RX8mSfMdpim4U4BNy0aB1IJftBOd7d6pipdBC5IdRP-Y8VAIb9gX4uDIF32ElOgxQHWdcI5hA5dQnb0EkzgZ68TT0WjlvgsnyyulSHjL4Je8ld16ZZxwIfOPj35hH08okyjO4YaJsCXDCarM1wNUp4nbubF8DTFI-qdkGGBYA2f9V8G5PGOfEqKZAJ-XlZ4GKaJOuh5YJUgJZ5FelHcKlkyGsg4wnnGFZ-Tzw6_aqHTZh_IgR1osToE5ZOyS-RK0PRd3tgu4Z6ChC0oTHDIzftyV_FlLQHB53yttEVLKkDIFh10T3A_m00]--></g></svg>