<?xml version="1.0" encoding="us-ascii" standalone="no"?><svg xmlns="http://www.w3.org/2000/svg" xmlns:xlink="http://www.w3.org/1999/xlink" contentStyleType="text/css" height="1461px" preserveAspectRatio="none" style="width:768px;height:1461px;background:#FFFFFF;" version="1.1" viewBox="0 0 768 1461" width="768px" zoomAndPan="magnify"><defs/><g><text fill="#000000" font-family="Noto Sans CJK JP" font-size="14" font-weight="bold" lengthAdjust="spacing" textLength="213" x="270.5" y="26.2399">&#20998;&#25955;&#22411;&#22259;&#26360;&#31649;&#29702;&#12450;&#12503;&#12522; &#30011;&#38754;&#36983;&#31227;&#22259;</text><!--cluster bookManagement--><g id="cluster_bookManagement"><path d="M203.5,48.2719 L711.5,48.2719 A12.5,12.5 0 0 1 724,60.7719 L724,93.8157 L191,93.8157 L191,60.7719 A12.5,12.5 0 0 1 203.5,48.2719 " fill="#90EE90" style="stroke:#90EE90;stroke-width:1.0;"/><rect fill="none" height="500" rx="12.5" ry="12.5" style="stroke:#181818;stroke-width:0.5;" width="533" x="191" y="48.2719"/><line style="stroke:#181818;stroke-width:0.5;" x1="191" x2="724" y1="93.8157" y2="93.8157"/><text fill="#000000" font-family="Noto Sans CJK JP" font-size="14" lengthAdjust="spacing" textLength="112" x="401.5" y="68.5118">&#21496;&#26360;&#21033;&#29992;&#12513;&#12491;&#12517;&#12540;</text><text fill="#000000" font-family="Noto Sans CJK JP" font-size="14" lengthAdjust="spacing" textLength="70" x="424" y="88.7838">&#34101;&#26360;&#12398;&#30331;&#37682;</text></g><!--cluster bookUse--><g id="cluster_bookUse"><path d="M19.5,701.2719 L714.5,701.2719 A12.5,12.5 0 0 1 727,713.7719 L727,746.8157 L7,746.8157 L7,713.7719 A12.5,12.5 0 0 1 19.5,701.2719 " fill="#ADD8E6" style="stroke:#ADD8E6;stroke-width:1.0;"/><rect fill="none" height="612" rx="12.5" ry="12.5" style="stroke:#181818;stroke-width:0.5;" width="720" x="7" y="701.2719"/><line style="stroke:#181818;stroke-width:0.5;" x1="7" x2="727" y1="746.8157" y2="746.8157"/><text fill="#000000" font-family="Noto Sans CJK JP" font-size="14" lengthAdjust="spacing" textLength="168" x="283" y="721.5118">&#19968;&#33324;&#12518;&#12540;&#12470;&#12540;&#21033;&#29992;&#12513;&#12491;&#12517;&#12540;</text><text fill="#000000" font-family="Noto Sans CJK JP" font-size="14" lengthAdjust="spacing" textLength="308" x="214.5" y="741.7838">&#26412;&#12398;&#26908;&#32034;&#12539;&#36024;&#20986;&#12539;&#20104;&#32004;&#12362;&#12424;&#12403;&#36820;&#21364;&#12539;&#20104;&#32004;&#21462;&#12426;&#28040;&#12375;</text></g><rect fill="#FFE4E1" height="50.5438" rx="12.5" ry="12.5" style="stroke:#181818;stroke-width:0.5;" width="326" x="363" y="107.2719"/><text fill="#000000" font-family="Noto Sans CJK JP" font-size="14" lengthAdjust="spacing" textLength="129" x="461.5" y="128.5118">ISBN&#12434;&#20837;&#21147;&#12377;&#12427;&#30011;&#38754;</text><text fill="#000000" font-family="Noto Sans CJK JP" font-size="14" lengthAdjust="spacing" textLength="313" x="371" y="148.7838">&#12450;&#12503;&#12522;&#12398;DB&#12395;&#26360;&#31821;&#12364;&#30331;&#37682;&#12373;&#12428;&#12390;&#12356;&#12427;&#12363;&#12434;&#30906;&#35469;&#12377;&#12427;</text><rect fill="#FFE4E1" height="50.5438" rx="12.5" ry="12.5" style="stroke:#181818;stroke-width:0.5;" width="231" x="206.5" y="238.2719"/><text fill="#000000" font-family="Noto Sans CJK JP" font-size="14" lengthAdjust="spacing" textLength="126" x="259" y="259.5118">&#26360;&#31821;&#12434;&#30331;&#37682;&#12377;&#12427;&#30011;&#38754;</text><text fill="#000000" font-family="Noto Sans CJK JP" font-size="14" lengthAdjust="spacing" textLength="218" x="214.5" y="279.7838">API&#12391;&#26360;&#31821;&#12487;&#12540;&#12479;&#12434;&#33258;&#21205;&#12391;&#21462;&#24471;&#12377;&#12427;</text><rect fill="#FFE4E1" height="50.5438" rx="12.5" ry="12.5" style="stroke:#181818;stroke-width:0.5;" width="181" x="332.5" y="369.2719"/><text fill="#000000" font-family="Noto Sans CJK JP" font-size="14" lengthAdjust="spacing" textLength="126" x="360" y="390.5118">&#34101;&#26360;&#12434;&#30331;&#37682;&#12377;&#12427;&#30011;&#38754;</text><text fill="#000000" font-family="Noto Sans CJK JP" font-size="14" lengthAdjust="spacing" textLength="168" x="340.5" y="410.7838">&#20445;&#23384;&#22580;&#25152;&#12289;&#29366;&#24907;&#12434;&#20837;&#21147;&#12377;&#12427;</text><rect fill="#FFFFE0" height="50.5438" rx="12.5" ry="12.5" style="stroke:#181818;stroke-width:0.5;" width="279" x="393.5" y="481.2719"/><text fill="#000000" font-family="Noto Sans CJK JP" font-size="14" lengthAdjust="spacing" textLength="182" x="442" y="502.5118">&#30331;&#37682;&#12375;&#12383;&#34101;&#26360;&#12434;&#30906;&#35469;&#12377;&#12427;&#30011;&#38754;</text><text fill="#000000" font-family="Noto Sans CJK JP" font-size="14" lengthAdjust="spacing" textLength="266" x="401.5" y="522.7838">&#26360;&#24433;&#12289;&#12479;&#12452;&#12488;&#12523;&#12289;&#20445;&#23384;&#22580;&#25152;&#12394;&#12393;&#12434;&#30906;&#35469;&#12377;&#12427;</text><rect fill="#F0F8FF" height="50.5438" rx="12.5" ry="12.5" style="stroke:#181818;stroke-width:0.5;" width="195" x="22.5" y="760.2719"/><text fill="#000000" font-family="Noto Sans CJK JP" font-size="14" lengthAdjust="spacing" textLength="98" x="71" y="781.5118">&#34101;&#26360;&#12398;&#26908;&#32034;&#30011;&#38754;</text><text fill="#000000" font-family="Noto Sans CJK JP" font-size="14" lengthAdjust="spacing" textLength="182" x="30.5" y="801.7838">&#12479;&#12452;&#12488;&#12523;&#12289;&#33879;&#32773;&#21517;&#12434;&#20837;&#21147;&#12377;&#12427;</text><rect fill="#FFFFE0" height="50.5438" rx="12.5" ry="12.5" style="stroke:#181818;stroke-width:0.5;" width="206" x="43" y="891.2719"/><text fill="#000000" font-family="Noto Sans CJK JP" font-size="14" lengthAdjust="spacing" textLength="154" x="69" y="912.5118">&#34101;&#26360;&#12398;&#26908;&#32034;&#32080;&#26524;&#34920;&#31034;&#30011;&#38754;</text><text fill="#000000" font-family="Noto Sans CJK JP" font-size="14" lengthAdjust="spacing" textLength="196" x="48" y="932.7838">&#65288;&#34101;&#26360;&#12398;&#12522;&#12473;&#12488;&#12364;&#34920;&#31034;&#12373;&#12428;&#12427;&#65289;</text><rect fill="#FFFFE0" height="50.5438" rx="12.5" ry="12.5" style="stroke:#181818;stroke-width:0.5;" width="363" x="22.5" y="1022.2719"/><text fill="#000000" font-family="Noto Sans CJK JP" font-size="14" lengthAdjust="spacing" textLength="112" x="148" y="1043.5118">&#26412;&#12398;&#24773;&#22577;&#30906;&#35469;&#30011;&#38754;</text><text fill="#000000" font-family="Noto Sans CJK JP" font-size="14" lengthAdjust="spacing" textLength="350" x="30.5" y="1063.7838">&#36024;&#20986;&#29366;&#27841;&#65288;&#36024;&#20986;&#21487;&#12414;&#12383;&#12399;&#36024;&#20986;&#20013;&#65289;&#12420;&#26360;&#24433;&#12289;&#38306;&#36899;&#26360;&#31821;&#12394;&#12393;</text><rect fill="#FFE4E1" height="50.5438" rx="12.5" ry="12.5" style="stroke:#181818;stroke-width:0.5;" width="279" x="85.5" y="1134.2719"/><text fill="#000000" font-family="Noto Sans CJK JP" font-size="14" lengthAdjust="spacing" textLength="98" x="176" y="1155.5118">&#36024;&#20986;&#12539;&#20104;&#32004;&#30011;&#38754;</text><text fill="#000000" font-family="Noto Sans CJK JP" font-size="14" lengthAdjust="spacing" textLength="266" x="93.5" y="1175.7838">&#26412;&#12434;&#20511;&#12426;&#12383;&#12426;&#12289;&#20104;&#32004;&#12377;&#12427;&#12383;&#12417;&#12398;&#25805;&#20316;&#12434;&#12377;&#12427;</text><rect fill="#FFFFE0" height="50.5438" rx="12.5" ry="12.5" style="stroke:#181818;stroke-width:0.5;" width="293" x="176.5" y="1246.2719"/><text fill="#000000" font-family="Noto Sans CJK JP" font-size="14" lengthAdjust="spacing" textLength="154" x="246" y="1267.5118">&#36024;&#20986;&#12539;&#20104;&#32004;&#23436;&#20102;&#34920;&#31034;&#30011;&#38754;</text><text fill="#000000" font-family="Noto Sans CJK JP" font-size="14" lengthAdjust="spacing" textLength="280" x="184.5" y="1287.7838">&#26412;&#12398;&#21517;&#21069;&#12539;&#36024;&#20986;&#26399;&#38291;&#12539;&#26412;&#12398;&#22580;&#25152;&#12364;&#34920;&#31034;&#12373;&#12428;&#12427;</text><rect fill="#FFFFE0" height="50.5438" rx="12.5" ry="12.5" style="stroke:#181818;stroke-width:0.5;" width="458" x="253" y="760.2719"/><text fill="#000000" font-family="Noto Sans CJK JP" font-size="14" lengthAdjust="spacing" textLength="98" x="433" y="781.5118">&#12510;&#12452;&#12521;&#12452;&#12502;&#12521;&#12522;</text><text fill="#000000" font-family="Noto Sans CJK JP" font-size="14" lengthAdjust="spacing" textLength="448" x="258" y="801.7838">&#65288;&#33258;&#20998;&#12364;&#20511;&#12426;&#12390;&#12356;&#12427;&#26412;&#12289;&#20104;&#32004;&#12375;&#12390;&#12356;&#12427;&#26412;&#12398;&#12522;&#12473;&#12488;&#12434;&#35211;&#12427;&#12371;&#12392;&#12364;&#12391;&#12365;&#12427;&#65289;</text><rect fill="#FFE4E1" height="40" rx="12.5" ry="12.5" style="stroke:#181818;stroke-width:0.5;" width="136" x="457" y="896.7719"/><text fill="#000000" font-family="Noto Sans CJK JP" font-size="14" lengthAdjust="spacing" textLength="126" x="462" y="922.8759">&#36820;&#21364;&#12539;&#20104;&#32004;&#21462;&#28040;&#30011;&#38754;</text><ellipse cx="128" cy="263.7719" fill="#222222" rx="10" ry="10" style="stroke:#222222;stroke-width:1.0;"/><rect fill="#F1F1F1" height="40" rx="12.5" ry="12.5" style="stroke:#181818;stroke-width:0.5;" width="80" x="88" y="374.7719"/><text fill="#000000" font-family="Noto Sans CJK JP" font-size="14" lengthAdjust="spacing" textLength="70" x="93" y="400.8759">&#12488;&#12483;&#12503;&#30011;&#38754;</text><rect fill="#F1F1F1" height="40" rx="12.5" ry="12.5" style="stroke:#181818;stroke-width:0.5;" width="94" x="81" y="486.7719"/><text fill="#000000" font-family="Noto Sans CJK JP" font-size="14" lengthAdjust="spacing" textLength="84" x="86" y="512.8759">&#12525;&#12464;&#12452;&#12531;&#30011;&#38754;</text><rect fill="#ADD8E6" height="40" rx="12.5" ry="12.5" style="stroke:#181818;stroke-width:0.5;" width="178" x="39" y="614.2719"/><text fill="#000000" font-family="Noto Sans CJK JP" font-size="14" lengthAdjust="spacing" textLength="168" x="44" y="640.3759">&#19968;&#33324;&#12518;&#12540;&#12470;&#12540;&#29992;&#12488;&#12483;&#12503;&#30011;&#38754;</text><rect fill="#90EE90" height="40" rx="12.5" ry="12.5" style="stroke:#181818;stroke-width:0.5;" width="122" x="472" y="614.2719"/><text fill="#000000" font-family="Noto Sans CJK JP" font-size="14" lengthAdjust="spacing" textLength="112" x="477" y="640.3759">&#21496;&#26360;&#29992;&#12488;&#12483;&#12503;&#30011;&#38754;</text><!--link *start* to notLogin--><g id="link_*start*_notLogin"><path d="M128,274.0519 C128,294.9619 128,340.1519 128,368.3519 " fill="none" id="*start*-to-notLogin" style="stroke:#181818;stroke-width:1.0;"/><polygon fill="#181818" points="128,374.3519,132,365.3519,128,369.3519,124,365.3519,128,374.3519" style="stroke:#181818;stroke-width:1.0;"/></g><!--link notLogin to login--><g id="link_notLogin_login"><path d="M128,414.9319 C128,435.0019 128,460.3419 128,480.4619 " fill="none" id="notLogin-to-login" style="stroke:#181818;stroke-width:1.0;"/><polygon fill="#181818" points="128,486.4619,132,477.4619,128,481.4619,124,477.4619,128,486.4619" style="stroke:#181818;stroke-width:1.0;"/></g><!--link login to user--><g id="link_login_user"><path d="M128,526.8319 C128,550.4219 128,584.3619 128,608.0319 " fill="none" id="login-to-user" style="stroke:#181818;stroke-width:1.0;"/><polygon fill="#181818" points="128,614.0319,132,605.0319,128,609.0319,124,605.0319,128,614.0319" style="stroke:#181818;stroke-width:1.0;"/><text fill="#000000" font-family="Noto Sans CJK JP" font-size="13" lengthAdjust="spacing" textLength="169" x="129" y="580.3519">&#19968;&#33324;&#12518;&#12540;&#12470;&#12540;&#12364;&#12525;&#12464;&#12452;&#12531;&#12377;&#12427;</text></g><!--link login to librarian--><g id="link_login_librarian"><path d="M146.57,526.8319 C158.24,537.5019 174.22,549.9119 191,556.2719 C215.16,565.4319 281.59,559.5819 307,564.2719 C368.52,575.6319 431.2899,595.9229 476.5699,612.1029 " fill="none" id="login-to-librarian" style="stroke:#181818;stroke-width:1.0;"/><polygon fill="#181818" points="482.22,614.1219,475.0908,607.3267,477.5116,612.4394,472.3989,614.8602,482.22,614.1219" style="stroke:#181818;stroke-width:1.0;"/><text fill="#000000" font-family="Noto Sans CJK JP" font-size="13" lengthAdjust="spacing" textLength="117" x="390" y="580.3519">&#21496;&#26360;&#12364;&#12525;&#12464;&#12452;&#12531;&#12377;&#12427;</text></g><!--link librarian to isbnCheckForm--><g id="link_librarian_isbnCheckForm"><path d="M594.1,626.1019 C661.64,614.3619 761,584.1319 761,507.7719 C761,262.7719 761,262.7719 761,262.7719 C761,208.2019 717.3773,178.5032 663.9473,160.2332 " fill="none" id="librarian-to-isbnCheckForm" style="stroke:#181818;stroke-width:1.0;"/><polygon fill="#181818" points="658.27,158.2919,665.4917,164.9887,663.0011,159.9097,668.0801,157.419,658.27,158.2919" style="stroke:#181818;stroke-width:1.0;"/></g><!--link isbnCheckForm to bookCreate--><g id="link_isbnCheckForm_bookCreate"><path d="M395.48,158.4619 C378.41,165.9219 362.27,175.6319 349,188.2719 C335.25,201.3619 329.6825,216.1136 326.3625,232.3436 " fill="none" id="isbnCheckForm-to-bookCreate" style="stroke:#181818;stroke-width:1.0;"/><polygon fill="#181818" points="325.16,238.2219,330.8825,230.2061,326.162,233.3234,323.0448,228.6029,325.16,238.2219" style="stroke:#181818;stroke-width:1.0;"/><text fill="#000000" font-family="Noto Sans CJK JP" font-size="13" lengthAdjust="spacing" textLength="148" x="350" y="204.3519">&#26360;&#31821;&#12364;DB&#12395;&#26410;&#30331;&#37682;&#12398;&#22580;&#21512;</text></g><!--link isbnCheckForm to copyCreate--><g id="link_isbnCheckForm_copyCreate"><path d="M518.88,158.3919 C507.19,197.5519 482.29,276.0619 453,339.2719 C448.37,349.2719 445.6108,354.722 440.4208,363.952 " fill="none" id="isbnCheckForm-to-copyCreate" style="stroke:#181818;stroke-width:1.0;"/><polygon fill="#181818" points="437.48,369.1819,445.3777,363.2976,439.9306,364.8237,438.4045,359.3765,437.48,369.1819" style="stroke:#181818;stroke-width:1.0;"/><text fill="#000000" font-family="Noto Sans CJK JP" font-size="13" lengthAdjust="spacing" textLength="161" x="493" y="269.8519">&#26360;&#31821;&#12364;DB&#12395;&#30331;&#37682;&#28168;&#12415;&#12398;&#22580;&#21512;</text></g><!--link bookCreate to copyCreate--><g id="link_bookCreate_copyCreate"><path d="M341.24,289.3419 C359.09,312.1519 381.8508,341.2179 399.7908,364.1279 " fill="none" id="bookCreate-to-copyCreate" style="stroke:#181818;stroke-width:1.0;"/><polygon fill="#181818" points="403.49,368.8519,401.0905,359.2998,400.4073,364.9153,394.7919,364.2321,403.49,368.8519" style="stroke:#181818;stroke-width:1.0;"/><text fill="#000000" font-family="Noto Sans CJK JP" font-size="13" lengthAdjust="spacing" textLength="65" x="379" y="335.3519">&#26360;&#31821;&#30331;&#37682;&#24460;</text></g><!--link copyCreate to copyConfirm--><g id="link_copyCreate_copyConfirm"><path d="M447.69,420.4619 C465.8,438.5719 486.0574,458.8293 504.1574,476.9293 " fill="none" id="copyCreate-to-copyConfirm" style="stroke:#181818;stroke-width:1.0;"/><polygon fill="#181818" points="508.4,481.1719,504.8645,471.9795,504.8645,477.6364,499.2076,477.6364,508.4,481.1719" style="stroke:#181818;stroke-width:1.0;"/></g><!--link copyConfirm to librarian--><g id="link_copyConfirm_librarian"><path d="M533,532.5619 C533,556.5719 533,586.4419 533,608.2619 " fill="none" id="copyConfirm-to-librarian" style="stroke:#181818;stroke-width:1.0;"/><polygon fill="#181818" points="533,614.2619,537,605.2619,533,609.2619,529,605.2619,533,614.2619" style="stroke:#181818;stroke-width:1.0;"/></g><!--link copyConfirm to isbnCheckForm--><g id="link_copyConfirm_isbnCheckForm"><path d="M531.77,481.2419 C531.17,442.0319 535.8,364.9919 577,319.2719 C604.1,289.2019 639.56,322.2719 663,289.2719 C676.13,270.7919 673.05,258.5819 663,238.2719 C645.42,202.7519 614.5509,178.9762 583.8209,161.4362 " fill="none" id="copyConfirm-to-isbnCheckForm" style="stroke:#181818;stroke-width:1.0;"/><polygon fill="#181818" points="578.61,158.4619,584.4435,166.3973,582.9524,160.9405,588.4092,159.4494,578.61,158.4619" style="stroke:#181818;stroke-width:1.0;"/><text fill="#000000" font-family="Noto Sans CJK JP" font-size="13" lengthAdjust="spacing" textLength="156" x="578" y="335.3519">&#34101;&#26360;&#12434;&#32154;&#12369;&#12390;&#30331;&#37682;&#12377;&#12427;&#22580;&#21512;</text></g><!--link bookSearch to searchResult--><g id="link_bookSearch_searchResult"><path d="M124.95,811.3419 C129.55,834.1519 135.1739,862.0603 139.7939,884.9703 " fill="none" id="bookSearch-to-searchResult" style="stroke:#181818;stroke-width:1.0;"/><polygon fill="#181818" points="140.98,890.8519,143.122,881.2388,139.9916,885.9506,135.2798,882.8202,140.98,890.8519" style="stroke:#181818;stroke-width:1.0;"/></g><!--link searchResult to bookStatus--><g id="link_searchResult_bookStatus"><path d="M157.05,942.3419 C167.3,965.1519 180.0277,993.4704 190.3377,1016.3804 " fill="none" id="searchResult-to-bookStatus" style="stroke:#181818;stroke-width:1.0;"/><polygon fill="#181818" points="192.8,1021.8519,192.7542,1012.0032,190.7481,1017.2923,185.4589,1015.2862,192.8,1021.8519" style="stroke:#181818;stroke-width:1.0;"/><text fill="#000000" font-family="Noto Sans CJK JP" font-size="13" lengthAdjust="spacing" textLength="143" x="179" y="988.3519">&#26412;&#12434;&#36984;&#25246;&#12375;&#12289;&#35443;&#32048;&#12434;&#30906;&#35469;</text></g><!--link bookStatus to borrowAndBook--><g id="link_bookStatus_borrowAndBook"><path d="M208.71,1073.4619 C212.17,1091.5719 215.7266,1110.178 219.1766,1128.278 " fill="none" id="bookStatus-to-borrowAndBook" style="stroke:#181818;stroke-width:1.0;"/><polygon fill="#181818" points="220.3,1134.1719,222.5441,1124.5821,219.3638,1129.2603,214.6856,1126.08,220.3,1134.1719" style="stroke:#181818;stroke-width:1.0;"/></g><!--link borrowAndBook to borrowCompletion--><g id="link_borrowAndBook_borrowCompletion"><path d="M246.99,1185.4619 C263.13,1203.5719 280.9695,1223.5913 297.0895,1241.6913 " fill="none" id="borrowAndBook-to-borrowCompletion" style="stroke:#181818;stroke-width:1.0;"/><polygon fill="#181818" points="301.08,1246.1719,298.0814,1236.7906,297.7546,1242.4381,292.1072,1242.1113,301.08,1246.1719" style="stroke:#181818;stroke-width:1.0;"/></g><!--link borrowCompletion to bookSearch--><g id="link_borrowCompletion_bookSearch"><path d="M364.28,1246.1619 C391.06,1226.7519 421,1196.9619 421,1160.7719 C421,915.7719 421,915.7719 421,915.7719 C421,870.7119 311.4253,833.5178 223.5353,810.5678 " fill="none" id="borrowCompletion-to-bookSearch" style="stroke:#181818;stroke-width:1.0;"/><polygon fill="#181818" points="217.73,809.0519,225.4274,815.196,222.5678,810.3152,227.4486,807.4555,217.73,809.0519" style="stroke:#181818;stroke-width:1.0;"/></g><!--link borrowingBooks to returnAndCancelReservation--><g id="link_borrowingBooks_returnAndCancelReservation"><path d="M480.38,811.5919 C480.21,826.4119 481.41,845.3719 487,861.2719 C491.51,874.1119 496.2217,881.983 503.9917,891.823 " fill="none" id="borrowingBooks-to-returnAndCancelReservation" style="stroke:#181818;stroke-width:1.0;"/><polygon fill="#181818" points="507.71,896.5319,505.2718,886.9896,504.6114,892.6078,498.9932,891.9474,507.71,896.5319" style="stroke:#181818;stroke-width:1.0;"/></g><!--link returnAndCancelReservation to borrowingBooks--><g id="link_returnAndCancelReservation_borrowingBooks"><path d="M518.66,896.7519 C511.11,874.0919 500.3667,841.8842 492.0867,817.0342 " fill="none" id="returnAndCancelReservation-to-borrowingBooks" style="stroke:#181818;stroke-width:1.0;"/><polygon fill="#181818" points="490.19,811.3419,489.2401,821.1449,491.7706,816.0855,496.8299,818.616,490.19,811.3419" style="stroke:#181818;stroke-width:1.0;"/><text fill="#000000" font-family="Noto Sans CJK JP" font-size="13" lengthAdjust="spacing" textLength="130" x="507" y="857.3519">&#36820;&#21364;&#12539;&#20104;&#32004;&#21462;&#12426;&#28040;&#12375;&#24460;</text></g><!--link user to bookSearch--><g id="link_user_bookSearch"><path d="M126.97,654.5119 C125.53,681.4819 123.2198,724.5504 121.6398,754.1504 " fill="none" id="user-to-bookSearch" style="stroke:#181818;stroke-width:1.0;"/><polygon fill="#181818" points="121.32,760.1419,125.794,751.3679,121.5865,755.149,117.8054,750.9415,121.32,760.1419" style="stroke:#181818;stroke-width:1.0;"/></g><!--link user to borrowingBooks--><g id="link_user_borrowingBooks"><path d="M173.19,654.3619 C237.03,681.3219 348.1225,728.238 418.3425,757.888 " fill="none" id="user-to-borrowingBooks" style="stroke:#181818;stroke-width:1.0;"/><polygon fill="#181818" points="423.87,760.2219,417.1348,753.036,419.2638,758.277,414.0229,760.406,423.87,760.2219" style="stroke:#181818;stroke-width:1.0;"/></g><rect fill="#DDDDDD" height="111.3596" id="_legend" rx="7.5" ry="7.5" style="stroke:#000000;stroke-width:1.0;" width="323" x="12" y="1330.2719"/><text fill="#000000" font-family="Noto Sans CJK JP" font-size="14" lengthAdjust="spacing" textLength="12" x="17" y="1351.5118">1.</text><text fill="#000000" font-family="Noto Sans CJK JP" font-size="14" lengthAdjust="spacing" textLength="253" x="33" y="1351.5118">LightBlue&#65288;&#38738;&#65289;: &#19968;&#33324;&#12518;&#12540;&#12470;&#12540;&#23554;&#29992;&#30011;&#38754;</text><text fill="#000000" font-family="Noto Sans CJK JP" font-size="14" lengthAdjust="spacing" textLength="12" x="17" y="1371.7838">2.</text><text fill="#000000" font-family="Noto Sans CJK JP" font-size="14" lengthAdjust="spacing" textLength="221" x="33" y="1371.7838">LightGreen&#65288;&#40644;&#32209;&#65289;: &#21496;&#26360;&#23554;&#29992;&#30011;&#38754;</text><text fill="#000000" font-family="Noto Sans CJK JP" font-size="14" lengthAdjust="spacing" textLength="12" x="17" y="1392.0557">3.</text><text fill="#000000" font-family="Noto Sans CJK JP" font-size="14" lengthAdjust="spacing" textLength="223" x="33" y="1392.0557">AliceBlue&#65288;&#28129;&#12356;&#38738;&#65289;: &#26908;&#32034;&#31995;&#12398;&#30011;&#38754;</text><text fill="#000000" font-family="Noto Sans CJK JP" font-size="14" lengthAdjust="spacing" textLength="12" x="17" y="1412.3276">4.</text><text fill="#000000" font-family="Noto Sans CJK JP" font-size="14" lengthAdjust="spacing" textLength="297" x="33" y="1412.3276">MistyRose&#65288;&#12500;&#12531;&#12463;&#65289;: &#12518;&#12540;&#12470;&#12540;&#12395;&#12424;&#12427;&#25805;&#20316;&#30011;&#38754;</text><text fill="#000000" font-family="Noto Sans CJK JP" font-size="14" lengthAdjust="spacing" textLength="12" x="17" y="1432.5995">5.</text><text fill="#000000" font-family="Noto Sans CJK JP" font-size="14" lengthAdjust="spacing" textLength="223" x="33" y="1432.5995">LightYellow&#65288;&#40644;&#33394;&#65289;: &#34920;&#31034;&#31995;&#12398;&#30011;&#38754;</text><!--SRC=[VLVRJjn847ttLxJOXvLMoW-W20bO9KesGL7GFgnszy4C3LWO6zbc8xIAHDjS1cP6GBWjooqGmYtXVfi50X_Js9vvoYziTRV7RWypl8ncsbLrgawTglROlPhHhrfg7-h4NUg0xZmp3QTDxSEeeSrqJDIk6ZPgVVaBUlccGUdHEZ72VVtE85ZR6KlhTpJJK1H7StIC_EneCFV9NytvIwV1KZ4yM0-dHgcxGRq5wksXSFQwlB9H9fVXzZLO88GKHSVTsEX4Ekvob1zUQTqzJei-WB_VPCih7xxVZ3UY- -9GAVkLUblKkw7k1NpwHsuukoE2HJxFBOmDvdGz75vESpz_iWWff6sRTIs3e_Z1vJebmnMKO7CvFDi8JwyfEQXOlzPiP_2jQJDhwirIxvIwXznQpeQIBzJDKZSNp1JklosdqleDwxhvJkHL6Z_XlgNrdN3pAeKa260yAChlF_s9dZnfGeRfl3AxDQ0MQ4AsephG3-f18XwmAHmRa6edXYcxVUeUKNSJSfPCzMgxXzm2MRL01cnieQGzSWp1Snq_NUkmL4jJ3IJrYNjNqkR5yiGGFzVZGuvPg_-KvEK2ALa4zgkS4-2A4cfxAKgg33-xoojPfrwEUfy1x0y3bMRFkVz1k7XTpf_mmZfCi_UrQgZTk0yRZbmT-bjcvqLxInjrF_WZd_s99O4fw86uyM10w9zRG4UCn-C292g0A9cZRfwIBT0f-56IWqZXnbLfho0YyKmqkyDexS6PtcUcrOUUFXKoR6gIiuW2WtSKE9L7yviNb6n7DjuOv_aEZ4jZUtvk3Xxva_F-xOA4oQfljJ2BNHimegmEuFtTYh__Z__nB1WVeaCadBW8Hd9LB76SZDa_-2XE9JmajvPWIXJ5cAovtuu1ZTUsoSNw1NwcSY7GYjrQ9FD4JADBunIB4OPCtYk9pfZgKhrGqfrXpoNU6b7SRT7xvRrACGUGZJ-LhU4lyL7jBvo3OfQIkoI415Z7N_Zvjtb5UXZRYf8LkVpKT3ruaiwv4ILDkVYNacaGiwo8A4kbxZggEO_1ybUeK6niwbsNJeh-s1LykR_AXcV3b4omVKnEItUpVk4iFWSHKtSYk8172x68VxMnjDRIenkFVNGt96ER4b1fUg4qDE9F5Me9c66qOzNAz301ypXDJUWnbFEfO7KvkYCYHBW_OYksBTp_63Z92wjeIxWvk5qufitntc8Rhd9PhF8-40nw8_x7Ow7rk3h19Xl9KyA0-Kz_yf2IMvWnIWx5oNrn7_2eEnpFLNb-eppqgI9ADaW90u0wODV9fQfzoS12Zi3eq1fqZI739qnhrE95lW_XaB0w-680unJnbcM-QpOwMm2_tf9A8_i7-VkhqJJraTQWk_vu8TPQiBnMdf-1dz7JQ7bKDqHAfDNiwzSnUrMgPY5zRQzoPUtoptdsnTiJ_OTLd1q5Y0eVqPt04aXOMKYTosA1PRwLuvpDKBB3haAoJKb1Ket8KpEw6M5rU_LWf62UfElUmiw0PG3hhQgHmJfe45j_gL7PSGjun1yZQgCcG1VFOJNd-JDfQjXEaGKjif4LNjchaSWQ8-6KIJ6OM6MSm8ZkdePdH_5UJp24YuWWwIKoa1MKs2IjbCoa_iRvY0AI9iSL2nAhAawnpsBKvv9xF49raciS41Pn_Mt8blzxXRzkfPENp-HmiB3Z_mn26MnnjgYPtcxB782KJDsqf7qNltRNj8faWUBNxLfM5JKYwRqQabR-1m00]--></g></svg>