<?xml version="1.0" encoding="us-ascii" standalone="no"?><svg xmlns="http://www.w3.org/2000/svg" xmlns:xlink="http://www.w3.org/1999/xlink" contentStyleType="text/css" height="1237px" preserveAspectRatio="none" style="width:1034px;height:1237px;background:#FFFFFF;" version="1.1" viewBox="0 0 1034 1237" width="1034px" zoomAndPan="magnify"><defs/><g><text fill="#000000" font-family="Noto Sans CJK JP" font-size="14" font-weight="bold" lengthAdjust="spacing" textLength="213" x="400.5" y="26.2399">&#20998;&#25955;&#22411;&#22259;&#26360;&#31649;&#29702;&#12450;&#12503;&#12522; &#30011;&#38754;&#36983;&#31227;&#22259;</text><!--cluster bookManagement--><g id="cluster_bookManagement"><path d="M385.5,48.2719 L893.5,48.2719 A12.5,12.5 0 0 1 906,60.7719 L906,93.8157 L373,93.8157 L373,60.7719 A12.5,12.5 0 0 1 385.5,48.2719 " fill="#90EE90" style="stroke:#90EE90;stroke-width:1.0;"/><rect fill="none" height="500" rx="12.5" ry="12.5" style="stroke:#181818;stroke-width:0.5;" width="533" x="373" y="48.2719"/><line style="stroke:#181818;stroke-width:0.5;" x1="373" x2="906" y1="93.8157" y2="93.8157"/><text fill="#000000" font-family="Noto Sans CJK JP" font-size="14" lengthAdjust="spacing" textLength="112" x="583.5" y="68.5118">&#21496;&#26360;&#21033;&#29992;&#12513;&#12491;&#12517;&#12540;</text><text fill="#000000" font-family="Noto Sans CJK JP" font-size="14" lengthAdjust="spacing" textLength="70" x="606" y="88.7838">&#34101;&#26360;&#12398;&#30331;&#37682;</text></g><!--cluster bookUse--><g id="cluster_bookUse"><path d="M19.5,701.2719 L1008.5,701.2719 A12.5,12.5 0 0 1 1021,713.7719 L1021,746.8157 L7,746.8157 L7,713.7719 A12.5,12.5 0 0 1 19.5,701.2719 " fill="#ADD8E6" style="stroke:#ADD8E6;stroke-width:1.0;"/><rect fill="none" height="388" rx="12.5" ry="12.5" style="stroke:#181818;stroke-width:0.5;" width="1014" x="7" y="701.2719"/><line style="stroke:#181818;stroke-width:0.5;" x1="7" x2="1021" y1="746.8157" y2="746.8157"/><text fill="#000000" font-family="Noto Sans CJK JP" font-size="14" lengthAdjust="spacing" textLength="168" x="430" y="721.5118">&#19968;&#33324;&#12518;&#12540;&#12470;&#12540;&#21033;&#29992;&#12513;&#12491;&#12517;&#12540;</text><text fill="#000000" font-family="Noto Sans CJK JP" font-size="14" lengthAdjust="spacing" textLength="448" x="291.5" y="741.7838">&#26412;&#12398;&#26908;&#32034;&#12539;&#36024;&#20986;&#12539;&#20104;&#32004;&#12362;&#12424;&#12403;&#36820;&#21364;&#12539;&#20104;&#32004;&#21462;&#12426;&#28040;&#12375;&#12539;&#20104;&#32004;&#36039;&#26009;&#12398;&#36024;&#12375;&#20986;&#12375;</text></g><rect fill="#FFE4E1" height="50.5438" rx="12.5" ry="12.5" style="stroke:#181818;stroke-width:0.5;" width="326" x="545" y="107.2719"/><text fill="#000000" font-family="Noto Sans CJK JP" font-size="14" lengthAdjust="spacing" textLength="129" x="643.5" y="128.5118">ISBN&#12434;&#20837;&#21147;&#12377;&#12427;&#30011;&#38754;</text><text fill="#000000" font-family="Noto Sans CJK JP" font-size="14" lengthAdjust="spacing" textLength="313" x="553" y="148.7838">&#12450;&#12503;&#12522;&#12398;DB&#12395;&#26360;&#31821;&#12364;&#30331;&#37682;&#12373;&#12428;&#12390;&#12356;&#12427;&#12363;&#12434;&#30906;&#35469;&#12377;&#12427;</text><rect fill="#FFE4E1" height="50.5438" rx="12.5" ry="12.5" style="stroke:#181818;stroke-width:0.5;" width="231" x="388.5" y="238.2719"/><text fill="#000000" font-family="Noto Sans CJK JP" font-size="14" lengthAdjust="spacing" textLength="126" x="441" y="259.5118">&#26360;&#31821;&#12434;&#30331;&#37682;&#12377;&#12427;&#30011;&#38754;</text><text fill="#000000" font-family="Noto Sans CJK JP" font-size="14" lengthAdjust="spacing" textLength="218" x="396.5" y="279.7838">API&#12391;&#26360;&#31821;&#12487;&#12540;&#12479;&#12434;&#33258;&#21205;&#12391;&#21462;&#24471;&#12377;&#12427;</text><rect fill="#FFE4E1" height="50.5438" rx="12.5" ry="12.5" style="stroke:#181818;stroke-width:0.5;" width="181" x="514.5" y="369.2719"/><text fill="#000000" font-family="Noto Sans CJK JP" font-size="14" lengthAdjust="spacing" textLength="126" x="542" y="390.5118">&#34101;&#26360;&#12434;&#30331;&#37682;&#12377;&#12427;&#30011;&#38754;</text><text fill="#000000" font-family="Noto Sans CJK JP" font-size="14" lengthAdjust="spacing" textLength="168" x="522.5" y="410.7838">&#20445;&#23384;&#22580;&#25152;&#12289;&#29366;&#24907;&#12434;&#20837;&#21147;&#12377;&#12427;</text><rect fill="#FFFFE0" height="50.5438" rx="12.5" ry="12.5" style="stroke:#181818;stroke-width:0.5;" width="237" x="596.5" y="481.2719"/><text fill="#000000" font-family="Noto Sans CJK JP" font-size="14" lengthAdjust="spacing" textLength="182" x="624" y="502.5118">&#30331;&#37682;&#12375;&#12383;&#34101;&#26360;&#12434;&#30906;&#35469;&#12377;&#12427;&#30011;&#38754;</text><text fill="#000000" font-family="Noto Sans CJK JP" font-size="14" lengthAdjust="spacing" textLength="224" x="604.5" y="522.7838">&#12479;&#12452;&#12488;&#12523;&#12289;&#20445;&#23384;&#22580;&#25152;&#12394;&#12393;&#12434;&#30906;&#35469;&#12377;&#12427;</text><rect fill="#F0F8FF" height="50.5438" rx="12.5" ry="12.5" style="stroke:#181818;stroke-width:0.5;" width="307" x="22.5" y="760.2719"/><text fill="#000000" font-family="Noto Sans CJK JP" font-size="14" lengthAdjust="spacing" textLength="84" x="134" y="781.5118">&#26412;&#12398;&#26908;&#32034;&#30011;&#38754;</text><text fill="#000000" font-family="Noto Sans CJK JP" font-size="14" lengthAdjust="spacing" textLength="294" x="30.5" y="801.7838">&#12479;&#12452;&#12488;&#12523;&#12539;&#33879;&#32773;&#21517;&#12394;&#12393;&#12398;&#20837;&#21147;&#12392;&#26908;&#32034;&#32080;&#26524;&#12398;&#34920;&#31034;</text><rect fill="#FFFFE0" height="50.5438" rx="12.5" ry="12.5" style="stroke:#181818;stroke-width:0.5;" width="195" x="176.5" y="891.2719"/><text fill="#000000" font-family="Noto Sans CJK JP" font-size="14" lengthAdjust="spacing" textLength="112" x="218" y="912.5118">&#26412;&#12398;&#24773;&#22577;&#30906;&#35469;&#30011;&#38754;</text><text fill="#000000" font-family="Noto Sans CJK JP" font-size="14" lengthAdjust="spacing" textLength="182" x="184.5" y="932.7838">&#26360;&#24433;&#12420;&#21508;&#34101;&#26360;&#12398;&#36024;&#20986;&#29366;&#27841;&#12394;&#12393;</text><rect fill="#FFE4E1" height="50.5438" rx="12.5" ry="12.5" style="stroke:#181818;stroke-width:0.5;" width="195" x="103.5" y="1022.2719"/><text fill="#000000" font-family="Noto Sans CJK JP" font-size="14" lengthAdjust="spacing" textLength="56" x="173" y="1043.5118">&#36024;&#20986;&#30011;&#38754;</text><text fill="#000000" font-family="Noto Sans CJK JP" font-size="14" lengthAdjust="spacing" textLength="182" x="111.5" y="1063.7838">&#26412;&#12434;&#20511;&#12426;&#12427;&#12383;&#12417;&#12398;&#25805;&#20316;&#12434;&#12377;&#12427;</text><rect fill="#FFE4E1" height="50.5438" rx="12.5" ry="12.5" style="stroke:#181818;stroke-width:0.5;" width="209" x="370.5" y="1022.2719"/><text fill="#000000" font-family="Noto Sans CJK JP" font-size="14" lengthAdjust="spacing" textLength="56" x="447" y="1043.5118">&#20104;&#32004;&#30011;&#38754;</text><text fill="#000000" font-family="Noto Sans CJK JP" font-size="14" lengthAdjust="spacing" textLength="196" x="378.5" y="1063.7838">&#26412;&#12434;&#20104;&#32004;&#12377;&#12427;&#12383;&#12417;&#12398;&#25805;&#20316;&#12434;&#12377;&#12427;</text><rect fill="#FFE4E1" height="50.5438" rx="12.5" ry="12.5" style="stroke:#181818;stroke-width:0.5;" width="640" x="365" y="760.2719"/><text fill="#000000" font-family="Noto Sans CJK JP" font-size="14" lengthAdjust="spacing" textLength="98" x="636" y="781.5118">&#12510;&#12452;&#12521;&#12452;&#12502;&#12521;&#12522;</text><text fill="#000000" font-family="Noto Sans CJK JP" font-size="14" lengthAdjust="spacing" textLength="630" x="370" y="801.7838">&#65288;&#33258;&#20998;&#12398;&#36024;&#20986;&#12539;&#20104;&#32004;&#20013;&#12398;&#26412;&#12398;&#19968;&#35239;&#30906;&#35469;&#12392;&#25805;&#20316;&#65288;&#36820;&#21364;&#12289;&#20104;&#32004;&#21462;&#12426;&#28040;&#12375;&#12289;&#20104;&#32004;&#36039;&#26009;&#12398;&#36024;&#12375;&#20986;&#12375;&#65289;&#12434;&#34892;&#12358;&#65289;</text><ellipse cx="310" cy="263.7719" fill="#222222" rx="10" ry="10" style="stroke:#222222;stroke-width:1.0;"/><rect fill="#F1F1F1" height="40" rx="12.5" ry="12.5" style="stroke:#181818;stroke-width:0.5;" width="80" x="270" y="374.7719"/><text fill="#000000" font-family="Noto Sans CJK JP" font-size="14" lengthAdjust="spacing" textLength="70" x="275" y="400.8759">&#12488;&#12483;&#12503;&#30011;&#38754;</text><rect fill="#F1F1F1" height="40" rx="12.5" ry="12.5" style="stroke:#181818;stroke-width:0.5;" width="94" x="263" y="486.7719"/><text fill="#000000" font-family="Noto Sans CJK JP" font-size="14" lengthAdjust="spacing" textLength="84" x="268" y="512.8759">&#12525;&#12464;&#12452;&#12531;&#30011;&#38754;</text><rect fill="#ADD8E6" height="40" rx="12.5" ry="12.5" style="stroke:#181818;stroke-width:0.5;" width="178" x="221" y="614.2719"/><text fill="#000000" font-family="Noto Sans CJK JP" font-size="14" lengthAdjust="spacing" textLength="168" x="226" y="640.3759">&#19968;&#33324;&#12518;&#12540;&#12470;&#12540;&#29992;&#12488;&#12483;&#12503;&#30011;&#38754;</text><rect fill="#90EE90" height="40" rx="12.5" ry="12.5" style="stroke:#181818;stroke-width:0.5;" width="122" x="654" y="614.2719"/><text fill="#000000" font-family="Noto Sans CJK JP" font-size="14" lengthAdjust="spacing" textLength="112" x="659" y="640.3759">&#21496;&#26360;&#29992;&#12488;&#12483;&#12503;&#30011;&#38754;</text><!--link *start* to notLogin--><g id="link_*start*_notLogin"><path d="M310,274.0519 C310,294.9619 310,340.1519 310,368.3519 " fill="none" id="*start*-to-notLogin" style="stroke:#181818;stroke-width:1.0;"/><polygon fill="#181818" points="310,374.3519,314,365.3519,310,369.3519,306,365.3519,310,374.3519" style="stroke:#181818;stroke-width:1.0;"/></g><!--link notLogin to login--><g id="link_notLogin_login"><path d="M310,414.9319 C310,435.0019 310,460.3419 310,480.4619 " fill="none" id="notLogin-to-login" style="stroke:#181818;stroke-width:1.0;"/><polygon fill="#181818" points="310,486.4619,314,477.4619,310,481.4619,306,477.4619,310,486.4619" style="stroke:#181818;stroke-width:1.0;"/></g><!--link login to user--><g id="link_login_user"><path d="M310,526.8319 C310,550.4219 310,584.3619 310,608.0319 " fill="none" id="login-to-user" style="stroke:#181818;stroke-width:1.0;"/><polygon fill="#181818" points="310,614.0319,314,605.0319,310,609.0319,306,605.0319,310,614.0319" style="stroke:#181818;stroke-width:1.0;"/><text fill="#000000" font-family="Noto Sans CJK JP" font-size="13" lengthAdjust="spacing" textLength="169" x="311" y="580.3519">&#19968;&#33324;&#12518;&#12540;&#12470;&#12540;&#12364;&#12525;&#12464;&#12452;&#12531;&#12377;&#12427;</text></g><!--link login to librarian--><g id="link_login_librarian"><path d="M328.57,526.8319 C340.24,537.5019 356.22,549.9119 373,556.2719 C397.16,565.4319 463.59,559.5819 489,564.2719 C550.52,575.6319 613.2899,595.9229 658.5699,612.1029 " fill="none" id="login-to-librarian" style="stroke:#181818;stroke-width:1.0;"/><polygon fill="#181818" points="664.22,614.1219,657.0908,607.3267,659.5116,612.4394,654.3989,614.8602,664.22,614.1219" style="stroke:#181818;stroke-width:1.0;"/><text fill="#000000" font-family="Noto Sans CJK JP" font-size="13" lengthAdjust="spacing" textLength="117" x="572" y="580.3519">&#21496;&#26360;&#12364;&#12525;&#12464;&#12452;&#12531;&#12377;&#12427;</text></g><!--link librarian to isbnCheckForm--><g id="link_librarian_isbnCheckForm"><path d="M776.1,626.1019 C843.64,614.3619 943,584.1319 943,507.7719 C943,262.7719 943,262.7719 943,262.7719 C943,208.2019 899.3773,178.5032 845.9473,160.2332 " fill="none" id="librarian-to-isbnCheckForm" style="stroke:#181818;stroke-width:1.0;"/><polygon fill="#181818" points="840.27,158.2919,847.4917,164.9887,845.0011,159.9097,850.0801,157.419,840.27,158.2919" style="stroke:#181818;stroke-width:1.0;"/></g><!--link isbnCheckForm to bookCreate--><g id="link_isbnCheckForm_bookCreate"><path d="M577.48,158.4619 C560.41,165.9219 544.27,175.6319 531,188.2719 C517.25,201.3619 511.6825,216.1136 508.3625,232.3436 " fill="none" id="isbnCheckForm-to-bookCreate" style="stroke:#181818;stroke-width:1.0;"/><polygon fill="#181818" points="507.16,238.2219,512.8825,230.2061,508.162,233.3234,505.0448,228.6029,507.16,238.2219" style="stroke:#181818;stroke-width:1.0;"/><text fill="#000000" font-family="Noto Sans CJK JP" font-size="13" lengthAdjust="spacing" textLength="148" x="532" y="204.3519">&#26360;&#31821;&#12364;DB&#12395;&#26410;&#30331;&#37682;&#12398;&#22580;&#21512;</text></g><!--link isbnCheckForm to copyCreate--><g id="link_isbnCheckForm_copyCreate"><path d="M700.88,158.3919 C689.19,197.5519 664.29,276.0619 635,339.2719 C630.37,349.2719 627.6108,354.722 622.4208,363.952 " fill="none" id="isbnCheckForm-to-copyCreate" style="stroke:#181818;stroke-width:1.0;"/><polygon fill="#181818" points="619.48,369.1819,627.3777,363.2976,621.9306,364.8237,620.4045,359.3765,619.48,369.1819" style="stroke:#181818;stroke-width:1.0;"/><text fill="#000000" font-family="Noto Sans CJK JP" font-size="13" lengthAdjust="spacing" textLength="161" x="675" y="269.8519">&#26360;&#31821;&#12364;DB&#12395;&#30331;&#37682;&#28168;&#12415;&#12398;&#22580;&#21512;</text></g><!--link bookCreate to copyCreate--><g id="link_bookCreate_copyCreate"><path d="M523.24,289.3419 C541.09,312.1519 563.8508,341.2179 581.7908,364.1279 " fill="none" id="bookCreate-to-copyCreate" style="stroke:#181818;stroke-width:1.0;"/><polygon fill="#181818" points="585.49,368.8519,583.0905,359.2998,582.4073,364.9153,576.7919,364.2321,585.49,368.8519" style="stroke:#181818;stroke-width:1.0;"/><text fill="#000000" font-family="Noto Sans CJK JP" font-size="13" lengthAdjust="spacing" textLength="65" x="561" y="335.3519">&#26360;&#31821;&#30331;&#37682;&#24460;</text></g><!--link copyCreate to copyConfirm--><g id="link_copyCreate_copyConfirm"><path d="M629.69,420.4619 C647.8,438.5719 668.0574,458.8293 686.1574,476.9293 " fill="none" id="copyCreate-to-copyConfirm" style="stroke:#181818;stroke-width:1.0;"/><polygon fill="#181818" points="690.4,481.1719,686.8645,471.9795,686.8645,477.6364,681.2076,477.6364,690.4,481.1719" style="stroke:#181818;stroke-width:1.0;"/></g><!--link copyConfirm to librarian--><g id="link_copyConfirm_librarian"><path d="M715,532.5619 C715,556.5719 715,586.4419 715,608.2619 " fill="none" id="copyConfirm-to-librarian" style="stroke:#181818;stroke-width:1.0;"/><polygon fill="#181818" points="715,614.2619,719,605.2619,715,609.2619,711,605.2619,715,614.2619" style="stroke:#181818;stroke-width:1.0;"/></g><!--link copyConfirm to isbnCheckForm--><g id="link_copyConfirm_isbnCheckForm"><path d="M713.77,481.2419 C713.17,442.0319 717.8,364.9919 759,319.2719 C786.1,289.2019 821.56,322.2719 845,289.2719 C858.13,270.7919 855.05,258.5819 845,238.2719 C827.42,202.7519 796.5509,178.9762 765.8209,161.4362 " fill="none" id="copyConfirm-to-isbnCheckForm" style="stroke:#181818;stroke-width:1.0;"/><polygon fill="#181818" points="760.61,158.4619,766.4435,166.3973,764.9524,160.9405,770.4092,159.4494,760.61,158.4619" style="stroke:#181818;stroke-width:1.0;"/><text fill="#000000" font-family="Noto Sans CJK JP" font-size="13" lengthAdjust="spacing" textLength="156" x="760" y="335.3519">&#34101;&#26360;&#12434;&#32154;&#12369;&#12390;&#30331;&#37682;&#12377;&#12427;&#22580;&#21512;</text></g><!--link bookSearch to bookStatus--><g id="link_bookSearch_bookStatus"><path d="M134.73,811.5619 C116.49,825.7119 101.66,844.0319 114,861.2719 C128.86,882.0319 146.4065,893.0788 170.6165,901.1288 " fill="none" id="bookSearch-to-bookStatus" style="stroke:#181818;stroke-width:1.0;"/><polygon fill="#181818" points="176.31,903.0219,169.0318,896.3865,171.5654,901.4443,166.5076,903.9779,176.31,903.0219" style="stroke:#181818;stroke-width:1.0;"/><text fill="#000000" font-family="Noto Sans CJK JP" font-size="13" lengthAdjust="spacing" textLength="143" x="115" y="857.3519">&#26412;&#12434;&#36984;&#25246;&#12375;&#12289;&#35443;&#32048;&#12434;&#30906;&#35469;</text></g><!--link bookStatus to bookSearch--><g id="link_bookStatus_bookSearch"><path d="M275.42,891.1319 C275.15,875.6619 272.58,855.9419 263,841.2719 C255.1,829.1919 248.5276,822.5511 236.3476,814.6711 " fill="none" id="bookStatus-to-bookSearch" style="stroke:#181818;stroke-width:1.0;"/><polygon fill="#181818" points="231.31,811.4119,236.6937,819.6591,235.508,814.1279,241.0392,812.9422,231.31,811.4119" style="stroke:#181818;stroke-width:1.0;"/><text fill="#000000" font-family="Noto Sans CJK JP" font-size="13" lengthAdjust="spacing" textLength="156" x="272" y="857.3519">&#26908;&#32034;&#32080;&#26524;&#12395;&#25147;&#12427;&#12508;&#12479;&#12531;&#25276;&#19979;</text></g><!--link bookStatus to borrowBook--><g id="link_bookStatus_borrowBook"><path d="M176.49,929.1719 C150.76,937.1319 125.8,950.3719 110,972.2719 C95.9,991.8119 108.8806,1006.2742 132.6306,1019.3142 " fill="none" id="bookStatus-to-borrowBook" style="stroke:#181818;stroke-width:1.0;"/><polygon fill="#181818" points="137.89,1022.2019,131.926,1014.3641,133.5072,1019.7955,128.0758,1021.3766,137.89,1022.2019" style="stroke:#181818;stroke-width:1.0;"/><text fill="#000000" font-family="Noto Sans CJK JP" font-size="13" lengthAdjust="spacing" textLength="91" x="111" y="988.3519">&#36024;&#20986;&#12508;&#12479;&#12531;&#25276;&#19979;</text></g><!--link borrowBook to bookStatus--><g id="link_borrowBook_bookStatus"><path d="M214.79,1022.2619 C222.97,1007.7219 233.56,988.9419 243,972.2719 C248.52,962.5119 251.6504,957.0055 256.9704,947.6655 " fill="none" id="borrowBook-to-bookStatus" style="stroke:#181818;stroke-width:1.0;"/><polygon fill="#181818" points="259.94,942.4519,252.0099,948.2925,257.4653,946.7966,258.9613,952.252,259.94,942.4519" style="stroke:#181818;stroke-width:1.0;"/><text fill="#000000" font-family="Noto Sans CJK JP" font-size="13" lengthAdjust="spacing" textLength="143" x="244" y="988.3519">&#36024;&#20986;&#23436;&#20102;&#36890;&#30693;&#20184;&#12365;&#12391;&#25147;&#12427;</text></g><!--link bookStatus to reserveBook--><g id="link_bookStatus_reserveBook"><path d="M336.19,942.3019 C354.76,950.7219 374.75,960.9219 392,972.2719 C413.84,986.6419 431.4518,1002.355 447.2718,1017.985 " fill="none" id="bookStatus-to-reserveBook" style="stroke:#181818;stroke-width:1.0;"/><polygon fill="#181818" points="451.54,1022.2019,447.949,1013.0311,447.9832,1018.6878,442.3264,1018.722,451.54,1022.2019" style="stroke:#181818;stroke-width:1.0;"/><text fill="#000000" font-family="Noto Sans CJK JP" font-size="13" lengthAdjust="spacing" textLength="91" x="417" y="988.3519">&#20104;&#32004;&#12508;&#12479;&#12531;&#25276;&#19979;</text></g><!--link reserveBook to bookStatus--><g id="link_reserveBook_bookStatus"><path d="M503.64,1022.0319 C517.7,1006.9019 529.25,987.5719 517,972.2719 C498.59,949.2819 436.8958,936.1266 377.6358,928.1066 " fill="none" id="reserveBook-to-bookStatus" style="stroke:#181818;stroke-width:1.0;"/><polygon fill="#181818" points="371.69,927.3019,380.0722,932.4728,376.6448,927.9725,381.1451,924.5451,371.69,927.3019" style="stroke:#181818;stroke-width:1.0;"/><text fill="#000000" font-family="Noto Sans CJK JP" font-size="13" lengthAdjust="spacing" textLength="143" x="523" y="988.3519">&#20104;&#32004;&#23436;&#20102;&#36890;&#30693;&#20184;&#12365;&#12391;&#25147;&#12427;</text></g><!--link user to bookSearch--><g id="link_user_bookSearch"><path d="M292.76,654.5119 C268.58,681.4819 228.6154,726.0747 202.0754,755.6747 " fill="none" id="user-to-bookSearch" style="stroke:#181818;stroke-width:1.0;"/><polygon fill="#181818" points="198.07,760.1419,207.0563,756.1113,201.4079,756.4192,201.1,750.7707,198.07,760.1419" style="stroke:#181818;stroke-width:1.0;"/></g><!--link user to borrowingBooks--><g id="link_user_borrowingBooks"><path d="M357.87,654.3619 C425.5,681.3219 543.4665,728.3502 617.8465,758.0002 " fill="none" id="user-to-borrowingBooks" style="stroke:#181818;stroke-width:1.0;"/><polygon fill="#181818" points="623.42,760.2219,616.5409,753.1736,618.7754,758.3705,613.5786,760.6049,623.42,760.2219" style="stroke:#181818;stroke-width:1.0;"/></g><rect fill="#DDDDDD" height="111.3596" id="_legend" rx="7.5" ry="7.5" style="stroke:#000000;stroke-width:1.0;" width="323" x="12" y="1106.2719"/><text fill="#000000" font-family="Noto Sans CJK JP" font-size="14" lengthAdjust="spacing" textLength="12" x="17" y="1127.5118">1.</text><text fill="#000000" font-family="Noto Sans CJK JP" font-size="14" lengthAdjust="spacing" textLength="253" x="33" y="1127.5118">LightBlue&#65288;&#38738;&#65289;: &#19968;&#33324;&#12518;&#12540;&#12470;&#12540;&#23554;&#29992;&#30011;&#38754;</text><text fill="#000000" font-family="Noto Sans CJK JP" font-size="14" lengthAdjust="spacing" textLength="12" x="17" y="1147.7838">2.</text><text fill="#000000" font-family="Noto Sans CJK JP" font-size="14" lengthAdjust="spacing" textLength="221" x="33" y="1147.7838">LightGreen&#65288;&#40644;&#32209;&#65289;: &#21496;&#26360;&#23554;&#29992;&#30011;&#38754;</text><text fill="#000000" font-family="Noto Sans CJK JP" font-size="14" lengthAdjust="spacing" textLength="12" x="17" y="1168.0557">3.</text><text fill="#000000" font-family="Noto Sans CJK JP" font-size="14" lengthAdjust="spacing" textLength="223" x="33" y="1168.0557">AliceBlue&#65288;&#28129;&#12356;&#38738;&#65289;: &#26908;&#32034;&#31995;&#12398;&#30011;&#38754;</text><text fill="#000000" font-family="Noto Sans CJK JP" font-size="14" lengthAdjust="spacing" textLength="12" x="17" y="1188.3276">4.</text><text fill="#000000" font-family="Noto Sans CJK JP" font-size="14" lengthAdjust="spacing" textLength="297" x="33" y="1188.3276">MistyRose&#65288;&#12500;&#12531;&#12463;&#65289;: &#12518;&#12540;&#12470;&#12540;&#12395;&#12424;&#12427;&#25805;&#20316;&#30011;&#38754;</text><text fill="#000000" font-family="Noto Sans CJK JP" font-size="14" lengthAdjust="spacing" textLength="12" x="17" y="1208.5995">5.</text><text fill="#000000" font-family="Noto Sans CJK JP" font-size="14" lengthAdjust="spacing" textLength="223" x="33" y="1208.5995">LightYellow&#65288;&#40644;&#33394;&#65289;: &#34920;&#31034;&#31995;&#12398;&#30011;&#38754;</text><!--SRC=[XLRRJjnM57ttLnpHXqgLyWCeGWfKYP8cA2hgGzNqmGnci30siaqZL5KQsro6kIYGSWbXW42v4oWmN4OC2HzpnfTvoYzqdtDip_5WoijePE-zrjvhhxDzZ65P7HLrSGGDI8FYc68-rLIpLnoHK4UlPcgeJrGDrFFY9_JYTOSm90z8I1ePDSSXsiZeygWfQweWcBAfICZDJtaB_xXhHNUbwgtK_ECDVtOAsvlOMSBE0VBdwytLpQPrvU_M8G8X90YAb9NK0QH8WwRmtKivEsHsAsFIjvjyS_NzjvkPJjIevOByP-piOES6svVmwvxO_lmU0mjpdkcIf9Aa-eH_DKVpt7SrA24P-qIHCrA8xrrjO6iYOl6sAlxvfb-jO-iuYdub6-Rupvf1eh4pZvqgjl-bqNmrs3h4TXxRHU_lSkDB9L7MhvAYQ6zPNS7C6SqDDlRyhUi44nE0w208l_tmEthqg0kfclbIoyeWBSY435CqOHxOWK8SK9CbTY3HQ0KcuewmVOBjBQYP2rNQu-vg2sAbaOmPaevQu-4ncCxtv2boloxgigWYRauqEogRDaiBG_Iv4Z-ad6dpnrQ9Rn1Row1-MtABE792UfOW9Dfmy_kqamti5B6p3MHlL1JCNz3yOt-vtYoTqSRwDMtubQYAMMb4Kas-E_GdhyxplkvURBzt9xVTmWhZPF80Rdmm0Fh7Rl0HqV6q38Ko8cmjOBk4hHtmAUHXgmX8_kPrS51cIBGIsUXNUuQapF1JJHz1Znyp6tPryLM4m90T0YVgUFBwERPsmnXdckfy2y71z85RN81Nxhj5z-iInqcwxz4bWfrE64fs3s7ZTjKz-k1-ElTcSZXd-OLBRxBOfXBboMYZu__B4y53SUijJauYJknREdZmw25m9agmO0BxQTfIVaqTbAcoxEH20Ny9BNiHioL682G7GjvpSi6cYORCHbuvY7euXchSsNnAFYT3UpvBzcfvRDss83Z2U_9Pdlkr970lurZMii2tdpXKTzuaQ-v4hLbSViJM77YODq9OfN3l5aezXbxbCtJ85ZLswi5PpPs-XZ-Dwxn_Fe6j0bd3LZMudNVBv_5py2ws2zvbdfWaUXXKfxt5PK0347XESAobsDc_61AtwvBdcIyYtLjGsTnIa9jqPykXiM0ieR7tmiIBMM-jGkYfesBYFadKCqF4wZIixGmpPcVI_NJAZ1hpayNrvHJR4-xiHBoic3xaR5KjLaYB1n373DxH_D5bUJ4sqCB9pAs3YdG9mH-B549F8xnAh0LTrzvs0yCznvMftuOTpM_v8NXTWY_27r8QVlBZjqQdiKz_5yaVv-0DkHsGXPQVYhM9xT2e7H5AAZ0nuyvkj0ds60l9PRQ2pN7NLj73L5l1Hv_iqWrOv5FmdnDALhEa5uDlXZRoVUZri4mexSA2Bm5zn_aatYtXF3j3GPjMpIkiiSA2_Qf_VXBljXO4IuaH669y3meDUkZbwsGgJeLOtAbwXPj6hPWE4eyUJdyexuDP_4JXIy-Ca9eMez_fcP6vnwN6zLGpzz5VtsxKFs2hJ3vfj7gAm3FTWGX7-W04h7rw9KbgnZ_ZXmhRBRvNCsEIFT8jPeQpkZQc3lHeYgQtJZgAhwQfKQ4zK7mbJOkAJZFYxfvGjF0V]--></g></svg>