<?xml version="1.0" encoding="us-ascii" standalone="no"?><svg xmlns="http://www.w3.org/2000/svg" xmlns:xlink="http://www.w3.org/1999/xlink" contentStyleType="text/css" height="939px" preserveAspectRatio="none" style="width:476px;height:939px;background:#FFFFFF;" version="1.1" viewBox="0 0 476 939" width="476px" zoomAndPan="magnify"><defs/><g><text fill="#000000" font-family="Noto Sans CJK JP" font-size="14" font-weight="bold" lengthAdjust="spacing" textLength="213" x="121.5" y="26.2399">&#20998;&#25955;&#22411;&#22259;&#26360;&#31649;&#29702;&#12450;&#12503;&#12522; &#30011;&#38754;&#36983;&#31227;&#22259;</text><!--cluster ?????--><g id="cluster_&#12507;&#12540;&#12512;&#30011;&#38754;"><path d="M139.5,122.2719 L405.5,122.2719 A12.5,12.5 0 0 1 418,134.7719 L418,147.5438 L127,147.5438 L127,134.7719 A12.5,12.5 0 0 1 139.5,122.2719 " fill="#F1F1F1" style="stroke:#F1F1F1;stroke-width:1.0;"/><rect fill="none" height="231" rx="12.5" ry="12.5" style="stroke:#181818;stroke-width:0.5;" width="291" x="127" y="122.2719"/><line style="stroke:#181818;stroke-width:0.5;" x1="127" x2="418" y1="147.5438" y2="147.5438"/><text fill="#000000" font-family="Noto Sans CJK JP" font-size="14" lengthAdjust="spacing" textLength="70" x="237.5" y="142.5118">&#12507;&#12540;&#12512;&#30011;&#38754;</text></g><!--cluster ????--><g id="cluster_&#26412;&#12398;&#31649;&#29702;"><path d="M377.5,413.2719 L450.5,413.2719 A12.5,12.5 0 0 1 463,425.7719 L463,438.5438 L365,438.5438 L365,425.7719 A12.5,12.5 0 0 1 377.5,413.2719 " fill="#F1F1F1" style="stroke:#F1F1F1;stroke-width:1.0;"/><rect fill="none" height="95" rx="12.5" ry="12.5" style="stroke:#181818;stroke-width:0.5;" width="98" x="365" y="413.2719"/><line style="stroke:#181818;stroke-width:0.5;" x1="365" x2="463" y1="438.5438" y2="438.5438"/><text fill="#000000" font-family="Noto Sans CJK JP" font-size="14" lengthAdjust="spacing" textLength="56" x="386" y="433.5118">&#26412;&#12398;&#31649;&#29702;</text></g><!--cluster ????--><g id="cluster_&#26412;&#12398;&#21033;&#29992;"><path d="M19.5,413.2719 L328.5,413.2719 A12.5,12.5 0 0 1 341,425.7719 L341,438.5438 L7,438.5438 L7,425.7719 A12.5,12.5 0 0 1 19.5,413.2719 " fill="#F1F1F1" style="stroke:#F1F1F1;stroke-width:1.0;"/><rect fill="none" height="520" rx="12.5" ry="12.5" style="stroke:#181818;stroke-width:0.5;" width="334" x="7" y="413.2719"/><line style="stroke:#181818;stroke-width:0.5;" x1="7" x2="341" y1="438.5438" y2="438.5438"/><text fill="#000000" font-family="Noto Sans CJK JP" font-size="14" lengthAdjust="spacing" textLength="56" x="146" y="433.5118">&#26412;&#12398;&#21033;&#29992;</text></g><rect fill="#F1F1F1" height="40" rx="12.5" ry="12.5" style="stroke:#181818;stroke-width:0.5;" width="80" x="222" y="169.2719"/><text fill="#000000" font-family="Noto Sans CJK JP" font-size="14" lengthAdjust="spacing" textLength="70" x="227" y="195.3759">&#12525;&#12464;&#12452;&#12531;&#21069;</text><rect fill="#F1F1F1" height="40" rx="12.5" ry="12.5" style="stroke:#181818;stroke-width:0.5;" width="94" x="159" y="289.2719"/><text fill="#000000" font-family="Noto Sans CJK JP" font-size="14" lengthAdjust="spacing" textLength="84" x="164" y="315.3759">&#19968;&#33324;&#12518;&#12540;&#12470;&#12540;</text><rect fill="#F1F1F1" height="40" rx="12.5" ry="12.5" style="stroke:#181818;stroke-width:0.5;" width="50" x="331" y="289.2719"/><text fill="#000000" font-family="Noto Sans CJK JP" font-size="14" lengthAdjust="spacing" textLength="28" x="342" y="315.3759">&#21496;&#26360;</text><rect fill="#F1F1F1" height="40" rx="12.5" ry="12.5" style="stroke:#181818;stroke-width:0.5;" width="66" x="381" y="452.2719"/><text fill="#000000" font-family="Noto Sans CJK JP" font-size="14" lengthAdjust="spacing" textLength="56" x="386" y="478.3759">&#26412;&#12398;&#30331;&#37682;</text><rect fill="#F1F1F1" height="40" rx="12.5" ry="12.5" style="stroke:#181818;stroke-width:0.5;" width="66" x="51" y="452.2719"/><text fill="#000000" font-family="Noto Sans CJK JP" font-size="14" lengthAdjust="spacing" textLength="56" x="56" y="478.3759">&#26412;&#12398;&#26908;&#32034;</text><rect fill="#F1F1F1" height="40" rx="12.5" ry="12.5" style="stroke:#181818;stroke-width:0.5;" width="122" x="23" y="574.2719"/><text fill="#000000" font-family="Noto Sans CJK JP" font-size="14" lengthAdjust="spacing" textLength="112" x="28" y="600.3759">&#26412;&#12398;&#26908;&#32034;&#32080;&#26524;&#34920;&#31034;</text><rect fill="#F1F1F1" height="40" rx="12.5" ry="12.5" style="stroke:#181818;stroke-width:0.5;" width="122" x="23" y="675.2719"/><text fill="#000000" font-family="Noto Sans CJK JP" font-size="14" lengthAdjust="spacing" textLength="112" x="28" y="701.3759">&#26412;&#12398;&#36024;&#20986;&#29366;&#27841;&#30906;&#35469;</text><rect fill="#F1F1F1" height="40" rx="12.5" ry="12.5" style="stroke:#181818;stroke-width:0.5;" width="80" x="55" y="776.2719"/><text fill="#000000" font-family="Noto Sans CJK JP" font-size="14" lengthAdjust="spacing" textLength="70" x="60" y="802.3759">&#36024;&#20986;&#12539;&#20104;&#32004;</text><rect fill="#F1F1F1" height="40" rx="12.5" ry="12.5" style="stroke:#181818;stroke-width:0.5;" width="136" x="70" y="877.2719"/><text fill="#000000" font-family="Noto Sans CJK JP" font-size="14" lengthAdjust="spacing" textLength="126" x="75" y="903.3759">&#36024;&#20986;&#12539;&#20104;&#32004;&#23436;&#20102;&#34920;&#31034;</text><rect fill="#F1F1F1" height="40" rx="12.5" ry="12.5" style="stroke:#181818;stroke-width:0.5;" width="108" x="152" y="452.2719"/><text fill="#000000" font-family="Noto Sans CJK JP" font-size="14" lengthAdjust="spacing" textLength="98" x="157" y="478.3759">&#36024;&#20986;&#12539;&#20104;&#32004;&#29366;&#27841;</text><rect fill="#F1F1F1" height="40" rx="12.5" ry="12.5" style="stroke:#181818;stroke-width:0.5;" width="108" x="217" y="574.2719"/><text fill="#000000" font-family="Noto Sans CJK JP" font-size="14" lengthAdjust="spacing" textLength="98" x="222" y="600.3759">&#36820;&#21364;&#12539;&#20104;&#32004;&#21462;&#28040;</text><ellipse cx="135" cy="57.2719" fill="#222222" rx="10" ry="10" style="stroke:#222222;stroke-width:1.0;"/><!--link *start* to ?????--><g id="link_*start*_&#12507;&#12540;&#12512;&#30011;&#38754;"><path d="M135,67.6219 C135,74.9569 135,85.9888 135,98.4536 C135,104.6861 135,111.2767 135,117.9426 C135,118.7759 135,119.6103 135,120.4453 C135,120.8628 135,115.2805 135,115.6983 " fill="none" id="*start*-to-&#12507;&#12540;&#12512;&#30011;&#38754;" style="stroke:#181818;stroke-width:1.0;"/><polygon fill="#181818" points="135,121.6983,139,112.6983,135,116.6983,131,112.6983,135,121.6983" style="stroke:#181818;stroke-width:1.0;"/></g><!--link notLogin to user--><g id="link_notLogin_user"><path d="M221.67,208.6119 C209.58,216.2619 197.75,226.4119 191,239.2719 C182.8,254.9019 186.0638,269.3304 192.6838,283.7304 " fill="none" id="notLogin-to-user" style="stroke:#181818;stroke-width:1.0;"/><polygon fill="#181818" points="195.19,289.1819,195.0651,279.3338,193.1015,284.639,187.7964,282.6754,195.19,289.1819" style="stroke:#181818;stroke-width:1.0;"/><text fill="#000000" font-family="Noto Sans CJK JP" font-size="13" lengthAdjust="spacing" textLength="78" x="192" y="255.3519">&#12525;&#12464;&#12452;&#12531;&#12377;&#12427;</text></g><!--link notLogin to librarian--><g id="link_notLogin_librarian"><path d="M277.31,209.4919 C294.79,231.4319 319.4825,262.4282 336.9525,284.3682 " fill="none" id="notLogin-to-librarian" style="stroke:#181818;stroke-width:1.0;"/><polygon fill="#181818" points="340.69,289.0619,338.213,279.5296,337.5754,285.1504,331.9546,284.5129,340.69,289.0619" style="stroke:#181818;stroke-width:1.0;"/><text fill="#000000" font-family="Noto Sans CJK JP" font-size="13" lengthAdjust="spacing" textLength="78" x="315" y="255.3519">&#12525;&#12464;&#12452;&#12531;&#12377;&#12427;</text></g><!--link librarian to ????--><g id="link_librarian_&#26412;&#12398;&#30331;&#37682;"><path d="M359.63,329.2719 C363.32,347.1319 369.66,374.4419 378,397.2719 C385.06,416.5919 392.7435,432.2994 400.5835,446.9794 " fill="none" id="librarian-to-&#26412;&#12398;&#30331;&#37682;" style="stroke:#181818;stroke-width:1.0;"/><polygon fill="#181818" points="403.41,452.2719,402.6986,442.4488,401.0546,447.8615,395.6419,446.2175,403.41,452.2719" style="stroke:#181818;stroke-width:1.0;"/></g><!--link ???? to librarian--><g id="link_&#26412;&#12398;&#30331;&#37682;_librarian"><path d="M407.13,452.1919 C395.97,421.2219 376.0729,366.007 364.9129,335.017 " fill="none" id="&#26412;&#12398;&#30331;&#37682;-to-librarian" style="stroke:#181818;stroke-width:1.0;"/><polygon fill="#181818" points="362.88,329.3719,362.1659,339.1948,364.5741,334.0762,369.6928,336.4843,362.88,329.3719" style="stroke:#181818;stroke-width:1.0;"/><text fill="#000000" font-family="Noto Sans CJK JP" font-size="13" lengthAdjust="spacing" textLength="52" x="387" y="393.3519">&#30331;&#37682;&#23436;&#20102;</text></g><!--link bookSearch to searchResult--><g id="link_bookSearch_searchResult"><path d="M84,492.2819 C84,514.6219 84,545.4819 84,567.9519 " fill="none" id="bookSearch-to-searchResult" style="stroke:#181818;stroke-width:1.0;"/><polygon fill="#181818" points="84,573.9519,88,564.9519,84,568.9519,80,564.9519,84,573.9519" style="stroke:#181818;stroke-width:1.0;"/></g><!--link searchResult to bookStatus--><g id="link_searchResult_bookStatus"><path d="M84,614.3619 C84,631.8919 84,651.7319 84,669.2419 " fill="none" id="searchResult-to-bookStatus" style="stroke:#181818;stroke-width:1.0;"/><polygon fill="#181818" points="84,675.2419,88,666.2419,84,670.2419,80,666.2419,84,675.2419" style="stroke:#181818;stroke-width:1.0;"/></g><!--link bookStatus to borrowAndBook--><g id="link_bookStatus_borrowAndBook"><path d="M86.12,715.3619 C88.07,732.8919 90.2759,752.7688 92.2259,770.2788 " fill="none" id="bookStatus-to-borrowAndBook" style="stroke:#181818;stroke-width:1.0;"/><polygon fill="#181818" points="92.89,776.2419,95.8693,766.8545,92.3366,771.2726,87.9184,767.7399,92.89,776.2419" style="stroke:#181818;stroke-width:1.0;"/></g><!--link borrowAndBook to borrowCompletion--><g id="link_borrowAndBook_borrowCompletion"><path d="M103.29,816.3619 C110.91,833.8919 119.7411,854.228 127.3411,871.738 " fill="none" id="borrowAndBook-to-borrowCompletion" style="stroke:#181818;stroke-width:1.0;"/><polygon fill="#181818" points="129.73,877.2419,129.8159,867.3934,127.7392,872.6553,122.4774,870.5786,129.73,877.2419" style="stroke:#181818;stroke-width:1.0;"/></g><!--link borrowCompletion to bookSearch--><g id="link_borrowCompletion_bookSearch"><path d="M151.84,877.2319 C164.41,858.0419 181,827.0619 181,797.2719 C181,644.2719 181,644.2719 181,644.2719 C181,582.1519 136.1172,526.2679 107.7772,496.6379 " fill="none" id="borrowCompletion-to-bookSearch" style="stroke:#181818;stroke-width:1.0;"/><polygon fill="#181818" points="103.63,492.3019,106.9602,501.5707,107.086,495.9152,112.7415,496.0411,103.63,492.3019" style="stroke:#181818;stroke-width:1.0;"/></g><!--link borrowingBooks to returnAndCancelReservation--><g id="link_borrowingBooks_returnAndCancelReservation"><path d="M178.54,492.4019 C161.66,506.6119 145.3,526.5119 157,544.2719 C170.45,564.6919 188.6499,574.8527 211.1299,581.8327 " fill="none" id="borrowingBooks-to-returnAndCancelReservation" style="stroke:#181818;stroke-width:1.0;"/><polygon fill="#181818" points="216.86,583.6119,209.4509,577.123,212.0849,582.1292,207.0787,584.7632,216.86,583.6119" style="stroke:#181818;stroke-width:1.0;"/></g><!--link returnAndCancelReservation to borrowingBooks--><g id="link_returnAndCancelReservation_borrowingBooks"><path d="M260.53,573.9519 C248.36,551.4819 231.2575,519.8977 219.1575,497.5577 " fill="none" id="returnAndCancelReservation-to-borrowingBooks" style="stroke:#181818;stroke-width:1.0;"/><polygon fill="#181818" points="216.3,492.2819,217.0691,502.1007,218.6813,496.6784,224.1035,498.2906,216.3,492.2819" style="stroke:#181818;stroke-width:1.0;"/><text fill="#000000" font-family="Noto Sans CJK JP" font-size="13" lengthAdjust="spacing" textLength="130" x="245" y="540.3519">&#36820;&#21364;&#12539;&#20104;&#32004;&#21462;&#12426;&#28040;&#12375;&#24460;</text></g><!--link user to bookSearch--><g id="link_user_bookSearch"><path d="M191.53,329.3719 C168.05,360.3619 125.5429,416.4392 102.0829,447.4092 " fill="none" id="user-to-bookSearch" style="stroke:#181818;stroke-width:1.0;"/><polygon fill="#181818" points="98.46,452.1919,107.0829,447.4331,101.4791,448.2063,100.7059,442.6026,98.46,452.1919" style="stroke:#181818;stroke-width:1.0;"/></g><!--link user to borrowingBooks--><g id="link_user_borrowingBooks"><path d="M206,329.3719 C206,360.3619 206,415.2219 206,446.1919 " fill="none" id="user-to-borrowingBooks" style="stroke:#181818;stroke-width:1.0;"/><polygon fill="#181818" points="206,452.1919,210,443.1919,206,447.1919,202,443.1919,206,452.1919" style="stroke:#181818;stroke-width:1.0;"/></g><!--SRC=[VLFHQXD157sVhnZo8WZzWJu86l2XIf7sKNoO9cExTBCRPYUAYE3kIenjGliGBILfiJ7KMcgG9eqX4VsOoUuaV-7iJCpERcnU5kRUSyuzzyoEisjOHKHG0URnSrGowKFRekkeW65ctQOst4IM0xDhZ-3QampOCV8OuaAHlX9e9qUC8ZLi2m1gK1F3e58EFtu9JlU3HZTi37ZdZ1-McTTY_X7pBo6lZwOdhQdxatyT2GI4482dTv_1bPLxaFaDvlzY_cS50Wv55AUhy3KG9AXw6UP_PzuFvhMPtmq-r38GET2owMDxsx1qt7ZmTbAvOlvv9ENrnLT2ImucKCS51mDXMlPCOuiWOY2byqzK6fMqLQWFP-uny_ONeNEL_-FVWDcMOVEAkHsLLcB5MUDuDArU2tYi5wadclfXOROg1vtgU5W683arg7pZzOjaiAeJjfkyrv9nRDdsxYP69BTp6upV78QdpSdP1MyF9SMHy0tiY1zgaJIv7WJlXtol7tPTtXfEBcln784hEJf5WPa_6WyhlFTkXYJ4VddVoZyGb2LWjRJcIn6pTg5eOldhHjmb0igZHZMixMXcqk6VUb3hnKCFFeNzYkGGJ4l44ZwpoCfXK-I1oGkatamaS0VgWKHnthZCgyfUdBgyqSL4jO94fEABZxDkEh94HSEaqaaNurdAN1pXV1kLHseRFJsfiIISY75xM_Cw5ro5YxV0l3rn4Smz2dvNnVkHJpTfNgybRXVy1G00]--></g></svg>