<?xml version="1.0" encoding="us-ascii" standalone="no"?><svg xmlns="http://www.w3.org/2000/svg" xmlns:xlink="http://www.w3.org/1999/xlink" contentStyleType="text/css" height="1274px" preserveAspectRatio="none" style="width:740px;height:1274px;background:#FFFFFF;" version="1.1" viewBox="0 0 740 1274" width="740px" zoomAndPan="magnify"><defs/><g><text fill="#000000" font-family="Noto Sans CJK JP" font-size="14" font-weight="bold" lengthAdjust="spacing" textLength="213" x="253.5" y="26.2399">&#20998;&#25955;&#22411;&#22259;&#26360;&#31649;&#29702;&#12450;&#12503;&#12522; &#30011;&#38754;&#36983;&#31227;&#22259;</text><!--cluster bookManagement--><g id="cluster_bookManagement"><path d="M454.5,215.2719 L687.5,215.2719 A12.5,12.5 0 0 1 700,227.7719 L700,260.8157 L442,260.8157 L442,227.7719 A12.5,12.5 0 0 1 454.5,215.2719 " fill="#90EE90" style="stroke:#90EE90;stroke-width:1.0;"/><rect fill="none" height="146" rx="12.5" ry="12.5" style="stroke:#181818;stroke-width:0.5;" width="258" x="442" y="215.2719"/><line style="stroke:#181818;stroke-width:0.5;" x1="442" x2="700" y1="260.8157" y2="260.8157"/><text fill="#000000" font-family="Noto Sans CJK JP" font-size="14" lengthAdjust="spacing" textLength="112" x="515" y="235.5118">&#21496;&#26360;&#21033;&#29992;&#12513;&#12491;&#12517;&#12540;</text><text fill="#000000" font-family="Noto Sans CJK JP" font-size="14" lengthAdjust="spacing" textLength="56" x="544.5" y="255.7838">&#26412;&#12398;&#30331;&#37682;</text></g><!--cluster bookUse--><g id="cluster_bookUse"><path d="M19.5,514.2719 L714.5,514.2719 A12.5,12.5 0 0 1 727,526.7719 L727,559.8157 L7,559.8157 L7,526.7719 A12.5,12.5 0 0 1 19.5,514.2719 " fill="#ADD8E6" style="stroke:#ADD8E6;stroke-width:1.0;"/><rect fill="none" height="612" rx="12.5" ry="12.5" style="stroke:#181818;stroke-width:0.5;" width="720" x="7" y="514.2719"/><line style="stroke:#181818;stroke-width:0.5;" x1="7" x2="727" y1="559.8157" y2="559.8157"/><text fill="#000000" font-family="Noto Sans CJK JP" font-size="14" lengthAdjust="spacing" textLength="168" x="283" y="534.5118">&#19968;&#33324;&#12518;&#12540;&#12470;&#12540;&#21033;&#29992;&#12513;&#12491;&#12517;&#12540;</text><text fill="#000000" font-family="Noto Sans CJK JP" font-size="14" lengthAdjust="spacing" textLength="308" x="214.5" y="554.7838">&#26412;&#12398;&#26908;&#32034;&#12539;&#36024;&#20986;&#12539;&#20104;&#32004;&#12362;&#12424;&#12403;&#36820;&#21364;&#12539;&#20104;&#32004;&#21462;&#12426;&#28040;&#12375;</text></g><rect fill="#FFE4E1" height="70.8157" rx="12.5" ry="12.5" style="stroke:#181818;stroke-width:0.5;" width="226" x="458" y="274.2719"/><text fill="#000000" font-family="Noto Sans CJK JP" font-size="14" lengthAdjust="spacing" textLength="84" x="529" y="295.5118">&#26412;&#12398;&#30331;&#37682;&#30011;&#38754;</text><text fill="#000000" font-family="Noto Sans CJK JP" font-size="14" lengthAdjust="spacing" textLength="213" x="466" y="315.7838">ISBN&#12434;&#20837;&#21147;&#12375;&#12289;&#26412;&#12398;&#12487;&#12540;&#12479;&#12434;&#21462;&#24471;</text><text fill="#000000" font-family="Noto Sans CJK JP" font-size="14" lengthAdjust="spacing" textLength="182" x="481.5" y="336.0557">&#20445;&#23384;&#22580;&#25152;&#12420;&#29256;&#25968;&#12399;&#25163;&#20837;&#21147;&#12377;&#12427;</text><rect fill="#F0F8FF" height="50.5438" rx="12.5" ry="12.5" style="stroke:#181818;stroke-width:0.5;" width="195" x="22.5" y="573.2719"/><text fill="#000000" font-family="Noto Sans CJK JP" font-size="14" lengthAdjust="spacing" textLength="98" x="71" y="594.5118">&#34101;&#26360;&#12398;&#26908;&#32034;&#30011;&#38754;</text><text fill="#000000" font-family="Noto Sans CJK JP" font-size="14" lengthAdjust="spacing" textLength="182" x="30.5" y="614.7838">&#12479;&#12452;&#12488;&#12523;&#12289;&#33879;&#32773;&#21517;&#12434;&#20837;&#21147;&#12377;&#12427;</text><rect fill="#FFFFE0" height="50.5438" rx="12.5" ry="12.5" style="stroke:#181818;stroke-width:0.5;" width="206" x="43" y="704.2719"/><text fill="#000000" font-family="Noto Sans CJK JP" font-size="14" lengthAdjust="spacing" textLength="154" x="69" y="725.5118">&#34101;&#26360;&#12398;&#26908;&#32034;&#32080;&#26524;&#34920;&#31034;&#30011;&#38754;</text><text fill="#000000" font-family="Noto Sans CJK JP" font-size="14" lengthAdjust="spacing" textLength="196" x="48" y="745.7838">&#65288;&#34101;&#26360;&#12398;&#12522;&#12473;&#12488;&#12364;&#34920;&#31034;&#12373;&#12428;&#12427;&#65289;</text><rect fill="#FFFFE0" height="50.5438" rx="12.5" ry="12.5" style="stroke:#181818;stroke-width:0.5;" width="363" x="22.5" y="835.2719"/><text fill="#000000" font-family="Noto Sans CJK JP" font-size="14" lengthAdjust="spacing" textLength="112" x="148" y="856.5118">&#26412;&#12398;&#24773;&#22577;&#30906;&#35469;&#30011;&#38754;</text><text fill="#000000" font-family="Noto Sans CJK JP" font-size="14" lengthAdjust="spacing" textLength="350" x="30.5" y="876.7838">&#36024;&#20986;&#29366;&#27841;&#65288;&#36024;&#20986;&#21487;&#12414;&#12383;&#12399;&#36024;&#20986;&#20013;&#65289;&#12420;&#26360;&#24433;&#12289;&#38306;&#36899;&#26360;&#31821;&#12394;&#12393;</text><rect fill="#FFE4E1" height="50.5438" rx="12.5" ry="12.5" style="stroke:#181818;stroke-width:0.5;" width="279" x="85.5" y="947.2719"/><text fill="#000000" font-family="Noto Sans CJK JP" font-size="14" lengthAdjust="spacing" textLength="98" x="176" y="968.5118">&#36024;&#20986;&#12539;&#20104;&#32004;&#30011;&#38754;</text><text fill="#000000" font-family="Noto Sans CJK JP" font-size="14" lengthAdjust="spacing" textLength="266" x="93.5" y="988.7838">&#26412;&#12434;&#20511;&#12426;&#12383;&#12426;&#12289;&#20104;&#32004;&#12377;&#12427;&#12383;&#12417;&#12398;&#25805;&#20316;&#12434;&#12377;&#12427;</text><rect fill="#FFFFE0" height="50.5438" rx="12.5" ry="12.5" style="stroke:#181818;stroke-width:0.5;" width="293" x="176.5" y="1059.2719"/><text fill="#000000" font-family="Noto Sans CJK JP" font-size="14" lengthAdjust="spacing" textLength="154" x="246" y="1080.5118">&#36024;&#20986;&#12539;&#20104;&#32004;&#23436;&#20102;&#34920;&#31034;&#30011;&#38754;</text><text fill="#000000" font-family="Noto Sans CJK JP" font-size="14" lengthAdjust="spacing" textLength="280" x="184.5" y="1100.7838">&#26412;&#12398;&#21517;&#21069;&#12539;&#36024;&#20986;&#26399;&#38291;&#12539;&#26412;&#12398;&#22580;&#25152;&#12364;&#34920;&#31034;&#12373;&#12428;&#12427;</text><rect fill="#FFFFE0" height="50.5438" rx="12.5" ry="12.5" style="stroke:#181818;stroke-width:0.5;" width="458" x="253" y="573.2719"/><text fill="#000000" font-family="Noto Sans CJK JP" font-size="14" lengthAdjust="spacing" textLength="98" x="433" y="594.5118">&#12510;&#12452;&#12521;&#12452;&#12502;&#12521;&#12522;</text><text fill="#000000" font-family="Noto Sans CJK JP" font-size="14" lengthAdjust="spacing" textLength="448" x="258" y="614.7838">&#65288;&#33258;&#20998;&#12364;&#20511;&#12426;&#12390;&#12356;&#12427;&#26412;&#12289;&#20104;&#32004;&#12375;&#12390;&#12356;&#12427;&#26412;&#12398;&#12522;&#12473;&#12488;&#12434;&#35211;&#12427;&#12371;&#12392;&#12364;&#12391;&#12365;&#12427;&#65289;</text><rect fill="#FFE4E1" height="40" rx="12.5" ry="12.5" style="stroke:#181818;stroke-width:0.5;" width="136" x="457" y="709.7719"/><text fill="#000000" font-family="Noto Sans CJK JP" font-size="14" lengthAdjust="spacing" textLength="126" x="462" y="735.8759">&#36820;&#21364;&#12539;&#20104;&#32004;&#21462;&#28040;&#30011;&#38754;</text><ellipse cx="271" cy="57.2719" fill="#222222" rx="10" ry="10" style="stroke:#222222;stroke-width:1.0;"/><rect fill="#F1F1F1" height="40" rx="12.5" ry="12.5" style="stroke:#181818;stroke-width:0.5;" width="80" x="231" y="128.2719"/><text fill="#000000" font-family="Noto Sans CJK JP" font-size="14" lengthAdjust="spacing" textLength="70" x="236" y="154.3759">&#12488;&#12483;&#12503;&#30011;&#38754;</text><rect fill="#F1F1F1" height="40" rx="12.5" ry="12.5" style="stroke:#181818;stroke-width:0.5;" width="94" x="224" y="289.7719"/><text fill="#000000" font-family="Noto Sans CJK JP" font-size="14" lengthAdjust="spacing" textLength="84" x="229" y="315.8759">&#12525;&#12464;&#12452;&#12531;&#30011;&#38754;</text><rect fill="#ADD8E6" height="40" rx="12.5" ry="12.5" style="stroke:#181818;stroke-width:0.5;" width="178" x="103" y="427.2719"/><text fill="#000000" font-family="Noto Sans CJK JP" font-size="14" lengthAdjust="spacing" textLength="168" x="108" y="453.3759">&#19968;&#33324;&#12518;&#12540;&#12470;&#12540;&#29992;&#12488;&#12483;&#12503;&#30011;&#38754;</text><rect fill="#90EE90" height="40" rx="12.5" ry="12.5" style="stroke:#181818;stroke-width:0.5;" width="122" x="484" y="427.2719"/><text fill="#000000" font-family="Noto Sans CJK JP" font-size="14" lengthAdjust="spacing" textLength="112" x="489" y="453.3759">&#21496;&#26360;&#29992;&#12488;&#12483;&#12503;&#30011;&#38754;</text><!--link *start* to notLogin--><g id="link_*start*_notLogin"><path d="M271,67.4619 C271,81.6719 271,103.2919 271,122.0119 " fill="none" id="*start*-to-notLogin" style="stroke:#181818;stroke-width:1.0;"/><polygon fill="#181818" points="271,128.0119,275,119.0119,271,123.0119,267,119.0119,271,128.0119" style="stroke:#181818;stroke-width:1.0;"/></g><!--link notLogin to login--><g id="link_notLogin_login"><path d="M271,168.5119 C271,199.1719 271,252.7619 271,283.4619 " fill="none" id="notLogin-to-login" style="stroke:#181818;stroke-width:1.0;"/><polygon fill="#181818" points="271,289.4619,275,280.4619,271,284.4619,267,280.4619,271,289.4619" style="stroke:#181818;stroke-width:1.0;"/></g><!--link login to user--><g id="link_login_user"><path d="M234.6,330.0419 C217.38,341.3019 198.54,357.2519 189,377.2719 C181.57,392.8619 182.2045,406.8726 185.2645,421.2926 " fill="none" id="login-to-user" style="stroke:#181818;stroke-width:1.0;"/><polygon fill="#181818" points="186.51,427.1619,188.5546,417.5276,185.4721,422.2708,180.7289,419.1883,186.51,427.1619" style="stroke:#181818;stroke-width:1.0;"/><text fill="#000000" font-family="Noto Sans CJK JP" font-size="13" lengthAdjust="spacing" textLength="169" x="190" y="393.3519">&#19968;&#33324;&#12518;&#12540;&#12470;&#12540;&#12364;&#12525;&#12464;&#12452;&#12531;&#12377;&#12427;</text></g><!--link login to librarian--><g id="link_login_librarian"><path d="M303.01,329.9119 C334.15,348.2019 383.08,376.0619 427,397.2719 C449.17,407.9819 468.7355,416.3678 490.0855,424.9778 " fill="none" id="login-to-librarian" style="stroke:#181818;stroke-width:1.0;"/><polygon fill="#181818" points="495.65,427.2219,488.7992,420.1461,491.0129,425.3519,485.8071,427.5655,495.65,427.2219" style="stroke:#181818;stroke-width:1.0;"/><text fill="#000000" font-family="Noto Sans CJK JP" font-size="13" lengthAdjust="spacing" textLength="117" x="428" y="393.3519">&#21496;&#26360;&#12364;&#12525;&#12464;&#12452;&#12531;&#12377;&#12427;</text></g><!--link librarian to bookRegistration--><g id="link_librarian_bookRegistration"><path d="M548.65,427.2619 C552.71,406.0719 558.2504,377.2346 563.2404,351.2046 " fill="none" id="librarian-to-bookRegistration" style="stroke:#181818;stroke-width:1.0;"/><polygon fill="#181818" points="564.37,345.3119,558.7471,353.3979,563.4286,350.2225,566.604,354.9041,564.37,345.3119" style="stroke:#181818;stroke-width:1.0;"/></g><!--link bookRegistration to librarian--><g id="link_bookRegistration_librarian"><path d="M570.47,345.6319 C569.65,361.5419 567.84,380.5319 564,397.2719 C561.68,407.4119 559.9767,412.7014 556.2367,421.5914 " fill="none" id="bookRegistration-to-librarian" style="stroke:#181818;stroke-width:1.0;"/><polygon fill="#181818" points="553.91,427.1219,561.087,420.3773,555.8489,422.5131,553.713,417.275,553.91,427.1219" style="stroke:#181818;stroke-width:1.0;"/><text fill="#000000" font-family="Noto Sans CJK JP" font-size="13" lengthAdjust="spacing" textLength="52" x="568" y="393.3519">&#30331;&#37682;&#23436;&#20102;</text></g><!--link bookSearch to searchResult--><g id="link_bookSearch_searchResult"><path d="M124.95,624.3419 C129.55,647.1519 135.1739,675.0603 139.7939,697.9703 " fill="none" id="bookSearch-to-searchResult" style="stroke:#181818;stroke-width:1.0;"/><polygon fill="#181818" points="140.98,703.8519,143.122,694.2388,139.9916,698.9506,135.2798,695.8202,140.98,703.8519" style="stroke:#181818;stroke-width:1.0;"/></g><!--link searchResult to bookStatus--><g id="link_searchResult_bookStatus"><path d="M157.05,755.3419 C167.3,778.1519 180.0277,806.4704 190.3377,829.3804 " fill="none" id="searchResult-to-bookStatus" style="stroke:#181818;stroke-width:1.0;"/><polygon fill="#181818" points="192.8,834.8519,192.7542,825.0032,190.7481,830.2923,185.4589,828.2862,192.8,834.8519" style="stroke:#181818;stroke-width:1.0;"/><text fill="#000000" font-family="Noto Sans CJK JP" font-size="13" lengthAdjust="spacing" textLength="143" x="179" y="801.3519">&#26412;&#12434;&#36984;&#25246;&#12375;&#12289;&#35443;&#32048;&#12434;&#30906;&#35469;</text></g><!--link bookStatus to borrowAndBook--><g id="link_bookStatus_borrowAndBook"><path d="M208.71,886.4619 C212.17,904.5719 215.7266,923.178 219.1766,941.278 " fill="none" id="bookStatus-to-borrowAndBook" style="stroke:#181818;stroke-width:1.0;"/><polygon fill="#181818" points="220.3,947.1719,222.5441,937.5821,219.3638,942.2603,214.6856,939.08,220.3,947.1719" style="stroke:#181818;stroke-width:1.0;"/></g><!--link borrowAndBook to borrowCompletion--><g id="link_borrowAndBook_borrowCompletion"><path d="M246.99,998.4619 C263.13,1016.5719 280.9695,1036.5913 297.0895,1054.6913 " fill="none" id="borrowAndBook-to-borrowCompletion" style="stroke:#181818;stroke-width:1.0;"/><polygon fill="#181818" points="301.08,1059.1719,298.0814,1049.7906,297.7546,1055.4381,292.1072,1055.1113,301.08,1059.1719" style="stroke:#181818;stroke-width:1.0;"/></g><!--link borrowCompletion to bookSearch--><g id="link_borrowCompletion_bookSearch"><path d="M364.28,1059.1619 C391.06,1039.7519 421,1009.9619 421,973.7719 C421,728.7719 421,728.7719 421,728.7719 C421,683.7119 311.4253,646.5178 223.5353,623.5678 " fill="none" id="borrowCompletion-to-bookSearch" style="stroke:#181818;stroke-width:1.0;"/><polygon fill="#181818" points="217.73,622.0519,225.4274,628.196,222.5678,623.3152,227.4486,620.4555,217.73,622.0519" style="stroke:#181818;stroke-width:1.0;"/></g><!--link borrowingBooks to returnAndCancelReservation--><g id="link_borrowingBooks_returnAndCancelReservation"><path d="M480.38,624.5919 C480.21,639.4119 481.41,658.3719 487,674.2719 C491.51,687.1119 496.2217,694.983 503.9917,704.823 " fill="none" id="borrowingBooks-to-returnAndCancelReservation" style="stroke:#181818;stroke-width:1.0;"/><polygon fill="#181818" points="507.71,709.5319,505.2718,699.9896,504.6114,705.6078,498.9932,704.9474,507.71,709.5319" style="stroke:#181818;stroke-width:1.0;"/></g><!--link returnAndCancelReservation to borrowingBooks--><g id="link_returnAndCancelReservation_borrowingBooks"><path d="M518.66,709.7519 C511.11,687.0919 500.3667,654.8842 492.0867,630.0342 " fill="none" id="returnAndCancelReservation-to-borrowingBooks" style="stroke:#181818;stroke-width:1.0;"/><polygon fill="#181818" points="490.19,624.3419,489.2401,634.1449,491.7706,629.0855,496.8299,631.616,490.19,624.3419" style="stroke:#181818;stroke-width:1.0;"/><text fill="#000000" font-family="Noto Sans CJK JP" font-size="13" lengthAdjust="spacing" textLength="130" x="507" y="670.3519">&#36820;&#21364;&#12539;&#20104;&#32004;&#21462;&#12426;&#28040;&#12375;&#24460;</text></g><!--link user to bookSearch--><g id="link_user_bookSearch"><path d="M182.73,467.5119 C169.75,494.4819 148.7241,538.1365 134.4641,567.7365 " fill="none" id="user-to-bookSearch" style="stroke:#181818;stroke-width:1.0;"/><polygon fill="#181818" points="131.86,573.1419,139.3698,566.7698,134.0301,568.6374,132.1625,563.2977,131.86,573.1419" style="stroke:#181818;stroke-width:1.0;"/></g><!--link user to borrowingBooks--><g id="link_user_borrowingBooks"><path d="M229.02,467.3619 C281.32,494.3219 371.5167,540.8232 429.0467,570.4732 " fill="none" id="user-to-borrowingBooks" style="stroke:#181818;stroke-width:1.0;"/><polygon fill="#181818" points="434.38,573.2219,428.2125,565.5433,429.9355,570.9313,424.5475,572.6544,434.38,573.2219" style="stroke:#181818;stroke-width:1.0;"/></g><rect fill="#DDDDDD" height="111.3596" id="_legend" rx="7.5" ry="7.5" style="stroke:#000000;stroke-width:1.0;" width="323" x="12" y="1143.2719"/><text fill="#000000" font-family="Noto Sans CJK JP" font-size="14" lengthAdjust="spacing" textLength="12" x="17" y="1164.5118">1.</text><text fill="#000000" font-family="Noto Sans CJK JP" font-size="14" lengthAdjust="spacing" textLength="253" x="33" y="1164.5118">LightBlue&#65288;&#38738;&#65289;: &#19968;&#33324;&#12518;&#12540;&#12470;&#12540;&#23554;&#29992;&#30011;&#38754;</text><text fill="#000000" font-family="Noto Sans CJK JP" font-size="14" lengthAdjust="spacing" textLength="12" x="17" y="1184.7838">2.</text><text fill="#000000" font-family="Noto Sans CJK JP" font-size="14" lengthAdjust="spacing" textLength="221" x="33" y="1184.7838">LightGreen&#65288;&#40644;&#32209;&#65289;: &#21496;&#26360;&#23554;&#29992;&#30011;&#38754;</text><text fill="#000000" font-family="Noto Sans CJK JP" font-size="14" lengthAdjust="spacing" textLength="12" x="17" y="1205.0557">3.</text><text fill="#000000" font-family="Noto Sans CJK JP" font-size="14" lengthAdjust="spacing" textLength="223" x="33" y="1205.0557">AliceBlue&#65288;&#28129;&#12356;&#38738;&#65289;: &#26908;&#32034;&#31995;&#12398;&#30011;&#38754;</text><text fill="#000000" font-family="Noto Sans CJK JP" font-size="14" lengthAdjust="spacing" textLength="12" x="17" y="1225.3276">4.</text><text fill="#000000" font-family="Noto Sans CJK JP" font-size="14" lengthAdjust="spacing" textLength="297" x="33" y="1225.3276">MistyRose&#65288;&#12500;&#12531;&#12463;&#65289;: &#12518;&#12540;&#12470;&#12540;&#12395;&#12424;&#12427;&#25805;&#20316;&#30011;&#38754;</text><text fill="#000000" font-family="Noto Sans CJK JP" font-size="14" lengthAdjust="spacing" textLength="12" x="17" y="1245.5995">5.</text><text fill="#000000" font-family="Noto Sans CJK JP" font-size="14" lengthAdjust="spacing" textLength="223" x="33" y="1245.5995">LightYellow&#65288;&#40644;&#33394;&#65289;: &#34920;&#31034;&#31995;&#12398;&#30011;&#38754;</text><!--SRC=[VLRRRjj647tdLopSXm85yWD1O20sq29fOXGs-b2qVM3iZKoO9WsAQX0K1RIaBv8jmOvlQk1Rx3YExSHN-Q9QZlqnAvBIKtwXixiKkTGbBuIqd9apS-RCSDDZcZ6XMkeu6i4lrOnk_sWQze0wZb7FW6cRQ4WrqgZ_wS_ewIyzogWsWX4Udx1VWtLwsD8cRCqq5CNMR1qZBpVjhxptDkUyjRA_LWcEjuE5QUhiKBT4tKCKB5SR6piDSXryh885GaXHT9p2nWZIyKjR-UwPbXgr-_GC_dgRQsmiVhtDFqIrIhQU-qpTFUhUKkSAdjwf4oplYs2XpqyMnWPpgau6rs-udpTVWHIIjezrRHY7yVthRKeccoZ-xdfmiHEKgvGSDwsVQsdxzQ2PPjRKNQPkcJedt5hEXf9FrCbHPyvVAjQ-h2VI-WthklbAv5NFdtFV-lP-i7kJG184C1uKvVSV_aGF7lGYmxIVcIaDg0MQKDfMRUW7TI4H5zWKZZr8JSU62RiZwfnIPnTobaprLhjsRe6iJY2PDBPGt1uvXk2vYv-klR1KIrCD9FM9UpVJviNon10_rwD3Zjcf_vGKv08fUGlijpZ7m4qbTFPIb4GPNkw0Lx9DtJdgVW2mFmpahtzclNfRRHJEULKlJ7FikMgeAJoE3Lik3VqjKoCx2b8WsfEXlW7gB7fJ7xpPDKfAD4k47NLdU8dtxEtygdTN0klQ_OPtzA_txiBFPwap6UHp_ief9IT-VguPWTKHfJM8Kw1QIsLJYHuz4fhixLN-KM9663-jjagRSokBeWplk52xcLPYtZgCPtSEnPHHjre_htWpD_2ZTfCBBYOfcMKpHChr-sMlU16T0mtKcVMlu5KfAl7ND9Qac6Iyldp9MnqYHQHpLdUvGZy1uVKtfNfsobieIer8q3Y4LMjub178u_Jsec-XN2xuc-lXN8U8CFEH5Qm-wlp7m4b1M56oGfq20C96u9XfZZU8qx1-0LLOGTlQnEIxKzwxis3dfdvOZAeJR0QpLtwPC63-rvi_eUIEaYrGYpYfLOu03rJ4XFxb37XehEuqik_P-9uLAJcav21c050pwIwvjBGlIeJb28ncjw1h31cUMT9iCIEO7n9M1nSc62U8jopprMDZf0_mPV5sHnPoJ58VQWsww-MBaTRyzQt6wXBy3T-AYMfhY9H8lpa-eUDma18i95Vj9bVM0N-kiX_keUZ_p25y3m6YoSSUV6_OTm8IY5af9SvbiJYBzRqvpjaI9VjiVP6Fb1GbrOWyDIF52ElQgxQHWdcILhI5xOnb0ElzgZ6CTT0WjlvgsnyyulSXjM4Je8kN16ZZxwIfOPj35hJ8HbPuSmE58diO2gT1AlxifjY9zODoS06xUb5eFSOGBYA2f9VGG5PGR1EtKZAJ-Xlb8mg8cnnLB4XigJZ1FelHdKlkyGsguroZW71LwBuDlRi2x7J-YKmcBv_9uM1XH_SyeGosEFlKuR6KPMOW9LCtBMdVHLUbZbQXB51qHUfarLGZakv2aBJoFm00]--></g></svg>