<?xml version="1.0" encoding="us-ascii" standalone="no"?><svg xmlns="http://www.w3.org/2000/svg" xmlns:xlink="http://www.w3.org/1999/xlink" contentStyleType="text/css" height="763px" preserveAspectRatio="none" style="width:770px;height:763px;background:#FFFFFF;" version="1.1" viewBox="0 0 770 763" width="770px" zoomAndPan="magnify"><defs/><g><!--class User--><g id="elem_User"><rect codeLine="2" fill="#F1F1F1" height="149.3596" id="User" rx="2.5" ry="2.5" style="stroke:#181818;stroke-width:0.5;" width="165" x="122.5" y="37.5"/><ellipse cx="146.95" cy="53.5" fill="#ADD1B2" rx="11" ry="11" style="stroke:#181818;stroke-width:1.0;"/><path d="M151.0594,59.5 L143.3406,59.5 L143.3406,47.1094 L151.0594,47.1094 L151.0594,49.2656 L145.7938,49.2656 L145.7938,51.9375 L150.5594,51.9375 L150.5594,54.0938 L145.7938,54.0938 L145.7938,57.3438 L151.0594,57.3438 L151.0594,59.5 Z " fill="#000000"/><text fill="#000000" font-family="Noto Sans CJK JP" font-size="14" lengthAdjust="spacing" textLength="112" x="163.05" y="59.604">&#12518;&#12540;&#12470;&#12540;&#12510;&#12473;&#12479;&#12540;</text><line style="stroke:#181818;stroke-width:0.5;" x1="123.5" x2="286.5" y1="69.5" y2="69.5"/><ellipse cx="133.5" cy="85.136" fill="none" rx="3" ry="3" style="stroke:#038048;stroke-width:1.0;"/><text fill="#000000" font-family="Noto Sans CJK JP" font-size="14" lengthAdjust="spacing" textLength="105" x="142.5" y="89.7399">&#12518;&#12540;&#12470;&#12540;ID &#171;PK&#187;</text><ellipse cx="133.5" cy="105.4079" fill="none" rx="3" ry="3" style="stroke:#038048;stroke-width:1.0;"/><text fill="#000000" font-family="Noto Sans CJK JP" font-size="14" lengthAdjust="spacing" textLength="139" x="142.5" y="110.0118">&#12525;&#12464;&#12452;&#12531;&#21517; &#171;UNIQUE&#187;</text><ellipse cx="133.5" cy="125.6798" fill="none" rx="3" ry="3" style="stroke:#038048;stroke-width:1.0;"/><text fill="#000000" font-family="Noto Sans CJK JP" font-size="14" lengthAdjust="spacing" textLength="98" x="142.5" y="130.2838">&#12513;&#12540;&#12523;&#12450;&#12489;&#12524;&#12473;</text><ellipse cx="133.5" cy="145.9517" fill="none" rx="3" ry="3" style="stroke:#038048;stroke-width:1.0;"/><text fill="#000000" font-family="Noto Sans CJK JP" font-size="14" lengthAdjust="spacing" textLength="70" x="142.5" y="150.5557">&#12497;&#12473;&#12527;&#12540;&#12489;</text><ellipse cx="133.5" cy="166.2236" fill="none" rx="3" ry="3" style="stroke:#038048;stroke-width:1.0;"/><text fill="#000000" font-family="Noto Sans CJK JP" font-size="14" lengthAdjust="spacing" textLength="120" x="142.5" y="170.8276">&#12525;&#12540;&#12523; &#171;&#19968;&#33324;/&#21496;&#26360;&#187;</text><line style="stroke:#181818;stroke-width:0.5;" x1="123.5" x2="286.5" y1="178.8596" y2="178.8596"/></g><!--class book--><g id="elem_book"><rect codeLine="10" fill="#F1F1F1" height="210.1753" id="book" rx="2.5" ry="2.5" style="stroke:#181818;stroke-width:0.5;" width="126" x="349" y="7"/><ellipse cx="374.8" cy="23" fill="#ADD1B2" rx="11" ry="11" style="stroke:#181818;stroke-width:1.0;"/><path d="M378.9094,29 L371.1906,29 L371.1906,16.6094 L378.9094,16.6094 L378.9094,18.7656 L373.6438,18.7656 L373.6438,21.4375 L378.4094,21.4375 L378.4094,23.5938 L373.6438,23.5938 L373.6438,26.8438 L378.9094,26.8438 L378.9094,29 Z " fill="#000000"/><text fill="#000000" font-family="Noto Sans CJK JP" font-size="14" lengthAdjust="spacing" textLength="70" x="391.2" y="29.104">&#26412;&#12510;&#12473;&#12479;&#12540;</text><line style="stroke:#181818;stroke-width:0.5;" x1="350" x2="474" y1="39" y2="39"/><ellipse cx="360" cy="54.636" fill="none" rx="3" ry="3" style="stroke:#038048;stroke-width:1.0;"/><text fill="#000000" font-family="Noto Sans CJK JP" font-size="14" lengthAdjust="spacing" textLength="63" x="369" y="59.2399">&#26412;ID &#171;PK&#187;</text><ellipse cx="360" cy="74.9079" fill="none" rx="3" ry="3" style="stroke:#038048;stroke-width:1.0;"/><text fill="#000000" font-family="Noto Sans CJK JP" font-size="14" lengthAdjust="spacing" textLength="100" x="369" y="79.5118">ISBN &#171;UNIQUE&#187;</text><ellipse cx="360" cy="95.1798" fill="none" rx="3" ry="3" style="stroke:#038048;stroke-width:1.0;"/><text fill="#000000" font-family="Noto Sans CJK JP" font-size="14" lengthAdjust="spacing" textLength="56" x="369" y="99.7838">&#12479;&#12452;&#12488;&#12523;</text><ellipse cx="360" cy="115.4517" fill="none" rx="3" ry="3" style="stroke:#038048;stroke-width:1.0;"/><text fill="#000000" font-family="Noto Sans CJK JP" font-size="14" lengthAdjust="spacing" textLength="28" x="369" y="120.0557">&#33879;&#32773;</text><ellipse cx="360" cy="135.7236" fill="none" rx="3" ry="3" style="stroke:#038048;stroke-width:1.0;"/><text fill="#000000" font-family="Noto Sans CJK JP" font-size="14" lengthAdjust="spacing" textLength="42" x="369" y="140.3276">&#20986;&#29256;&#26085;</text><ellipse cx="360" cy="155.9955" fill="none" rx="3" ry="3" style="stroke:#038048;stroke-width:1.0;"/><text fill="#000000" font-family="Noto Sans CJK JP" font-size="14" lengthAdjust="spacing" textLength="42" x="369" y="160.5995">&#20986;&#29256;&#31038;</text><ellipse cx="360" cy="176.2674" fill="none" rx="3" ry="3" style="stroke:#038048;stroke-width:1.0;"/><text fill="#000000" font-family="Noto Sans CJK JP" font-size="14" lengthAdjust="spacing" textLength="84" x="369" y="180.8714">&#30011;&#20687;&#29992;&#12522;&#12531;&#12463;</text><ellipse cx="360" cy="196.5393" fill="none" rx="3" ry="3" style="stroke:#038048;stroke-width:1.0;"/><text fill="#000000" font-family="Noto Sans CJK JP" font-size="14" lengthAdjust="spacing" textLength="28" x="369" y="201.1433">&#29256;&#25968;</text><line style="stroke:#181818;stroke-width:0.5;" x1="350" x2="474" y1="209.1753" y2="209.1753"/></g><!--class Copy--><g id="elem_Copy"><rect codeLine="21" fill="#F1F1F1" height="149.3596" id="Copy" rx="2.5" ry="2.5" style="stroke:#181818;stroke-width:0.5;" width="277" x="486.5" y="317.5"/><ellipse cx="606.75" cy="333.5" fill="#ADD1B2" rx="11" ry="11" style="stroke:#181818;stroke-width:1.0;"/><path d="M610.8594,339.5 L603.1406,339.5 L603.1406,327.1094 L610.8594,327.1094 L610.8594,329.2656 L605.5938,329.2656 L605.5938,331.9375 L610.3594,331.9375 L610.3594,334.0938 L605.5938,334.0938 L605.5938,337.3438 L610.8594,337.3438 L610.8594,339.5 Z " fill="#000000"/><text fill="#000000" font-family="Noto Sans CJK JP" font-size="14" lengthAdjust="spacing" textLength="28" x="627.25" y="339.604">&#34101;&#26360;</text><line style="stroke:#181818;stroke-width:0.5;" x1="487.5" x2="762.5" y1="349.5" y2="349.5"/><ellipse cx="497.5" cy="365.136" fill="none" rx="3" ry="3" style="stroke:#038048;stroke-width:1.0;"/><text fill="#000000" font-family="Noto Sans CJK JP" font-size="14" lengthAdjust="spacing" textLength="77" x="506.5" y="369.7399">&#34101;&#26360;ID &#171;PK&#187;</text><ellipse cx="497.5" cy="385.4079" fill="none" rx="3" ry="3" style="stroke:#038048;stroke-width:1.0;"/><text fill="#000000" font-family="Noto Sans CJK JP" font-size="14" lengthAdjust="spacing" textLength="62" x="506.5" y="390.0118">&#26412;ID &#171;FK&#187;</text><ellipse cx="497.5" cy="405.6798" fill="none" rx="3" ry="3" style="stroke:#038048;stroke-width:1.0;"/><text fill="#000000" font-family="Noto Sans CJK JP" font-size="14" lengthAdjust="spacing" textLength="104" x="506.5" y="410.2838">&#20445;&#23384;&#22580;&#25152;ID &#171;FK&#187;</text><ellipse cx="497.5" cy="425.9517" fill="none" rx="3" ry="3" style="stroke:#038048;stroke-width:1.0;"/><text fill="#000000" font-family="Noto Sans CJK JP" font-size="14" lengthAdjust="spacing" textLength="251" x="506.5" y="430.5557">&#12473;&#12486;&#12540;&#12479;&#12473; &#171;&#21033;&#29992;&#21487;&#33021;/&#36024;&#20986;&#20013;/&#24259;&#26820;&#28168;&#12415;&#187;</text><ellipse cx="497.5" cy="446.2236" fill="none" rx="3" ry="3" style="stroke:#038048;stroke-width:1.0;"/><text fill="#000000" font-family="Noto Sans CJK JP" font-size="14" lengthAdjust="spacing" textLength="42" x="506.5" y="450.8276">&#30331;&#37682;&#26085;</text><line style="stroke:#181818;stroke-width:0.5;" x1="487.5" x2="762.5" y1="458.8596" y2="458.8596"/></g><!--class Location--><g id="elem_Location"><rect codeLine="29" fill="#F1F1F1" height="88.5438" id="Location" rx="2.5" ry="2.5" style="stroke:#181818;stroke-width:0.5;" width="144" x="553" y="67.5"/><ellipse cx="568" cy="83.5" fill="#ADD1B2" rx="11" ry="11" style="stroke:#181818;stroke-width:1.0;"/><path d="M572.1094,89.5 L564.3906,89.5 L564.3906,77.1094 L572.1094,77.1094 L572.1094,79.2656 L566.8438,79.2656 L566.8438,81.9375 L571.6094,81.9375 L571.6094,84.0938 L566.8438,84.0938 L566.8438,87.3438 L572.1094,87.3438 L572.1094,89.5 Z " fill="#000000"/><text fill="#000000" font-family="Noto Sans CJK JP" font-size="14" lengthAdjust="spacing" textLength="112" x="582" y="89.604">&#20445;&#23384;&#22580;&#25152;&#12510;&#12473;&#12479;&#12540;</text><line style="stroke:#181818;stroke-width:0.5;" x1="554" x2="696" y1="99.5" y2="99.5"/><ellipse cx="564" cy="115.136" fill="none" rx="3" ry="3" style="stroke:#038048;stroke-width:1.0;"/><text fill="#000000" font-family="Noto Sans CJK JP" font-size="14" lengthAdjust="spacing" textLength="105" x="573" y="119.7399">&#20445;&#23384;&#22580;&#25152;ID &#171;PK&#187;</text><ellipse cx="564" cy="135.4079" fill="none" rx="3" ry="3" style="stroke:#038048;stroke-width:1.0;"/><text fill="#000000" font-family="Noto Sans CJK JP" font-size="14" lengthAdjust="spacing" textLength="70" x="573" y="140.0118">&#20445;&#23384;&#22580;&#25152;&#21517;</text><line style="stroke:#181818;stroke-width:0.5;" x1="554" x2="696" y1="148.0438" y2="148.0438"/></g><!--class LoanHistory--><g id="elem_LoanHistory"><rect codeLine="34" fill="#F1F1F1" height="189.9034" id="LoanHistory" rx="2.5" ry="2.5" style="stroke:#181818;stroke-width:0.5;" width="216" x="7" y="567"/><ellipse cx="82.75" cy="583" fill="#ADD1B2" rx="11" ry="11" style="stroke:#181818;stroke-width:1.0;"/><path d="M86.8594,589 L79.1406,589 L79.1406,576.6094 L86.8594,576.6094 L86.8594,578.7656 L81.5938,578.7656 L81.5938,581.4375 L86.3594,581.4375 L86.3594,583.5938 L81.5938,583.5938 L81.5938,586.8438 L86.8594,586.8438 L86.8594,589 Z " fill="#000000"/><text fill="#000000" font-family="Noto Sans CJK JP" font-size="14" lengthAdjust="spacing" textLength="56" x="103.25" y="589.104">&#36024;&#20986;&#23653;&#27508;</text><line style="stroke:#181818;stroke-width:0.5;" x1="8" x2="222" y1="599" y2="599"/><ellipse cx="18" cy="614.636" fill="none" rx="3" ry="3" style="stroke:#038048;stroke-width:1.0;"/><text fill="#000000" font-family="Noto Sans CJK JP" font-size="14" lengthAdjust="spacing" textLength="77" x="27" y="619.2399">&#36024;&#20986;ID &#171;PK&#187;</text><ellipse cx="18" cy="634.9079" fill="none" rx="3" ry="3" style="stroke:#038048;stroke-width:1.0;"/><text fill="#000000" font-family="Noto Sans CJK JP" font-size="14" lengthAdjust="spacing" textLength="104" x="27" y="639.5118">&#12518;&#12540;&#12470;&#12540;ID &#171;FK&#187;</text><ellipse cx="18" cy="655.1798" fill="none" rx="3" ry="3" style="stroke:#038048;stroke-width:1.0;"/><text fill="#000000" font-family="Noto Sans CJK JP" font-size="14" lengthAdjust="spacing" textLength="76" x="27" y="659.7838">&#34101;&#26360;ID &#171;FK&#187;</text><ellipse cx="18" cy="675.4517" fill="none" rx="3" ry="3" style="stroke:#038048;stroke-width:1.0;"/><text fill="#000000" font-family="Noto Sans CJK JP" font-size="14" lengthAdjust="spacing" textLength="42" x="27" y="680.0557">&#36024;&#20986;&#26085;</text><ellipse cx="18" cy="695.7236" fill="none" rx="3" ry="3" style="stroke:#038048;stroke-width:1.0;"/><text fill="#000000" font-family="Noto Sans CJK JP" font-size="14" lengthAdjust="spacing" textLength="70" x="27" y="700.3276">&#36820;&#21364;&#20104;&#23450;&#26085;</text><ellipse cx="18" cy="715.9955" fill="none" rx="3" ry="3" style="stroke:#038048;stroke-width:1.0;"/><text fill="#000000" font-family="Noto Sans CJK JP" font-size="14" lengthAdjust="spacing" textLength="42" x="27" y="720.5995">&#36820;&#21364;&#26085;</text><ellipse cx="18" cy="736.2674" fill="none" rx="3" ry="3" style="stroke:#038048;stroke-width:1.0;"/><text fill="#000000" font-family="Noto Sans CJK JP" font-size="14" lengthAdjust="spacing" textLength="190" x="27" y="740.8714">&#12473;&#12486;&#12540;&#12479;&#12473; &#171;&#36024;&#20986;&#20013;/&#36820;&#21364;&#28168;&#12415;&#187;</text><line style="stroke:#181818;stroke-width:0.5;" x1="8" x2="222" y1="748.9034" y2="748.9034"/></g><!--class ReservationHistory--><g id="elem_ReservationHistory"><rect codeLine="44" fill="#F1F1F1" height="189.9034" id="ReservationHistory" rx="2.5" ry="2.5" style="stroke:#181818;stroke-width:0.5;" width="263" x="188.5" y="297"/><ellipse cx="287.75" cy="313" fill="#ADD1B2" rx="11" ry="11" style="stroke:#181818;stroke-width:1.0;"/><path d="M291.8594,319 L284.1406,319 L284.1406,306.6094 L291.8594,306.6094 L291.8594,308.7656 L286.5938,308.7656 L286.5938,311.4375 L291.3594,311.4375 L291.3594,313.5938 L286.5938,313.5938 L286.5938,316.8438 L291.8594,316.8438 L291.8594,319 Z " fill="#000000"/><text fill="#000000" font-family="Noto Sans CJK JP" font-size="14" lengthAdjust="spacing" textLength="56" x="308.25" y="319.104">&#20104;&#32004;&#23653;&#27508;</text><line style="stroke:#181818;stroke-width:0.5;" x1="189.5" x2="450.5" y1="329" y2="329"/><ellipse cx="199.5" cy="344.636" fill="none" rx="3" ry="3" style="stroke:#038048;stroke-width:1.0;"/><text fill="#000000" font-family="Noto Sans CJK JP" font-size="14" lengthAdjust="spacing" textLength="77" x="208.5" y="349.2399">&#20104;&#32004;ID &#171;PK&#187;</text><ellipse cx="199.5" cy="364.9079" fill="none" rx="3" ry="3" style="stroke:#038048;stroke-width:1.0;"/><text fill="#000000" font-family="Noto Sans CJK JP" font-size="14" lengthAdjust="spacing" textLength="104" x="208.5" y="369.5118">&#12518;&#12540;&#12470;&#12540;ID &#171;FK&#187;</text><ellipse cx="199.5" cy="385.1798" fill="none" rx="3" ry="3" style="stroke:#038048;stroke-width:1.0;"/><text fill="#000000" font-family="Noto Sans CJK JP" font-size="14" lengthAdjust="spacing" textLength="62" x="208.5" y="389.7838">&#26412;ID &#171;FK&#187;</text><ellipse cx="199.5" cy="405.4517" fill="none" rx="3" ry="3" style="stroke:#038048;stroke-width:1.0;"/><text fill="#000000" font-family="Noto Sans CJK JP" font-size="14" lengthAdjust="spacing" textLength="84" x="208.5" y="410.0557">&#20104;&#32004;&#38283;&#22987;&#26085;&#26178;</text><ellipse cx="199.5" cy="425.7236" fill="none" rx="3" ry="3" style="stroke:#038048;stroke-width:1.0;"/><text fill="#000000" font-family="Noto Sans CJK JP" font-size="14" lengthAdjust="spacing" textLength="84" x="208.5" y="430.3276">&#20104;&#32004;&#32066;&#20102;&#26085;&#26178;</text><ellipse cx="199.5" cy="445.9955" fill="none" rx="3" ry="3" style="stroke:#038048;stroke-width:1.0;"/><text fill="#000000" font-family="Noto Sans CJK JP" font-size="14" lengthAdjust="spacing" textLength="237" x="208.5" y="450.5995">&#12473;&#12486;&#12540;&#12479;&#12473; &#171;&#20104;&#32004;&#20013;/&#12461;&#12515;&#12531;&#12475;&#12523;/&#23436;&#20102;&#187;</text><ellipse cx="199.5" cy="466.2674" fill="none" rx="3" ry="3" style="stroke:#038048;stroke-width:1.0;"/><text fill="#000000" font-family="Noto Sans CJK JP" font-size="14" lengthAdjust="spacing" textLength="70" x="208.5" y="470.8714">&#20104;&#32004;&#20316;&#25104;&#26085;</text><line style="stroke:#181818;stroke-width:0.5;" x1="189.5" x2="450.5" y1="478.9034" y2="478.9034"/></g><!--link User to LoanHistory--><g id="link_User_LoanHistory"><path codeLine="54" d="M149.2248,193.6723 C129.6748,225.9423 113.91,258.35 104,297 C81.07,386.41 85.4667,474.3925 95.5367,548.8225 " fill="none" id="User-LoanHistory" style="stroke:#181818;stroke-width:1.0;"/><line style="stroke:#181818;stroke-width:1.0;" x1="147.8762" x2="154.7185" y1="188.1785" y2="192.3238"/><line style="stroke:#181818;stroke-width:1.0;" x1="146.3218" x2="153.1641" y1="190.7444" y2="194.8896"/><line style="stroke:#181818;stroke-width:1.0;" x1="149.2248" x2="153.37" y1="193.6723" y2="186.83"/><line style="stroke:#181818;stroke-width:1.0;" x1="96.8774" x2="103.8958" y1="558.7322" y2="565.8556"/><line style="stroke:#181818;stroke-width:1.0;" x1="96.8774" x2="92.0042" y1="558.7322" y2="567.4644"/><line style="stroke:#181818;stroke-width:1.0;" x1="96.8774" x2="97.95" y1="558.7322" y2="566.66"/><ellipse cx="96.073" cy="552.7864" fill="none" rx="4" ry="4" style="stroke:#181818;stroke-width:1.0;"/><text fill="#000000" font-family="Noto Sans CJK JP" font-size="13" lengthAdjust="spacing" textLength="65" x="105" y="398.08">&#12518;&#12540;&#12470;&#12540;ID</text></g><!--link Copy to LoanHistory--><g id="link_Copy_LoanHistory"><path codeLine="55" d="M498.1602,470.6646 C486.0602,477.6846 480.8,480.56 469,487 C387.85,531.29 310.1023,569.5339 239.3723,603.0939 " fill="none" id="Copy-LoanHistory" style="stroke:#181818;stroke-width:1.0;"/><line style="stroke:#181818;stroke-width:1.0;" x1="499.6128" x2="503.6274" y1="465.1974" y2="472.1172"/><line style="stroke:#181818;stroke-width:1.0;" x1="497.0179" x2="501.0325" y1="466.7029" y2="473.6227"/><line style="stroke:#181818;stroke-width:1.0;" x1="498.1602" x2="505.08" y1="470.6646" y2="466.65"/><line style="stroke:#181818;stroke-width:1.0;" x1="230.3377" x2="225.682" y1="607.3806" y2="616.2308"/><line style="stroke:#181818;stroke-width:1.0;" x1="230.3377" x2="220.538" y1="607.3806" y2="605.3892"/><line style="stroke:#181818;stroke-width:1.0;" x1="230.3377" x2="223.11" y1="607.3806" y2="610.81"/><ellipse cx="235.7584" cy="604.8086" fill="none" rx="4" ry="4" style="stroke:#181818;stroke-width:1.0;"/><text fill="#000000" font-family="Noto Sans CJK JP" font-size="13" lengthAdjust="spacing" textLength="39" x="414" y="533.08">&#34101;&#26360;ID</text></g><!--link book to Copy--><g id="link_book_Copy"><path codeLine="56" d="M479.9056,201.6303 C509.5956,240.3803 534.9848,273.5194 563.7748,311.0994 " fill="none" id="book-Copy" style="stroke:#181818;stroke-width:1.0;"/><line style="stroke:#181818;stroke-width:1.0;" x1="474.2976" x2="480.6479" y1="200.8879" y2="196.0224"/><line style="stroke:#181818;stroke-width:1.0;" x1="476.1222" x2="482.4725" y1="203.2693" y2="198.4037"/><line style="stroke:#181818;stroke-width:1.0;" x1="479.9056" x2="475.04" y1="201.6303" y2="195.28"/><line style="stroke:#181818;stroke-width:1.0;" x1="563.7748" x2="573.4029" y1="311.0994" y2="313.8011"/><line style="stroke:#181818;stroke-width:1.0;" x1="563.7748" x2="563.8771" y1="311.0994" y2="321.0989"/><line style="stroke:#181818;stroke-width:1.0;" x1="563.7748" x2="568.64" y1="311.0994" y2="317.45"/><line style="stroke:#181818;stroke-width:1.0;" x1="565.7338" x2="559.3832" y1="307.0792" y2="311.9444"/><text fill="#000000" font-family="Noto Sans CJK JP" font-size="13" lengthAdjust="spacing" textLength="26" x="526" y="263.08">&#26412;ID</text></g><!--link Location to Copy--><g id="link_Location_Copy"><path codeLine="57" d="M625,164.74 C625,207.79 625,248.31 625,299.49 " fill="none" id="Location-Copy" style="stroke:#181818;stroke-width:1.0;"/><line style="stroke:#181818;stroke-width:1.0;" x1="621" x2="629" y1="160.74" y2="160.74"/><line style="stroke:#181818;stroke-width:1.0;" x1="621" x2="629" y1="163.74" y2="163.74"/><line style="stroke:#181818;stroke-width:1.0;" x1="625" x2="625" y1="164.74" y2="156.74"/><line style="stroke:#181818;stroke-width:1.0;" x1="625" x2="631" y1="309.49" y2="317.49"/><line style="stroke:#181818;stroke-width:1.0;" x1="625" x2="619" y1="309.49" y2="317.49"/><line style="stroke:#181818;stroke-width:1.0;" x1="625" x2="625" y1="309.49" y2="317.49"/><ellipse cx="625" cy="303.49" fill="none" rx="4" ry="4" style="stroke:#181818;stroke-width:1.0;"/><text fill="#000000" font-family="Noto Sans CJK JP" font-size="13" lengthAdjust="spacing" textLength="65" x="626" y="263.08">&#20445;&#23384;&#22580;&#25152;ID</text></g><!--link User to ReservationHistory--><g id="link_User_ReservationHistory"><path codeLine="59" d="M238.5773,194.1627 C252.5473,227.9427 259.3283,244.3474 274.1983,280.2874 " fill="none" id="User-ReservationHistory" style="stroke:#181818;stroke-width:1.0;"/><line style="stroke:#181818;stroke-width:1.0;" x1="233.3523" x2="240.745" y1="191.995" y2="188.9377"/><line style="stroke:#181818;stroke-width:1.0;" x1="234.4988" x2="241.8915" y1="194.7673" y2="191.71"/><line style="stroke:#181818;stroke-width:1.0;" x1="238.5773" x2="235.52" y1="194.1627" y2="186.77"/><line style="stroke:#181818;stroke-width:1.0;" x1="278.0215" x2="286.6242" y1="289.5277" y2="294.6261"/><line style="stroke:#181818;stroke-width:1.0;" x1="278.0215" x2="275.5358" y1="289.5277" y2="299.2139"/><line style="stroke:#181818;stroke-width:1.0;" x1="278.0215" x2="281.08" y1="289.5277" y2="296.92"/><ellipse cx="275.7276" cy="283.9835" fill="none" rx="4" ry="4" style="stroke:#181818;stroke-width:1.0;"/><text fill="#000000" font-family="Noto Sans CJK JP" font-size="13" lengthAdjust="spacing" textLength="65" x="267" y="263.08">&#12518;&#12540;&#12470;&#12540;ID</text></g><!--link book to ReservationHistory--><g id="link_book_ReservationHistory"><path codeLine="60" d="M374.9659,224.9047 C366.3459,250.9447 365.3219,254.0304 356.8819,279.5504 " fill="none" id="book-ReservationHistory" style="stroke:#181818;stroke-width:1.0;"/><line style="stroke:#181818;stroke-width:1.0;" x1="372.4256" x2="380.0203" y1="219.8503" y2="222.3644"/><line style="stroke:#181818;stroke-width:1.0;" x1="371.4828" x2="379.0775" y1="222.6983" y2="225.2124"/><line style="stroke:#181818;stroke-width:1.0;" x1="374.9659" x2="377.48" y1="224.9047" y2="217.31"/><line style="stroke:#181818;stroke-width:1.0;" x1="353.742" x2="356.9265" y1="289.0446" y2="298.524"/><line style="stroke:#181818;stroke-width:1.0;" x1="353.742" x2="345.5335" y1="289.0446" y2="294.756"/><line style="stroke:#181818;stroke-width:1.0;" x1="353.742" x2="351.23" y1="289.0446" y2="296.64"/><ellipse cx="355.6259" cy="283.3481" fill="none" rx="4" ry="4" style="stroke:#181818;stroke-width:1.0;"/><text fill="#000000" font-family="Noto Sans CJK JP" font-size="13" lengthAdjust="spacing" textLength="26" x="367" y="263.08">&#26412;ID</text></g><!--SRC=[ZPHjJzfG5CVVtqznmYkDGT0nin1Z5X_OH6HCnFTLEjC8jwOK4gDBNEjSYHerONDkRjccxb7KELmGjl5XIWj-YztU5cY59Nj3Ui_Zx_plkK1gWSEBZC0a8Su-Oj89CS1ZCSmaMN25UP67A8DJC1ASW634XO358YSkWKkLFwhoBrNwQVpARrNfIfKgvDi5J0fYALQ0PGG0FVQuyL4O78nC30rPdhmgdQlIaIh_q7QsY2iM7dyO6skwtzFItrJfWofdLVc4zB0ykqOx-OpwiyrYD9gKgHPNwyg9Hzikwg-BHhN725hW-i596-yipozOlCJjn1oF3eVRs4YgmQqO3QcblhjNNtrAFxLdfLfMqVUERQVQqHzwgkNAchnTotrMvQzaR5KwCyqa_lcv0ThYhESk2Jx56-4Nbomyq-eaR2076ePgvOsMVwczA-ZPLQU7whPEBuHCS4LSclA5u6ZRPtNvjwT-KIIyrMBUevLb_N1DBohgaugLMzilNszUqBdidFPcRSA6-3b6v7XiqRU1HJeXasMu8GN5qhuVw_c2LPR1zxcKo0kcBZrcXBra- -9P8jWbR9feEXaDwAcIqxOArPAYdRvosinBxQ1YIpWhi2cSGwgIKYkisUQOOib3oL257EEOWVytpetRjtAlNsnedpO8hxuljQorIwbQMczPsmSnuun1L8cyg4Ewf6MovXxjT9FasdjKVn_eoewr44Gb-kfNLjnkVjbnGtvmmYDpeJj6DYu7cM_IY5bPDkFzG4T5hQMoAbXUvt8X9qy7fTkncYt_bM02aD9tMHnF9nC8HH8C5cEJ8SYmGifWwkljz_RxUczr1GGE0kmiz0s0r-VtUVtUsn2CJeFXxaPTzoAXJ3-a-BGmnqAST12usRJHhHi5cGm3KscoD4dM3myMMHmSdMWOO0ndE877IR9KA3WpsGeOyBc7EH6Y19lCFJE9His_Sv8nnySvFE-7s7J0VGU563oVPkP9RHQZ4PxK5PRyWDE9n5y0]--></g></svg>