<?xml version="1.0" encoding="us-ascii" standalone="no"?><svg xmlns="http://www.w3.org/2000/svg" xmlns:xlink="http://www.w3.org/1999/xlink" contentStyleType="text/css" height="763px" preserveAspectRatio="none" style="width:586px;height:763px;background:#FFFFFF;" version="1.1" viewBox="0 0 586 763" width="586px" zoomAndPan="magnify"><defs/><g><!--class User--><g id="elem_User"><rect codeLine="2" fill="#F1F1F1" height="149.3596" id="User" rx="2.5" ry="2.5" style="stroke:#181818;stroke-width:0.5;" width="165" x="41.5" y="338"/><ellipse cx="65.95" cy="354" fill="#ADD1B2" rx="11" ry="11" style="stroke:#181818;stroke-width:1.0;"/><path d="M70.0594,360 L62.3406,360 L62.3406,347.6094 L70.0594,347.6094 L70.0594,349.7656 L64.7938,349.7656 L64.7938,352.4375 L69.5594,352.4375 L69.5594,354.5938 L64.7938,354.5938 L64.7938,357.8438 L70.0594,357.8438 L70.0594,360 Z " fill="#000000"/><text fill="#000000" font-family="Noto Sans CJK JP" font-size="14" lengthAdjust="spacing" textLength="112" x="82.05" y="360.104">&#12518;&#12540;&#12470;&#12540;&#12510;&#12473;&#12479;&#12540;</text><line style="stroke:#181818;stroke-width:0.5;" x1="42.5" x2="205.5" y1="370" y2="370"/><ellipse cx="52.5" cy="385.636" fill="none" rx="3" ry="3" style="stroke:#038048;stroke-width:1.0;"/><text fill="#000000" font-family="Noto Sans CJK JP" font-size="14" lengthAdjust="spacing" textLength="105" x="61.5" y="390.2399">&#12518;&#12540;&#12470;&#12540;ID &#171;PK&#187;</text><ellipse cx="52.5" cy="405.9079" fill="none" rx="3" ry="3" style="stroke:#038048;stroke-width:1.0;"/><text fill="#000000" font-family="Noto Sans CJK JP" font-size="14" lengthAdjust="spacing" textLength="139" x="61.5" y="410.5118">&#12525;&#12464;&#12452;&#12531;&#21517; &#171;UNIQUE&#187;</text><ellipse cx="52.5" cy="426.1798" fill="none" rx="3" ry="3" style="stroke:#038048;stroke-width:1.0;"/><text fill="#000000" font-family="Noto Sans CJK JP" font-size="14" lengthAdjust="spacing" textLength="98" x="61.5" y="430.7838">&#12513;&#12540;&#12523;&#12450;&#12489;&#12524;&#12473;</text><ellipse cx="52.5" cy="446.4517" fill="none" rx="3" ry="3" style="stroke:#038048;stroke-width:1.0;"/><text fill="#000000" font-family="Noto Sans CJK JP" font-size="14" lengthAdjust="spacing" textLength="70" x="61.5" y="451.0557">&#12497;&#12473;&#12527;&#12540;&#12489;</text><ellipse cx="52.5" cy="466.7236" fill="none" rx="3" ry="3" style="stroke:#038048;stroke-width:1.0;"/><text fill="#000000" font-family="Noto Sans CJK JP" font-size="14" lengthAdjust="spacing" textLength="120" x="61.5" y="471.3276">&#12525;&#12540;&#12523; &#171;&#19968;&#33324;/&#21496;&#26360;&#187;</text><line style="stroke:#181818;stroke-width:0.5;" x1="42.5" x2="205.5" y1="479.3596" y2="479.3596"/></g><!--class book--><g id="elem_book"><rect codeLine="10" fill="#F1F1F1" height="250.7191" id="book" rx="2.5" ry="2.5" style="stroke:#181818;stroke-width:0.5;" width="254" x="146" y="7"/><ellipse cx="233.75" cy="23" fill="#ADD1B2" rx="11" ry="11" style="stroke:#181818;stroke-width:1.0;"/><path d="M237.8594,29 L230.1406,29 L230.1406,16.6094 L237.8594,16.6094 L237.8594,18.7656 L232.5938,18.7656 L232.5938,21.4375 L237.3594,21.4375 L237.3594,23.5938 L232.5938,23.5938 L232.5938,26.8438 L237.8594,26.8438 L237.8594,29 Z " fill="#000000"/><text fill="#000000" font-family="Noto Sans CJK JP" font-size="14" lengthAdjust="spacing" textLength="70" x="254.25" y="29.104">&#26412;&#12510;&#12473;&#12479;&#12540;</text><line style="stroke:#181818;stroke-width:0.5;" x1="147" x2="399" y1="39" y2="39"/><ellipse cx="157" cy="54.636" fill="none" rx="3" ry="3" style="stroke:#038048;stroke-width:1.0;"/><text fill="#000000" font-family="Noto Sans CJK JP" font-size="14" lengthAdjust="spacing" textLength="63" x="166" y="59.2399">&#26412;ID &#171;PK&#187;</text><ellipse cx="157" cy="74.9079" fill="none" rx="3" ry="3" style="stroke:#038048;stroke-width:1.0;"/><text fill="#000000" font-family="Noto Sans CJK JP" font-size="14" lengthAdjust="spacing" textLength="100" x="166" y="79.5118">ISBN &#171;UNIQUE&#187;</text><ellipse cx="157" cy="95.1798" fill="none" rx="3" ry="3" style="stroke:#038048;stroke-width:1.0;"/><text fill="#000000" font-family="Noto Sans CJK JP" font-size="14" lengthAdjust="spacing" textLength="56" x="166" y="99.7838">&#12479;&#12452;&#12488;&#12523;</text><ellipse cx="157" cy="115.4517" fill="none" rx="3" ry="3" style="stroke:#038048;stroke-width:1.0;"/><text fill="#000000" font-family="Noto Sans CJK JP" font-size="14" lengthAdjust="spacing" textLength="28" x="166" y="120.0557">&#33879;&#32773;</text><ellipse cx="157" cy="135.7236" fill="none" rx="3" ry="3" style="stroke:#038048;stroke-width:1.0;"/><text fill="#000000" font-family="Noto Sans CJK JP" font-size="14" lengthAdjust="spacing" textLength="42" x="166" y="140.3276">&#20986;&#29256;&#31038;</text><ellipse cx="157" cy="155.9955" fill="none" rx="3" ry="3" style="stroke:#038048;stroke-width:1.0;"/><text fill="#000000" font-family="Noto Sans CJK JP" font-size="14" lengthAdjust="spacing" textLength="42" x="166" y="160.5995">&#20986;&#29256;&#26085;</text><ellipse cx="157" cy="176.2674" fill="none" rx="3" ry="3" style="stroke:#038048;stroke-width:1.0;"/><text fill="#000000" font-family="Noto Sans CJK JP" font-size="14" lengthAdjust="spacing" textLength="228" x="166" y="180.8714">&#20986;&#29256;&#26085;&#12398;&#31934;&#24230; &#171;&#19981;&#26126;/&#24180;/&#24180;&#26376;/&#24180;&#26376;&#26085;&#187;</text><ellipse cx="157" cy="196.5393" fill="none" rx="3" ry="3" style="stroke:#038048;stroke-width:1.0;"/><text fill="#000000" font-family="Noto Sans CJK JP" font-size="14" lengthAdjust="spacing" textLength="84" x="166" y="201.1433">&#30011;&#20687;&#29992;&#12522;&#12531;&#12463;</text><ellipse cx="157" cy="216.8112" fill="none" rx="3" ry="3" style="stroke:#038048;stroke-width:1.0;"/><text fill="#000000" font-family="Noto Sans CJK JP" font-size="14" lengthAdjust="spacing" textLength="28" x="166" y="221.4152">&#29256;&#25968;</text><ellipse cx="157" cy="237.0832" fill="none" rx="3" ry="3" style="stroke:#038048;stroke-width:1.0;"/><text fill="#000000" font-family="Noto Sans CJK JP" font-size="14" lengthAdjust="spacing" textLength="56" x="166" y="241.6871">&#20869;&#23481;&#32057;&#20171;</text><line style="stroke:#181818;stroke-width:0.5;" x1="147" x2="399" y1="249.7191" y2="249.7191"/></g><!--class Copy--><g id="elem_Copy"><rect codeLine="23" fill="#F1F1F1" height="149.3596" id="Copy" rx="2.5" ry="2.5" style="stroke:#181818;stroke-width:0.5;" width="277" x="251.5" y="338"/><ellipse cx="371.75" cy="354" fill="#ADD1B2" rx="11" ry="11" style="stroke:#181818;stroke-width:1.0;"/><path d="M375.8594,360 L368.1406,360 L368.1406,347.6094 L375.8594,347.6094 L375.8594,349.7656 L370.5938,349.7656 L370.5938,352.4375 L375.3594,352.4375 L375.3594,354.5938 L370.5938,354.5938 L370.5938,357.8438 L375.8594,357.8438 L375.8594,360 Z " fill="#000000"/><text fill="#000000" font-family="Noto Sans CJK JP" font-size="14" lengthAdjust="spacing" textLength="28" x="392.25" y="360.104">&#34101;&#26360;</text><line style="stroke:#181818;stroke-width:0.5;" x1="252.5" x2="527.5" y1="370" y2="370"/><ellipse cx="262.5" cy="385.636" fill="none" rx="3" ry="3" style="stroke:#038048;stroke-width:1.0;"/><text fill="#000000" font-family="Noto Sans CJK JP" font-size="14" lengthAdjust="spacing" textLength="77" x="271.5" y="390.2399">&#34101;&#26360;ID &#171;PK&#187;</text><ellipse cx="262.5" cy="405.9079" fill="none" rx="3" ry="3" style="stroke:#038048;stroke-width:1.0;"/><text fill="#000000" font-family="Noto Sans CJK JP" font-size="14" lengthAdjust="spacing" textLength="62" x="271.5" y="410.5118">&#26412;ID &#171;FK&#187;</text><ellipse cx="262.5" cy="426.1798" fill="none" rx="3" ry="3" style="stroke:#038048;stroke-width:1.0;"/><text fill="#000000" font-family="Noto Sans CJK JP" font-size="14" lengthAdjust="spacing" textLength="104" x="271.5" y="430.7838">&#20445;&#23384;&#22580;&#25152;ID &#171;FK&#187;</text><ellipse cx="262.5" cy="446.4517" fill="none" rx="3" ry="3" style="stroke:#038048;stroke-width:1.0;"/><text fill="#000000" font-family="Noto Sans CJK JP" font-size="14" lengthAdjust="spacing" textLength="251" x="271.5" y="451.0557">&#12473;&#12486;&#12540;&#12479;&#12473; &#171;&#21033;&#29992;&#21487;&#33021;/&#36024;&#20986;&#20013;/&#24259;&#26820;&#28168;&#12415;&#187;</text><ellipse cx="262.5" cy="466.7236" fill="none" rx="3" ry="3" style="stroke:#038048;stroke-width:1.0;"/><text fill="#000000" font-family="Noto Sans CJK JP" font-size="14" lengthAdjust="spacing" textLength="42" x="271.5" y="471.3276">&#30331;&#37682;&#26085;</text><line style="stroke:#181818;stroke-width:0.5;" x1="252.5" x2="527.5" y1="479.3596" y2="479.3596"/></g><!--class Location--><g id="elem_Location"><rect codeLine="31" fill="#F1F1F1" height="88.5438" id="Location" rx="2.5" ry="2.5" style="stroke:#181818;stroke-width:0.5;" width="144" x="435" y="88"/><ellipse cx="450" cy="104" fill="#ADD1B2" rx="11" ry="11" style="stroke:#181818;stroke-width:1.0;"/><path d="M454.1094,110 L446.3906,110 L446.3906,97.6094 L454.1094,97.6094 L454.1094,99.7656 L448.8438,99.7656 L448.8438,102.4375 L453.6094,102.4375 L453.6094,104.5938 L448.8438,104.5938 L448.8438,107.8438 L454.1094,107.8438 L454.1094,110 Z " fill="#000000"/><text fill="#000000" font-family="Noto Sans CJK JP" font-size="14" lengthAdjust="spacing" textLength="112" x="464" y="110.104">&#20445;&#23384;&#22580;&#25152;&#12510;&#12473;&#12479;&#12540;</text><line style="stroke:#181818;stroke-width:0.5;" x1="436" x2="578" y1="120" y2="120"/><ellipse cx="446" cy="135.636" fill="none" rx="3" ry="3" style="stroke:#038048;stroke-width:1.0;"/><text fill="#000000" font-family="Noto Sans CJK JP" font-size="14" lengthAdjust="spacing" textLength="105" x="455" y="140.2399">&#20445;&#23384;&#22580;&#25152;ID &#171;PK&#187;</text><ellipse cx="446" cy="155.9079" fill="none" rx="3" ry="3" style="stroke:#038048;stroke-width:1.0;"/><text fill="#000000" font-family="Noto Sans CJK JP" font-size="14" lengthAdjust="spacing" textLength="70" x="455" y="160.5118">&#20445;&#23384;&#22580;&#25152;&#21517;</text><line style="stroke:#181818;stroke-width:0.5;" x1="436" x2="578" y1="168.5438" y2="168.5438"/></g><!--class LoanHistory--><g id="elem_LoanHistory"><rect codeLine="36" fill="#F1F1F1" height="189.9034" id="LoanHistory" rx="2.5" ry="2.5" style="stroke:#181818;stroke-width:0.5;" width="216" x="7" y="567"/><ellipse cx="82.75" cy="583" fill="#ADD1B2" rx="11" ry="11" style="stroke:#181818;stroke-width:1.0;"/><path d="M86.8594,589 L79.1406,589 L79.1406,576.6094 L86.8594,576.6094 L86.8594,578.7656 L81.5938,578.7656 L81.5938,581.4375 L86.3594,581.4375 L86.3594,583.5938 L81.5938,583.5938 L81.5938,586.8438 L86.8594,586.8438 L86.8594,589 Z " fill="#000000"/><text fill="#000000" font-family="Noto Sans CJK JP" font-size="14" lengthAdjust="spacing" textLength="56" x="103.25" y="589.104">&#36024;&#20986;&#23653;&#27508;</text><line style="stroke:#181818;stroke-width:0.5;" x1="8" x2="222" y1="599" y2="599"/><ellipse cx="18" cy="614.636" fill="none" rx="3" ry="3" style="stroke:#038048;stroke-width:1.0;"/><text fill="#000000" font-family="Noto Sans CJK JP" font-size="14" lengthAdjust="spacing" textLength="77" x="27" y="619.2399">&#36024;&#20986;ID &#171;PK&#187;</text><ellipse cx="18" cy="634.9079" fill="none" rx="3" ry="3" style="stroke:#038048;stroke-width:1.0;"/><text fill="#000000" font-family="Noto Sans CJK JP" font-size="14" lengthAdjust="spacing" textLength="104" x="27" y="639.5118">&#12518;&#12540;&#12470;&#12540;ID &#171;FK&#187;</text><ellipse cx="18" cy="655.1798" fill="none" rx="3" ry="3" style="stroke:#038048;stroke-width:1.0;"/><text fill="#000000" font-family="Noto Sans CJK JP" font-size="14" lengthAdjust="spacing" textLength="76" x="27" y="659.7838">&#34101;&#26360;ID &#171;FK&#187;</text><ellipse cx="18" cy="675.4517" fill="none" rx="3" ry="3" style="stroke:#038048;stroke-width:1.0;"/><text fill="#000000" font-family="Noto Sans CJK JP" font-size="14" lengthAdjust="spacing" textLength="42" x="27" y="680.0557">&#36024;&#20986;&#26085;</text><ellipse cx="18" cy="695.7236" fill="none" rx="3" ry="3" style="stroke:#038048;stroke-width:1.0;"/><text fill="#000000" font-family="Noto Sans CJK JP" font-size="14" lengthAdjust="spacing" textLength="70" x="27" y="700.3276">&#36820;&#21364;&#20104;&#23450;&#26085;</text><ellipse cx="18" cy="715.9955" fill="none" rx="3" ry="3" style="stroke:#038048;stroke-width:1.0;"/><text fill="#000000" font-family="Noto Sans CJK JP" font-size="14" lengthAdjust="spacing" textLength="42" x="27" y="720.5995">&#36820;&#21364;&#26085;</text><ellipse cx="18" cy="736.2674" fill="none" rx="3" ry="3" style="stroke:#038048;stroke-width:1.0;"/><text fill="#000000" font-family="Noto Sans CJK JP" font-size="14" lengthAdjust="spacing" textLength="190" x="27" y="740.8714">&#12473;&#12486;&#12540;&#12479;&#12473; &#171;&#36024;&#20986;&#20013;/&#36820;&#21364;&#28168;&#12415;&#187;</text><line style="stroke:#181818;stroke-width:0.5;" x1="8" x2="222" y1="748.9034" y2="748.9034"/></g><!--class ReservationHistory--><g id="elem_ReservationHistory"><rect codeLine="46" fill="#F1F1F1" height="189.9034" id="ReservationHistory" rx="2.5" ry="2.5" style="stroke:#181818;stroke-width:0.5;" width="263" x="263.5" y="567"/><ellipse cx="362.75" cy="583" fill="#ADD1B2" rx="11" ry="11" style="stroke:#181818;stroke-width:1.0;"/><path d="M366.8594,589 L359.1406,589 L359.1406,576.6094 L366.8594,576.6094 L366.8594,578.7656 L361.5938,578.7656 L361.5938,581.4375 L366.3594,581.4375 L366.3594,583.5938 L361.5938,583.5938 L361.5938,586.8438 L366.8594,586.8438 L366.8594,589 Z " fill="#000000"/><text fill="#000000" font-family="Noto Sans CJK JP" font-size="14" lengthAdjust="spacing" textLength="56" x="383.25" y="589.104">&#20104;&#32004;&#23653;&#27508;</text><line style="stroke:#181818;stroke-width:0.5;" x1="264.5" x2="525.5" y1="599" y2="599"/><ellipse cx="274.5" cy="614.636" fill="none" rx="3" ry="3" style="stroke:#038048;stroke-width:1.0;"/><text fill="#000000" font-family="Noto Sans CJK JP" font-size="14" lengthAdjust="spacing" textLength="77" x="283.5" y="619.2399">&#20104;&#32004;ID &#171;PK&#187;</text><ellipse cx="274.5" cy="634.9079" fill="none" rx="3" ry="3" style="stroke:#038048;stroke-width:1.0;"/><text fill="#000000" font-family="Noto Sans CJK JP" font-size="14" lengthAdjust="spacing" textLength="104" x="283.5" y="639.5118">&#12518;&#12540;&#12470;&#12540;ID &#171;FK&#187;</text><ellipse cx="274.5" cy="655.1798" fill="none" rx="3" ry="3" style="stroke:#038048;stroke-width:1.0;"/><text fill="#000000" font-family="Noto Sans CJK JP" font-size="14" lengthAdjust="spacing" textLength="76" x="283.5" y="659.7838">&#34101;&#26360;ID &#171;FK&#187;</text><ellipse cx="274.5" cy="675.4517" fill="none" rx="3" ry="3" style="stroke:#038048;stroke-width:1.0;"/><text fill="#000000" font-family="Noto Sans CJK JP" font-size="14" lengthAdjust="spacing" textLength="70" x="283.5" y="680.0557">&#20104;&#32004;&#38283;&#22987;&#26085;</text><ellipse cx="274.5" cy="695.7236" fill="none" rx="3" ry="3" style="stroke:#038048;stroke-width:1.0;"/><text fill="#000000" font-family="Noto Sans CJK JP" font-size="14" lengthAdjust="spacing" textLength="70" x="283.5" y="700.3276">&#20104;&#32004;&#32066;&#20102;&#26085;</text><ellipse cx="274.5" cy="715.9955" fill="none" rx="3" ry="3" style="stroke:#038048;stroke-width:1.0;"/><text fill="#000000" font-family="Noto Sans CJK JP" font-size="14" lengthAdjust="spacing" textLength="237" x="283.5" y="720.5995">&#12473;&#12486;&#12540;&#12479;&#12473; &#171;&#20104;&#32004;&#20013;/&#12461;&#12515;&#12531;&#12475;&#12523;/&#23436;&#20102;&#187;</text><ellipse cx="274.5" cy="736.2674" fill="none" rx="3" ry="3" style="stroke:#038048;stroke-width:1.0;"/><text fill="#000000" font-family="Noto Sans CJK JP" font-size="14" lengthAdjust="spacing" textLength="70" x="283.5" y="740.8714">&#20104;&#32004;&#20316;&#25104;&#26085;</text><line style="stroke:#181818;stroke-width:0.5;" x1="264.5" x2="525.5" y1="748.9034" y2="748.9034"/></g><!--link User to LoanHistory--><g id="link_User_LoanHistory"><path codeLine="56" d="M104.9359,495.1322 C103.1359,505.0822 103.02,507.32 102,517 C100.31,533.1 99.2844,532.2581 100.2144,548.8781 " fill="none" id="User-LoanHistory" style="stroke:#181818;stroke-width:1.0;"/><line style="stroke:#181818;stroke-width:1.0;" x1="101.7118" x2="109.5841" y1="490.4841" y2="491.9082"/><line style="stroke:#181818;stroke-width:1.0;" x1="101.1778" x2="109.05" y1="493.4361" y2="494.8603"/><line style="stroke:#181818;stroke-width:1.0;" x1="104.9359" x2="106.36" y1="495.1322" y2="487.26"/><line style="stroke:#181818;stroke-width:1.0;" x1="100.773" x2="107.2106" y1="558.8625" y2="566.5148"/><line style="stroke:#181818;stroke-width:1.0;" x1="100.773" x2="95.2294" y1="558.8625" y2="567.1852"/><line style="stroke:#181818;stroke-width:1.0;" x1="100.773" x2="101.22" y1="558.8625" y2="566.85"/><ellipse cx="100.4378" cy="552.8719" fill="none" rx="4" ry="4" style="stroke:#181818;stroke-width:1.0;"/><text fill="#000000" font-family="Noto Sans CJK JP" font-size="13" lengthAdjust="spacing" textLength="65" x="103" y="533.08">&#12518;&#12540;&#12470;&#12540;ID</text></g><!--link Copy to LoanHistory--><g id="link_Copy_LoanHistory"><path codeLine="57" d="M323.2554,493.2137 C307.9854,510.1637 296.59,521.74 280,537 C262.33,553.26 256.8321,558.4668 237.3421,573.5868 " fill="none" id="Copy-LoanHistory" style="stroke:#181818;stroke-width:1.0;"/><line style="stroke:#181818;stroke-width:1.0;" x1="322.9608" x2="328.9046" y1="487.5646" y2="492.9192"/><line style="stroke:#181818;stroke-width:1.0;" x1="320.9528" x2="326.8966" y1="489.7935" y2="495.1481"/><line style="stroke:#181818;stroke-width:1.0;" x1="323.2554" x2="328.61" y1="493.2137" y2="487.27"/><line style="stroke:#181818;stroke-width:1.0;" x1="229.4409" x2="226.7977" y1="579.7163" y2="589.3607"/><line style="stroke:#181818;stroke-width:1.0;" x1="229.4409" x2="219.4423" y1="579.7163" y2="579.8793"/><line style="stroke:#181818;stroke-width:1.0;" x1="229.4409" x2="223.12" y1="579.7163" y2="584.62"/><ellipse cx="234.1816" cy="576.0386" fill="none" rx="4" ry="4" style="stroke:#181818;stroke-width:1.0;"/><text fill="#000000" font-family="Noto Sans CJK JP" font-size="13" lengthAdjust="spacing" textLength="39" x="301" y="533.08">&#34101;&#26360;ID</text></g><!--link book to Copy--><g id="link_book_Copy"><path codeLine="58" d="M328.6128,265.6438 C340.0328,292.7838 345.5576,305.8961 355.8276,330.3061 " fill="none" id="book-Copy" style="stroke:#181818;stroke-width:1.0;"/><line style="stroke:#181818;stroke-width:1.0;" x1="323.3745" x2="330.7483" y1="263.5083" y2="260.4055"/><line style="stroke:#181818;stroke-width:1.0;" x1="324.538" x2="331.9118" y1="266.2735" y2="263.1707"/><line style="stroke:#181818;stroke-width:1.0;" x1="328.6128" x2="325.51" y1="265.6438" y2="258.27"/><line style="stroke:#181818;stroke-width:1.0;" x1="355.8276" x2="364.4605" y1="330.3061" y2="335.3532"/><line style="stroke:#181818;stroke-width:1.0;" x1="355.8276" x2="353.3995" y1="330.3061" y2="340.0068"/><line style="stroke:#181818;stroke-width:1.0;" x1="355.8276" x2="358.93" y1="330.3061" y2="337.68"/><line style="stroke:#181818;stroke-width:1.0;" x1="358.7389" x2="351.365" y1="326.9114" y2="330.0138"/><text fill="#000000" font-family="Noto Sans CJK JP" font-size="13" lengthAdjust="spacing" textLength="26" x="347" y="304.08">&#26412;ID</text></g><!--link Location to Copy--><g id="link_Location_Copy"><path codeLine="59" d="M485.4865,184.6135 C467.3665,227.6635 449.4624,270.2195 427.9224,321.3995 " fill="none" id="Location-Copy" style="stroke:#181818;stroke-width:1.0;"/><line style="stroke:#181818;stroke-width:1.0;" x1="483.3515" x2="490.725" y1="179.375" y2="182.4785"/><line style="stroke:#181818;stroke-width:1.0;" x1="482.1877" x2="489.5611" y1="182.14" y2="185.2436"/><line style="stroke:#181818;stroke-width:1.0;" x1="485.4865" x2="488.59" y1="184.6135" y2="177.24"/><line style="stroke:#181818;stroke-width:1.0;" x1="424.0433" x2="426.4702" y1="330.6164" y2="340.3175"/><line style="stroke:#181818;stroke-width:1.0;" x1="424.0433" x2="415.4098" y1="330.6164" y2="335.6625"/><line style="stroke:#181818;stroke-width:1.0;" x1="424.0433" x2="420.94" y1="330.6164" y2="337.99"/><ellipse cx="426.3708" cy="325.0863" fill="none" rx="4" ry="4" style="stroke:#181818;stroke-width:1.0;"/><text fill="#000000" font-family="Noto Sans CJK JP" font-size="13" lengthAdjust="spacing" textLength="65" x="442" y="304.08">&#20445;&#23384;&#22580;&#25152;ID</text></g><!--link User to ReservationHistory--><g id="link_User_ReservationHistory"><path codeLine="61" d="M172.6116,493.8681 C184.7116,511.1881 194.07,522.29 209,537 C225.31,553.07 229.4495,557.6963 248.5295,571.6463 " fill="none" id="User-ReservationHistory" style="stroke:#181818;stroke-width:1.0;"/><line style="stroke:#181818;stroke-width:1.0;" x1="167.0417" x2="173.5999" y1="492.8799" y2="488.2983"/><line style="stroke:#181818;stroke-width:1.0;" x1="168.7598" x2="175.318" y1="495.3392" y2="490.7576"/><line style="stroke:#181818;stroke-width:1.0;" x1="172.6116" x2="168.03" y1="493.8681" y2="487.31"/><line style="stroke:#181818;stroke-width:1.0;" x1="256.602" x2="266.6012" y1="577.5483" y2="577.4265"/><line style="stroke:#181818;stroke-width:1.0;" x1="256.602" x2="259.5188" y1="577.5483" y2="587.1135"/><line style="stroke:#181818;stroke-width:1.0;" x1="256.602" x2="263.06" y1="577.5483" y2="582.27"/><ellipse cx="251.7585" cy="574.0071" fill="none" rx="4" ry="4" style="stroke:#181818;stroke-width:1.0;"/><text fill="#000000" font-family="Noto Sans CJK JP" font-size="13" lengthAdjust="spacing" textLength="65" x="210" y="533.08">&#12518;&#12540;&#12470;&#12540;ID</text></g><!--link Copy to ReservationHistory--><g id="link_Copy_ReservationHistory"><path codeLine="62" d="M391.6504,495.0884 C392.1504,520.0184 392.1977,522.2336 392.7277,548.5636 " fill="none" id="Copy-ReservationHistory" style="stroke:#181818;stroke-width:1.0;"/><line style="stroke:#181818;stroke-width:1.0;" x1="387.571" x2="395.5694" y1="491.1694" y2="491.009"/><line style="stroke:#181818;stroke-width:1.0;" x1="387.6312" x2="395.6296" y1="494.1688" y2="494.0084"/><line style="stroke:#181818;stroke-width:1.0;" x1="391.6504" x2="391.49" y1="495.0884" y2="487.09"/><line style="stroke:#181818;stroke-width:1.0;" x1="392.929" x2="399.0888" y1="558.5616" y2="566.4392"/><line style="stroke:#181818;stroke-width:1.0;" x1="392.929" x2="387.0912" y1="558.5616" y2="566.6808"/><line style="stroke:#181818;stroke-width:1.0;" x1="392.929" x2="393.09" y1="558.5616" y2="566.56"/><ellipse cx="392.8082" cy="552.5628" fill="none" rx="4" ry="4" style="stroke:#181818;stroke-width:1.0;"/><text fill="#000000" font-family="Noto Sans CJK JP" font-size="13" lengthAdjust="spacing" textLength="39" x="394" y="533.08">&#34101;&#26360;ID</text></g><!--SRC=[dPFRRX916CVlzoact6uQxfkc5rORQGr16nvWLKn8xMu3gqa39dIdnIKKQHEqLT6eFNZYK75h5h3bOMPdT_iMpc4NPWDwuGKmVCVVzvzlykjPTLF9AHlWOUQHykInlgofUbBPo81OKjCriAQeUR2qiWfMKZ4fe-fPVGl443n3y3SoVj5l-1uPVMICo3a6b3n8vpCvK900aCMmn4smi91QNLpaZZOopf5nWk1Fl5yZddGoSJTzA_H-P7M_8-CJWXK4MwG1TnpGLh3Bt9Mm4eibDHoxv9kjEAxRxbkRb7ecZO7TPckAyxwchHDEcVWcS79YxKPIv95f1WKrQHD9zWyE_TAk9EFd0wzYUYTNuT4zF1MEQBlZzQxmu8nnrToZ5t7Sj-Z7RPh13mcZ3Rp64CEwr_Y2u3UY1pAwn4QAl3mdzSgxkDFthBuph8hp-8qBCYCROqdRtE9oSsD4w72svU2_Ctg7sqVuW-LMIX47qxNCRekCsoSUR7ubJBZUzU5btE_PP3J7RiVn4Bh7EwvjekqHJ_LU3w_tUdHy0L1iDANy7Us1ecSrbMDFCQLcm98jYSpFUF2FKxTj1IKLzNOshsivAeRC_SArJgqY6roKB32mH38ClUfH0zSiPs3YpXlHmcvwMh29Ha5Og94eoy3qh1s1-rw6l9QdJ0q1duVz1pvFl7vLnP-h39CRl0l36PJ_mir3A3Soo6CwPZiu9DiUnvqzaZQfwrmsNNC_k6dsp8l5kJcj455_7aHX9RQWCmD3V8azHHfIBF1zdWTiSwNnfWJvWJEwCb6M6Oh-4sbc_9XC-WC0]--></g></svg>