<?xml version="1.0" encoding="us-ascii" standalone="no"?><svg xmlns="http://www.w3.org/2000/svg" xmlns:xlink="http://www.w3.org/1999/xlink" contentStyleType="text/css" height="432px" preserveAspectRatio="none" style="width:1522px;height:432px;background:#FFFFFF;" version="1.1" viewBox="0 0 1522 432" width="1522px" zoomAndPan="magnify"><defs/><g><!--cluster GitHub--><g id="cluster_GitHub"><path d="M187.5,127.5 L237.5,127.5 A3.75,3.75 0 0 1 240,130 L247,153.7719 L374.5,153.7719 A2.5,2.5 0 0 1 377,156.2719 L377,230 A2.5,2.5 0 0 1 374.5,232.5 L187.5,232.5 A2.5,2.5 0 0 1 185,230 L185,130 A2.5,2.5 0 0 1 187.5,127.5 " fill="none" style="stroke:#000000;stroke-width:1.5;"/><line style="stroke:#000000;stroke-width:1.5;" x1="185" x2="247" y1="153.7719" y2="153.7719"/><text fill="#000000" font-family="Noto Sans CJK JP" font-size="14" font-weight="bold" lengthAdjust="spacing" textLength="49" x="189" y="145.7399">GitHub</text></g><!--cluster Google Cloud--><g id="cluster_Google Cloud"><path d="M493.5,101.5 L585.5,101.5 A3.75,3.75 0 0 1 588,104 L595,127.7719 L1503,127.7719 A2.5,2.5 0 0 1 1505.5,130.2719 L1505.5,294 A2.5,2.5 0 0 1 1503,296.5 L493.5,296.5 A2.5,2.5 0 0 1 491,294 L491,104 A2.5,2.5 0 0 1 493.5,101.5 " fill="none" style="stroke:#000000;stroke-width:1.5;"/><line style="stroke:#000000;stroke-width:1.5;" x1="491" x2="595" y1="127.7719" y2="127.7719"/><text fill="#000000" font-family="Noto Sans CJK JP" font-size="14" font-weight="bold" lengthAdjust="spacing" textLength="91" x="495" y="119.7399">Google Cloud</text></g><!--cluster Neon--><g id="cluster_Neon"><path d="M1331.5,320.5 L1368.5,320.5 A3.75,3.75 0 0 1 1371,323 L1378,346.7719 L1512.5,346.7719 A2.5,2.5 0 0 1 1515,349.2719 L1515,423 A2.5,2.5 0 0 1 1512.5,425.5 L1331.5,425.5 A2.5,2.5 0 0 1 1329,423 L1329,323 A2.5,2.5 0 0 1 1331.5,320.5 " fill="none" style="stroke:#000000;stroke-width:1.5;"/><line style="stroke:#000000;stroke-width:1.5;" x1="1329" x2="1378" y1="346.7719" y2="346.7719"/><text fill="#000000" font-family="Noto Sans CJK JP" font-size="14" font-weight="bold" lengthAdjust="spacing" textLength="36" x="1333" y="338.7399">Neon</text></g><!--entity GitHubRepo--><g id="elem_GitHubRepo"><rect fill="#F1F1F1" height="50.2719" rx="2.5" ry="2.5" style="stroke:#181818;stroke-width:0.5;" width="160" x="201" y="166.5"/><rect fill="#F1F1F1" height="10" style="stroke:#181818;stroke-width:0.5;" width="15" x="341" y="171.5"/><rect fill="#F1F1F1" height="2" style="stroke:#181818;stroke-width:0.5;" width="4" x="339" y="173.5"/><rect fill="#F1F1F1" height="2" style="stroke:#181818;stroke-width:0.5;" width="4" x="339" y="177.5"/><text fill="#000000" font-family="Noto Sans CJK JP" font-size="14" lengthAdjust="spacing" textLength="120" x="216" y="202.7399">GitHub Repository</text></g><!--entity CloudBuild--><g id="elem_CloudBuild"><rect fill="#F1F1F1" height="50.2719" rx="2.5" ry="2.5" style="stroke:#181818;stroke-width:0.5;" width="117" x="507" y="166.5"/><rect fill="#F1F1F1" height="10" style="stroke:#181818;stroke-width:0.5;" width="15" x="604" y="171.5"/><rect fill="#F1F1F1" height="2" style="stroke:#181818;stroke-width:0.5;" width="4" x="602" y="173.5"/><rect fill="#F1F1F1" height="2" style="stroke:#181818;stroke-width:0.5;" width="4" x="602" y="177.5"/><text fill="#000000" font-family="Noto Sans CJK JP" font-size="14" lengthAdjust="spacing" textLength="77" x="522" y="202.7399">Cloud Build</text></g><!--entity ArtifactRegistry--><g id="elem_ArtifactRegistry"><rect fill="#F1F1F1" height="50.2719" rx="2.5" ry="2.5" style="stroke:#181818;stroke-width:0.5;" width="144" x="819" y="230.5"/><rect fill="#F1F1F1" height="10" style="stroke:#181818;stroke-width:0.5;" width="15" x="943" y="235.5"/><rect fill="#F1F1F1" height="2" style="stroke:#181818;stroke-width:0.5;" width="4" x="941" y="237.5"/><rect fill="#F1F1F1" height="2" style="stroke:#181818;stroke-width:0.5;" width="4" x="941" y="241.5"/><text fill="#000000" font-family="Noto Sans CJK JP" font-size="14" lengthAdjust="spacing" textLength="104" x="834" y="266.7399">Artifact Registry</text></g><!--entity CloudRun--><g id="elem_CloudRun"><rect fill="#F1F1F1" height="50.2719" rx="2.5" ry="2.5" style="stroke:#181818;stroke-width:0.5;" width="109" x="1110" y="166.5"/><rect fill="#F1F1F1" height="10" style="stroke:#181818;stroke-width:0.5;" width="15" x="1199" y="171.5"/><rect fill="#F1F1F1" height="2" style="stroke:#181818;stroke-width:0.5;" width="4" x="1197" y="173.5"/><rect fill="#F1F1F1" height="2" style="stroke:#181818;stroke-width:0.5;" width="4" x="1197" y="177.5"/><text fill="#000000" font-family="Noto Sans CJK JP" font-size="14" lengthAdjust="spacing" textLength="69" x="1125" y="202.7399">Cloud Run</text></g><!--entity Logging--><g id="elem_Logging"><rect fill="#F1F1F1" height="50.2719" rx="2.5" ry="2.5" style="stroke:#181818;stroke-width:0.5;" width="135" x="1354.5" y="166.5"/><rect fill="#F1F1F1" height="10" style="stroke:#181818;stroke-width:0.5;" width="15" x="1469.5" y="171.5"/><rect fill="#F1F1F1" height="2" style="stroke:#181818;stroke-width:0.5;" width="4" x="1467.5" y="173.5"/><rect fill="#F1F1F1" height="2" style="stroke:#181818;stroke-width:0.5;" width="4" x="1467.5" y="177.5"/><text fill="#000000" font-family="Noto Sans CJK JP" font-size="14" lengthAdjust="spacing" textLength="95" x="1369.5" y="202.7399">Cloud Logging</text></g><!--entity NeonPostgreSQL--><g id="elem_NeonPostgreSQL"><rect fill="#F1F1F1" height="50.2719" rx="2.5" ry="2.5" style="stroke:#181818;stroke-width:0.5;" width="154" x="1345" y="359.5"/><rect fill="#F1F1F1" height="10" style="stroke:#181818;stroke-width:0.5;" width="15" x="1479" y="364.5"/><rect fill="#F1F1F1" height="2" style="stroke:#181818;stroke-width:0.5;" width="4" x="1477" y="366.5"/><rect fill="#F1F1F1" height="2" style="stroke:#181818;stroke-width:0.5;" width="4" x="1477" y="370.5"/><text fill="#000000" font-family="Noto Sans CJK JP" font-size="14" lengthAdjust="spacing" textLength="114" x="1360" y="395.7399">Neon PostgreSQL</text></g><!--entity User--><g id="elem_User"><ellipse cx="891" cy="14" fill="#F1F1F1" rx="8" ry="8" style="stroke:#181818;stroke-width:0.5;"/><path d="M891,22 L891,49 M878,30 L904,30 M891,49 L878,64 M891,49 L904,64 " fill="none" style="stroke:#181818;stroke-width:0.5;"/><text fill="#000000" font-family="Noto Sans CJK JP" font-size="14" lengthAdjust="spacing" textLength="30" x="876" y="81.7399">User</text></g><!--entity Developer--><g id="elem_Developer"><ellipse cx="39.5" cy="160" fill="#F1F1F1" rx="8" ry="8" style="stroke:#181818;stroke-width:0.5;"/><path d="M39.5,168 L39.5,195 M26.5,176 L52.5,176 M39.5,195 L26.5,210 M39.5,195 L52.5,210 " fill="none" style="stroke:#181818;stroke-width:0.5;"/><text fill="#000000" font-family="Noto Sans CJK JP" font-size="14" lengthAdjust="spacing" textLength="67" x="6" y="227.7399">Developer</text></g><!--link Developer to GitHubRepo--><g id="link_Developer_GitHubRepo"><path d="M73.3,191.5 C106.03,191.5 151.57,191.5 194.99,191.5 " fill="none" id="Developer-to-GitHubRepo" style="stroke:#181818;stroke-width:1.0;"/><polygon fill="#181818" points="200.99,191.5,191.99,187.5,195.99,191.5,191.99,195.5,200.99,191.5" style="stroke:#181818;stroke-width:1.0;"/><text fill="#000000" font-family="Noto Sans CJK JP" font-size="13" lengthAdjust="spacing" textLength="64" x="104" y="187.58">Push Code</text></g><!--link GitHubRepo to CloudBuild--><g id="link_GitHubRepo_CloudBuild"><path d="M361.07,191.5 C407.42,191.5 458.95,191.5 500.98,191.5 " fill="none" id="GitHubRepo-to-CloudBuild" style="stroke:#181818;stroke-width:1.0;"/><polygon fill="#181818" points="506.98,191.5,497.98,187.5,501.98,191.5,497.98,195.5,506.98,191.5" style="stroke:#181818;stroke-width:1.0;"/><text fill="#000000" font-family="Noto Sans CJK JP" font-size="13" lengthAdjust="spacing" textLength="80" x="394" y="187.58">Trigger CI/CD</text></g><!--link CloudBuild to ArtifactRegistry--><g id="link_CloudBuild_ArtifactRegistry"><path d="M624.34,202.94 C678.77,213.71 754.5342,228.6951 812.9442,240.2551 " fill="none" id="CloudBuild-to-ArtifactRegistry" style="stroke:#181818;stroke-width:1.0;"/><polygon fill="#181818" points="818.83,241.42,810.7778,235.7488,813.9251,240.4493,809.2247,243.5966,818.83,241.42" style="stroke:#181818;stroke-width:1.0;"/><text fill="#000000" font-family="Noto Sans CJK JP" font-size="13" lengthAdjust="spacing" textLength="133" x="655" y="206.58">Push Container Image</text></g><!--link CloudBuild to CloudRun--><g id="link_CloudBuild_CloudRun"><path d="M624.33,184.71 C634.21,183.79 644.39,182.99 654,182.5 C716.39,179.3 995.67,180.68 1080,184.5 C1089.59,184.93 1093.8078,185.1484 1103.6578,185.9084 " fill="none" id="CloudBuild-to-CloudRun" style="stroke:#181818;stroke-width:1.0;"/><polygon fill="#181818" points="1109.64,186.37,1100.9744,181.6895,1104.6548,185.9854,1100.359,189.6658,1109.64,186.37" style="stroke:#181818;stroke-width:1.0;"/><text fill="#000000" font-family="Noto Sans CJK JP" font-size="13" lengthAdjust="spacing" textLength="83" x="849.5" y="177.58">Deploy Image</text></g><!--link ArtifactRegistry to CloudRun--><g id="link_ArtifactRegistry_CloudRun"><path d="M963.33,238.68 C1009.21,227.87 1062.0199,215.4158 1103.9599,205.5358 " fill="none" id="ArtifactRegistry-to-CloudRun" style="stroke:#181818;stroke-width:1.0;"/><polygon fill="#181818" points="1109.8,204.16,1100.1226,202.3303,1104.9332,205.3065,1101.957,210.1171,1109.8,204.16" style="stroke:#181818;stroke-width:1.0;"/><text fill="#000000" font-family="Noto Sans CJK JP" font-size="13" lengthAdjust="spacing" textLength="64" x="1004.5" y="208.58">Pull Image</text></g><!--link User to CloudRun--><g id="link_User_CloudRun"><path d="M906.21,53.14 C945,74 1048.6755,129.7585 1111.6655,163.6285 " fill="none" id="User-to-CloudRun" style="stroke:#181818;stroke-width:1.0;"/><polygon fill="#181818" points="1116.95,166.47,1110.9176,158.6848,1112.5463,164.1021,1107.1289,165.7308,1116.95,166.47" style="stroke:#181818;stroke-width:1.0;"/><text fill="#000000" font-family="Noto Sans CJK JP" font-size="13" lengthAdjust="spacing" textLength="85" x="994" y="97.58">HTTP Request</text></g><!--link CloudRun to NeonPostgreSQL--><g id="link_CloudRun_NeonPostgreSQL"><path d="M1198.64,216.53 C1247.52,253.46 1333.6526,318.5133 1382.7226,355.5833 " fill="none" id="CloudRun-to-NeonPostgreSQL" style="stroke:#181818;stroke-width:1.0;"/><polygon fill="#181818" points="1387.51,359.2,1382.74,350.5833,1383.5205,356.1861,1377.9177,356.9666,1387.51,359.2" style="stroke:#181818;stroke-width:1.0;"/><text fill="#000000" font-family="Noto Sans CJK JP" font-size="13" lengthAdjust="spacing" textLength="62" x="1250" y="254.58">DB Access</text></g><!--link CloudRun to Logging--><g id="link_CloudRun_Logging"><path d="M1219.06,191.5 C1258.42,191.5 1306.17,191.5 1348.31,191.5 " fill="none" id="CloudRun-to-Logging" style="stroke:#181818;stroke-width:1.0;stroke-dasharray:7.0,7.0;"/><polygon fill="#181818" points="1354.31,191.5,1345.31,187.5,1349.31,191.5,1345.31,195.5,1354.31,191.5" style="stroke:#181818;stroke-width:1.0;"/><text fill="#000000" font-family="Noto Sans CJK JP" font-size="13" lengthAdjust="spacing" textLength="62" x="1250" y="187.58">Send Logs</text></g><!--SRC=[RPA_JiCm4CPtFyMf2nEmCo11AYXGLO6M1p39rRLmVI5sa11Ye1qGWXd4X41CIF00l4w4WBV03adJFso-Bx_li-ykvbZgXATy237sUQRi5cdRuKE4HeSiGPTh0y7k7ko63QQmRy69gHG32x5CCRAID6ECHvPIE3IObiScdgAYnDKiuT4n5ovmMzfMTjI0SmOGqJ0XZTfMCXnWGaOwxra3k84_rOliOZg3I2Y4G54MBoGLAcncKiL5Hb4NvIotaLhPT-zqTmffR7bZfLRYVza7cQwJNV4VqoOXf1O5LvvdMkWWwOMdUn52CbQasDrl5sQlrPBFM8AVkvklXu_yyYOVNUVZgtnydu_Vyj4BcmmSbfVNfwO7Qn1cPW01nSYcP4_Lyt5KpsrLE7kmineqsTGdJyxFfaxLbaljR3j3rzoyhHgJmvkOA3ehiOMuEJZCb2fHrtC-UYxwVFryV_n-kcN-Dvjtj7gzqAtp94DZsKJtqEmK_KisOIEAq9YQMrbPhrRbW2xgOek6_G80]--></g></svg>