<?xml version="1.0" encoding="us-ascii" standalone="no"?><svg xmlns="http://www.w3.org/2000/svg" xmlns:xlink="http://www.w3.org/1999/xlink" contentStyleType="text/css" height="561px" preserveAspectRatio="none" style="width:1615px;height:561px;background:#FFFFFF;" version="1.1" viewBox="0 0 1615 561" width="1615px" zoomAndPan="magnify"><defs/><g><!--cluster GitHub--><g id="cluster_GitHub"><path d="M187.5,127.5 L237.5,127.5 A3.75,3.75 0 0 1 240,130 L247,153.7719 L374.5,153.7719 A2.5,2.5 0 0 1 377,156.2719 L377,230 A2.5,2.5 0 0 1 374.5,232.5 L187.5,232.5 A2.5,2.5 0 0 1 185,230 L185,130 A2.5,2.5 0 0 1 187.5,127.5 " fill="none" style="stroke:#000000;stroke-width:1.5;"/><line style="stroke:#000000;stroke-width:1.5;" x1="185" x2="247" y1="153.7719" y2="153.7719"/><text fill="#000000" font-family="Noto Sans CJK JP" font-size="14" font-weight="bold" lengthAdjust="spacing" textLength="49" x="189" y="145.7399">GitHub</text></g><!--cluster Google Cloud--><g id="cluster_Google Cloud"><path d="M493.5,101.5 L585.5,101.5 A3.75,3.75 0 0 1 588,104 L595,127.7719 L1599,127.7719 A2.5,2.5 0 0 1 1601.5,130.2719 L1601.5,294 A2.5,2.5 0 0 1 1599,296.5 L493.5,296.5 A2.5,2.5 0 0 1 491,294 L491,104 A2.5,2.5 0 0 1 493.5,101.5 " fill="none" style="stroke:#000000;stroke-width:1.5;"/><line style="stroke:#000000;stroke-width:1.5;" x1="491" x2="595" y1="127.7719" y2="127.7719"/><text fill="#000000" font-family="Noto Sans CJK JP" font-size="14" font-weight="bold" lengthAdjust="spacing" textLength="91" x="495" y="119.7399">Google Cloud</text></g><!--cluster Neon--><g id="cluster_Neon"><path d="M1424.5,320.5 L1461.5,320.5 A3.75,3.75 0 0 1 1464,323 L1471,346.7719 L1605.5,346.7719 A2.5,2.5 0 0 1 1608,349.2719 L1608,423 A2.5,2.5 0 0 1 1605.5,425.5 L1424.5,425.5 A2.5,2.5 0 0 1 1422,423 L1422,323 A2.5,2.5 0 0 1 1424.5,320.5 " fill="none" style="stroke:#000000;stroke-width:1.5;"/><line style="stroke:#000000;stroke-width:1.5;" x1="1422" x2="1471" y1="346.7719" y2="346.7719"/><text fill="#000000" font-family="Noto Sans CJK JP" font-size="14" font-weight="bold" lengthAdjust="spacing" textLength="36" x="1426" y="338.7399">Neon</text></g><!--cluster External APIs--><g id="cluster_External APIs"><path d="M1424.5,449.5 L1516.5,449.5 A3.75,3.75 0 0 1 1519,452 L1526,475.7719 L1605.5,475.7719 A2.5,2.5 0 0 1 1608,478.2719 L1608,552 A2.5,2.5 0 0 1 1605.5,554.5 L1424.5,554.5 A2.5,2.5 0 0 1 1422,552 L1422,452 A2.5,2.5 0 0 1 1424.5,449.5 " fill="none" style="stroke:#000000;stroke-width:1.5;"/><line style="stroke:#000000;stroke-width:1.5;" x1="1422" x2="1526" y1="475.7719" y2="475.7719"/><text fill="#000000" font-family="Noto Sans CJK JP" font-size="14" font-weight="bold" lengthAdjust="spacing" textLength="91" x="1426" y="467.7399">External APIs</text></g><!--entity GitHubRepo--><g id="elem_GitHubRepo"><rect fill="#F1F1F1" height="50.2719" rx="2.5" ry="2.5" style="stroke:#181818;stroke-width:0.5;" width="160" x="201" y="166.5"/><rect fill="#F1F1F1" height="10" style="stroke:#181818;stroke-width:0.5;" width="15" x="341" y="171.5"/><rect fill="#F1F1F1" height="2" style="stroke:#181818;stroke-width:0.5;" width="4" x="339" y="173.5"/><rect fill="#F1F1F1" height="2" style="stroke:#181818;stroke-width:0.5;" width="4" x="339" y="177.5"/><text fill="#000000" font-family="Noto Sans CJK JP" font-size="14" lengthAdjust="spacing" textLength="120" x="216" y="202.7399">GitHub Repository</text></g><!--entity CloudBuild--><g id="elem_CloudBuild"><rect fill="#F1F1F1" height="50.2719" rx="2.5" ry="2.5" style="stroke:#181818;stroke-width:0.5;" width="117" x="507" y="166.5"/><rect fill="#F1F1F1" height="10" style="stroke:#181818;stroke-width:0.5;" width="15" x="604" y="171.5"/><rect fill="#F1F1F1" height="2" style="stroke:#181818;stroke-width:0.5;" width="4" x="602" y="173.5"/><rect fill="#F1F1F1" height="2" style="stroke:#181818;stroke-width:0.5;" width="4" x="602" y="177.5"/><text fill="#000000" font-family="Noto Sans CJK JP" font-size="14" lengthAdjust="spacing" textLength="77" x="522" y="202.7399">Cloud Build</text></g><!--entity ArtifactRegistry--><g id="elem_ArtifactRegistry"><rect fill="#F1F1F1" height="50.2719" rx="2.5" ry="2.5" style="stroke:#181818;stroke-width:0.5;" width="144" x="819" y="230.5"/><rect fill="#F1F1F1" height="10" style="stroke:#181818;stroke-width:0.5;" width="15" x="943" y="235.5"/><rect fill="#F1F1F1" height="2" style="stroke:#181818;stroke-width:0.5;" width="4" x="941" y="237.5"/><rect fill="#F1F1F1" height="2" style="stroke:#181818;stroke-width:0.5;" width="4" x="941" y="241.5"/><text fill="#000000" font-family="Noto Sans CJK JP" font-size="14" lengthAdjust="spacing" textLength="104" x="834" y="266.7399">Artifact Registry</text></g><!--entity CloudRun--><g id="elem_CloudRun"><rect fill="#F1F1F1" height="50.2719" rx="2.5" ry="2.5" style="stroke:#181818;stroke-width:0.5;" width="109" x="1110" y="220.5"/><rect fill="#F1F1F1" height="10" style="stroke:#181818;stroke-width:0.5;" width="15" x="1199" y="225.5"/><rect fill="#F1F1F1" height="2" style="stroke:#181818;stroke-width:0.5;" width="4" x="1197" y="227.5"/><rect fill="#F1F1F1" height="2" style="stroke:#181818;stroke-width:0.5;" width="4" x="1197" y="231.5"/><text fill="#000000" font-family="Noto Sans CJK JP" font-size="14" lengthAdjust="spacing" textLength="69" x="1125" y="256.7399">Cloud Run</text></g><!--entity Logging--><g id="elem_Logging"><rect fill="#F1F1F1" height="50.2719" rx="2.5" ry="2.5" style="stroke:#181818;stroke-width:0.5;" width="135" x="1447.5" y="228.5"/><rect fill="#F1F1F1" height="10" style="stroke:#181818;stroke-width:0.5;" width="15" x="1562.5" y="233.5"/><rect fill="#F1F1F1" height="2" style="stroke:#181818;stroke-width:0.5;" width="4" x="1560.5" y="235.5"/><rect fill="#F1F1F1" height="2" style="stroke:#181818;stroke-width:0.5;" width="4" x="1560.5" y="239.5"/><text fill="#000000" font-family="Noto Sans CJK JP" font-size="14" lengthAdjust="spacing" textLength="95" x="1462.5" y="264.7399">Cloud Logging</text></g><!--entity SecretManager--><g id="elem_SecretManager"><rect fill="#F1F1F1" height="50.2719" rx="2.5" ry="2.5" style="stroke:#181818;stroke-width:0.5;" width="141" x="1444.5" y="143.5"/><rect fill="#F1F1F1" height="10" style="stroke:#181818;stroke-width:0.5;" width="15" x="1565.5" y="148.5"/><rect fill="#F1F1F1" height="2" style="stroke:#181818;stroke-width:0.5;" width="4" x="1563.5" y="150.5"/><rect fill="#F1F1F1" height="2" style="stroke:#181818;stroke-width:0.5;" width="4" x="1563.5" y="154.5"/><text fill="#000000" font-family="Noto Sans CJK JP" font-size="14" lengthAdjust="spacing" textLength="101" x="1459.5" y="179.7399">Secret Manager</text></g><!--entity NeonPostgreSQL--><g id="elem_NeonPostgreSQL"><rect fill="#F1F1F1" height="50.2719" rx="2.5" ry="2.5" style="stroke:#181818;stroke-width:0.5;" width="154" x="1438" y="359.5"/><rect fill="#F1F1F1" height="10" style="stroke:#181818;stroke-width:0.5;" width="15" x="1572" y="364.5"/><rect fill="#F1F1F1" height="2" style="stroke:#181818;stroke-width:0.5;" width="4" x="1570" y="366.5"/><rect fill="#F1F1F1" height="2" style="stroke:#181818;stroke-width:0.5;" width="4" x="1570" y="370.5"/><text fill="#000000" font-family="Noto Sans CJK JP" font-size="14" lengthAdjust="spacing" textLength="114" x="1453" y="395.7399">Neon PostgreSQL</text></g><!--entity GoogleBooksAPI--><g id="elem_GoogleBooksAPI"><rect fill="#F1F1F1" height="50.2719" rx="2.5" ry="2.5" style="stroke:#181818;stroke-width:0.5;" width="154" x="1438" y="488.5"/><rect fill="#F1F1F1" height="10" style="stroke:#181818;stroke-width:0.5;" width="15" x="1572" y="493.5"/><rect fill="#F1F1F1" height="2" style="stroke:#181818;stroke-width:0.5;" width="4" x="1570" y="495.5"/><rect fill="#F1F1F1" height="2" style="stroke:#181818;stroke-width:0.5;" width="4" x="1570" y="499.5"/><text fill="#000000" font-family="Noto Sans CJK JP" font-size="14" lengthAdjust="spacing" textLength="114" x="1453" y="524.7399">Google Books API</text></g><!--entity User--><g id="elem_User"><ellipse cx="891" cy="14" fill="#F1F1F1" rx="8" ry="8" style="stroke:#181818;stroke-width:0.5;"/><path d="M891,22 L891,49 M878,30 L904,30 M891,49 L878,64 M891,49 L904,64 " fill="none" style="stroke:#181818;stroke-width:0.5;"/><text fill="#000000" font-family="Noto Sans CJK JP" font-size="14" lengthAdjust="spacing" textLength="30" x="876" y="81.7399">User</text></g><!--entity Developer--><g id="elem_Developer"><ellipse cx="39.5" cy="160" fill="#F1F1F1" rx="8" ry="8" style="stroke:#181818;stroke-width:0.5;"/><path d="M39.5,168 L39.5,195 M26.5,176 L52.5,176 M39.5,195 L26.5,210 M39.5,195 L52.5,210 " fill="none" style="stroke:#181818;stroke-width:0.5;"/><text fill="#000000" font-family="Noto Sans CJK JP" font-size="14" lengthAdjust="spacing" textLength="67" x="6" y="227.7399">Developer</text></g><!--link Developer to GitHubRepo--><g id="link_Developer_GitHubRepo"><path d="M73.3,191.5 C106.03,191.5 151.57,191.5 194.99,191.5 " fill="none" id="Developer-to-GitHubRepo" style="stroke:#181818;stroke-width:1.0;"/><polygon fill="#181818" points="200.99,191.5,191.99,187.5,195.99,191.5,191.99,195.5,200.99,191.5" style="stroke:#181818;stroke-width:1.0;"/><text fill="#000000" font-family="Noto Sans CJK JP" font-size="13" lengthAdjust="spacing" textLength="64" x="104" y="187.58">Push Code</text></g><!--link GitHubRepo to CloudBuild--><g id="link_GitHubRepo_CloudBuild"><path d="M361.07,191.5 C407.42,191.5 458.95,191.5 500.98,191.5 " fill="none" id="GitHubRepo-to-CloudBuild" style="stroke:#181818;stroke-width:1.0;"/><polygon fill="#181818" points="506.98,191.5,497.98,187.5,501.98,191.5,497.98,195.5,506.98,191.5" style="stroke:#181818;stroke-width:1.0;"/><text fill="#000000" font-family="Noto Sans CJK JP" font-size="13" lengthAdjust="spacing" textLength="80" x="394" y="187.58">Trigger CI/CD</text></g><!--link CloudBuild to ArtifactRegistry--><g id="link_CloudBuild_ArtifactRegistry"><path d="M624.34,202.94 C678.77,213.71 754.5342,228.6951 812.9442,240.2551 " fill="none" id="CloudBuild-to-ArtifactRegistry" style="stroke:#181818;stroke-width:1.0;"/><polygon fill="#181818" points="818.83,241.42,810.7778,235.7488,813.9251,240.4493,809.2247,243.5966,818.83,241.42" style="stroke:#181818;stroke-width:1.0;"/><text fill="#000000" font-family="Noto Sans CJK JP" font-size="13" lengthAdjust="spacing" textLength="133" x="655" y="206.58">Push Container Image</text></g><!--link CloudBuild to CloudRun--><g id="link_CloudBuild_CloudRun"><path d="M624.33,184.71 C634.21,183.79 644.39,182.99 654,182.5 C843.88,172.76 893.92,182.51 1080,221.5 C1089.74,223.54 1094.2237,224.5429 1104.1037,227.2529 " fill="none" id="CloudBuild-to-CloudRun" style="stroke:#181818;stroke-width:1.0;"/><polygon fill="#181818" points="1109.89,228.84,1102.2687,222.6018,1105.0681,227.5174,1100.1525,230.3168,1109.89,228.84" style="stroke:#181818;stroke-width:1.0;"/><text fill="#000000" font-family="Noto Sans CJK JP" font-size="13" lengthAdjust="spacing" textLength="83" x="849.5" y="176.58">Deploy Image</text></g><!--link ArtifactRegistry to CloudRun--><g id="link_ArtifactRegistry_CloudRun"><path d="M963.33,252.87 C1009.21,251.18 1061.864,249.2402 1103.804,247.7002 " fill="none" id="ArtifactRegistry-to-CloudRun" style="stroke:#181818;stroke-width:1.0;"/><polygon fill="#181818" points="1109.8,247.48,1100.6593,243.8129,1104.8034,247.6635,1100.9528,251.8076,1109.8,247.48" style="stroke:#181818;stroke-width:1.0;"/><text fill="#000000" font-family="Noto Sans CJK JP" font-size="13" lengthAdjust="spacing" textLength="64" x="1004.5" y="245.58">Pull Image</text></g><!--link CloudRun to SecretManager--><g id="link_CloudRun_SecretManager"><path d="M1219.15,227.83 C1229.02,224.85 1239.28,221.94 1249,219.5 C1314.66,203.01 1384.7157,189.9007 1438.4357,180.7207 " fill="none" id="CloudRun-to-SecretManager" style="stroke:#181818;stroke-width:1.0;"/><polygon fill="#181818" points="1444.35,179.71,1434.8048,177.2832,1439.4214,180.5522,1436.1524,185.1688,1444.35,179.71" style="stroke:#181818;stroke-width:1.0;"/><text fill="#000000" font-family="Noto Sans CJK JP" font-size="13" lengthAdjust="spacing" textLength="82" x="1286.5" y="182.58">Fetch Secrets</text></g><!--link User to CloudRun--><g id="link_User_CloudRun"><path d="M906.19,51.53 C938.92,65.83 1021.39,104.21 1080,151.5 C1105.14,171.79 1125.4326,195.2968 1141.1926,215.5268 " fill="none" id="User-to-CloudRun" style="stroke:#181818;stroke-width:1.0;"/><polygon fill="#181818" points="1144.88,220.26,1142.5044,210.7019,1141.8072,216.3157,1136.1935,215.6184,1144.88,220.26" style="stroke:#181818;stroke-width:1.0;"/><text fill="#000000" font-family="Noto Sans CJK JP" font-size="13" lengthAdjust="spacing" textLength="85" x="994" y="92.58">HTTP Request</text></g><!--link CloudRun to NeonPostgreSQL--><g id="link_CloudRun_NeonPostgreSQL"><path d="M1219.37,267.52 C1229.22,271.52 1239.41,275.65 1249,279.5 C1317.65,307.08 1390.9078,336.0502 1444.6278,357.2202 " fill="none" id="CloudRun-to-NeonPostgreSQL" style="stroke:#181818;stroke-width:1.0;"/><polygon fill="#181818" points="1450.21,359.42,1443.3033,352.3988,1445.5582,357.5868,1440.3702,359.8417,1450.21,359.42" style="stroke:#181818;stroke-width:1.0;"/><text fill="#000000" font-family="Noto Sans CJK JP" font-size="13" lengthAdjust="spacing" textLength="62" x="1296.5" y="275.58">DB Access</text></g><!--link CloudRun to Logging--><g id="link_CloudRun_Logging"><path d="M1219.19,246.73 C1280.57,248.14 1375.1116,250.3125 1441.4316,251.8325 " fill="none" id="CloudRun-to-Logging" style="stroke:#181818;stroke-width:1.0;stroke-dasharray:7.0,7.0;"/><polygon fill="#181818" points="1447.43,251.97,1438.524,247.7648,1442.4313,251.8554,1438.3407,255.7627,1447.43,251.97" style="stroke:#181818;stroke-width:1.0;"/><text fill="#000000" font-family="Noto Sans CJK JP" font-size="13" lengthAdjust="spacing" textLength="62" x="1296.5" y="243.58">Send Logs</text></g><!--link CloudRun to GoogleBooksAPI--><g id="link_CloudRun_GoogleBooksAPI"><path d="M1177.96,270.71 C1192.21,297.56 1217.67,340.04 1249,368.5 C1308.58,422.63 1386.4716,461.6247 1443.7116,486.0547 " fill="none" id="CloudRun-to-GoogleBooksAPI" style="stroke:#181818;stroke-width:1.0;"/><polygon fill="#181818" points="1449.23,488.41,1442.5226,481.1982,1444.6313,486.4473,1439.3822,488.5561,1449.23,488.41" style="stroke:#181818;stroke-width:1.0;"/><text fill="#000000" font-family="Noto Sans CJK JP" font-size="13" lengthAdjust="spacing" textLength="155" x="1250" y="364.58">Fetch Book Info (by ISBN)</text></g><!--SRC=[RPFDRjD04CVl-nIZN813ovr3fNnGcb8YquG7sDeJPnLdrtZNY0fnQ2m-gYB1gLMbIb342PKWJaW8yJAhDF0MxAxj94vws_dvF__PcLdB8UCnJUW80kpJD5BRWgiE7I7KEa89w58keRdx47Qz6ecmhy30X8K31G5Bq5TCS488zPL8u8d4f3Ysy1b68ZOnYQa_fA4nVC3KJdfGWnS4m1UZM73agiImZx6GpEGUre1AoAc5vEMoXn1XXD2CH1giEJaAZPH5WVDmiGkhkdgYMD_SqzGCcLH5nPAMy2Rl_PGld4rmasPFX27ZeTCLvwgiYtw22XvHRbfAd2v71Qaqt471rngr43mXLPXWz_6Uix1iWIeUzvyhJ3YDeEwrvVhyyv4sX1XAgyZ7xw1Z1bctM_3lz6Hs_aiVdUZniSxUwEnCPz_q-0kPBnisDhQMDWVtm4lb09eYGBA4hMgn6wFgcHTb6eTc-swpHPO-MUNgNXQkN576JLfxPDfSJIjNPEGjZ2DnMCZMx5R4NXf5XTJqhCS_TVPRZx_hx4fdcSxUpYQNim-loJp3fbVMPposKVc3WagI-tnsy_ewdNpyU_cEs5zbjV9Eh-UP9_aqHQcg_jNTseuQKFTzb7AXszpSAf-R4NIHkvSeRV7hYojzDBdENaq__PY-Fvt-EQlQLvSzlxy5qEPz0RSFpFIwZSuTyXy0]--></g></svg>