<?xml version="1.0" encoding="us-ascii" standalone="no"?><svg xmlns="http://www.w3.org/2000/svg" xmlns:xlink="http://www.w3.org/1999/xlink" contentStyleType="text/css" height="432px" preserveAspectRatio="none" style="width:1542px;height:432px;background:#FFFFFF;" version="1.1" viewBox="0 0 1542 432" width="1542px" zoomAndPan="magnify"><defs/><g><!--cluster GitHub--><g id="cluster_GitHub"><path d="M187.5,127.5 L237.5,127.5 A3.75,3.75 0 0 1 240,130 L247,153.7719 L374.5,153.7719 A2.5,2.5 0 0 1 377,156.2719 L377,230 A2.5,2.5 0 0 1 374.5,232.5 L187.5,232.5 A2.5,2.5 0 0 1 185,230 L185,130 A2.5,2.5 0 0 1 187.5,127.5 " fill="none" style="stroke:#000000;stroke-width:1.5;"/><line style="stroke:#000000;stroke-width:1.5;" x1="185" x2="247" y1="153.7719" y2="153.7719"/><text fill="#000000" font-family="Noto Sans CJK JP" font-size="14" font-weight="bold" lengthAdjust="spacing" textLength="49" x="189" y="145.7399">GitHub</text></g><!--cluster Google Cloud--><g id="cluster_Google Cloud"><path d="M493.5,101.5 L585.5,101.5 A3.75,3.75 0 0 1 588,104 L595,127.7719 L1526,127.7719 A2.5,2.5 0 0 1 1528.5,130.2719 L1528.5,294 A2.5,2.5 0 0 1 1526,296.5 L493.5,296.5 A2.5,2.5 0 0 1 491,294 L491,104 A2.5,2.5 0 0 1 493.5,101.5 " fill="none" style="stroke:#000000;stroke-width:1.5;"/><line style="stroke:#000000;stroke-width:1.5;" x1="491" x2="595" y1="127.7719" y2="127.7719"/><text fill="#000000" font-family="Noto Sans CJK JP" font-size="14" font-weight="bold" lengthAdjust="spacing" textLength="91" x="495" y="119.7399">Google Cloud</text></g><!--cluster Neon--><g id="cluster_Neon"><path d="M1351.5,320.5 L1388.5,320.5 A3.75,3.75 0 0 1 1391,323 L1398,346.7719 L1532.5,346.7719 A2.5,2.5 0 0 1 1535,349.2719 L1535,423 A2.5,2.5 0 0 1 1532.5,425.5 L1351.5,425.5 A2.5,2.5 0 0 1 1349,423 L1349,323 A2.5,2.5 0 0 1 1351.5,320.5 " fill="none" style="stroke:#000000;stroke-width:1.5;"/><line style="stroke:#000000;stroke-width:1.5;" x1="1349" x2="1398" y1="346.7719" y2="346.7719"/><text fill="#000000" font-family="Noto Sans CJK JP" font-size="14" font-weight="bold" lengthAdjust="spacing" textLength="36" x="1353" y="338.7399">Neon</text></g><!--entity GitHubRepo--><g id="elem_GitHubRepo"><rect fill="#F1F1F1" height="50.2719" rx="2.5" ry="2.5" style="stroke:#181818;stroke-width:0.5;" width="160" x="201" y="166.5"/><rect fill="#F1F1F1" height="10" style="stroke:#181818;stroke-width:0.5;" width="15" x="341" y="171.5"/><rect fill="#F1F1F1" height="2" style="stroke:#181818;stroke-width:0.5;" width="4" x="339" y="173.5"/><rect fill="#F1F1F1" height="2" style="stroke:#181818;stroke-width:0.5;" width="4" x="339" y="177.5"/><text fill="#000000" font-family="Noto Sans CJK JP" font-size="14" lengthAdjust="spacing" textLength="120" x="216" y="202.7399">GitHub Repository</text></g><!--entity CloudBuild--><g id="elem_CloudBuild"><rect fill="#F1F1F1" height="50.2719" rx="2.5" ry="2.5" style="stroke:#181818;stroke-width:0.5;" width="117" x="507" y="166.5"/><rect fill="#F1F1F1" height="10" style="stroke:#181818;stroke-width:0.5;" width="15" x="604" y="171.5"/><rect fill="#F1F1F1" height="2" style="stroke:#181818;stroke-width:0.5;" width="4" x="602" y="173.5"/><rect fill="#F1F1F1" height="2" style="stroke:#181818;stroke-width:0.5;" width="4" x="602" y="177.5"/><text fill="#000000" font-family="Noto Sans CJK JP" font-size="14" lengthAdjust="spacing" textLength="77" x="522" y="202.7399">Cloud Build</text></g><!--entity ArtifactRegistry--><g id="elem_ArtifactRegistry"><rect fill="#F1F1F1" height="50.2719" rx="2.5" ry="2.5" style="stroke:#181818;stroke-width:0.5;" width="144" x="819" y="230.5"/><rect fill="#F1F1F1" height="10" style="stroke:#181818;stroke-width:0.5;" width="15" x="943" y="235.5"/><rect fill="#F1F1F1" height="2" style="stroke:#181818;stroke-width:0.5;" width="4" x="941" y="237.5"/><rect fill="#F1F1F1" height="2" style="stroke:#181818;stroke-width:0.5;" width="4" x="941" y="241.5"/><text fill="#000000" font-family="Noto Sans CJK JP" font-size="14" lengthAdjust="spacing" textLength="104" x="834" y="266.7399">Artifact Registry</text></g><!--entity CloudRun--><g id="elem_CloudRun"><rect fill="#F1F1F1" height="50.2719" rx="2.5" ry="2.5" style="stroke:#181818;stroke-width:0.5;" width="109" x="1110" y="209.5"/><rect fill="#F1F1F1" height="10" style="stroke:#181818;stroke-width:0.5;" width="15" x="1199" y="214.5"/><rect fill="#F1F1F1" height="2" style="stroke:#181818;stroke-width:0.5;" width="4" x="1197" y="216.5"/><rect fill="#F1F1F1" height="2" style="stroke:#181818;stroke-width:0.5;" width="4" x="1197" y="220.5"/><text fill="#000000" font-family="Noto Sans CJK JP" font-size="14" lengthAdjust="spacing" textLength="69" x="1125" y="245.7399">Cloud Run</text></g><!--entity Logging--><g id="elem_Logging"><rect fill="#F1F1F1" height="50.2719" rx="2.5" ry="2.5" style="stroke:#181818;stroke-width:0.5;" width="135" x="1374.5" y="228.5"/><rect fill="#F1F1F1" height="10" style="stroke:#181818;stroke-width:0.5;" width="15" x="1489.5" y="233.5"/><rect fill="#F1F1F1" height="2" style="stroke:#181818;stroke-width:0.5;" width="4" x="1487.5" y="235.5"/><rect fill="#F1F1F1" height="2" style="stroke:#181818;stroke-width:0.5;" width="4" x="1487.5" y="239.5"/><text fill="#000000" font-family="Noto Sans CJK JP" font-size="14" lengthAdjust="spacing" textLength="95" x="1389.5" y="264.7399">Cloud Logging</text></g><!--entity SecretManager--><g id="elem_SecretManager"><rect fill="#F1F1F1" height="50.2719" rx="2.5" ry="2.5" style="stroke:#181818;stroke-width:0.5;" width="141" x="1371.5" y="143.5"/><rect fill="#F1F1F1" height="10" style="stroke:#181818;stroke-width:0.5;" width="15" x="1492.5" y="148.5"/><rect fill="#F1F1F1" height="2" style="stroke:#181818;stroke-width:0.5;" width="4" x="1490.5" y="150.5"/><rect fill="#F1F1F1" height="2" style="stroke:#181818;stroke-width:0.5;" width="4" x="1490.5" y="154.5"/><text fill="#000000" font-family="Noto Sans CJK JP" font-size="14" lengthAdjust="spacing" textLength="101" x="1386.5" y="179.7399">Secret Manager</text></g><!--entity NeonPostgreSQL--><g id="elem_NeonPostgreSQL"><rect fill="#F1F1F1" height="50.2719" rx="2.5" ry="2.5" style="stroke:#181818;stroke-width:0.5;" width="154" x="1365" y="359.5"/><rect fill="#F1F1F1" height="10" style="stroke:#181818;stroke-width:0.5;" width="15" x="1499" y="364.5"/><rect fill="#F1F1F1" height="2" style="stroke:#181818;stroke-width:0.5;" width="4" x="1497" y="366.5"/><rect fill="#F1F1F1" height="2" style="stroke:#181818;stroke-width:0.5;" width="4" x="1497" y="370.5"/><text fill="#000000" font-family="Noto Sans CJK JP" font-size="14" lengthAdjust="spacing" textLength="114" x="1380" y="395.7399">Neon PostgreSQL</text></g><!--entity User--><g id="elem_User"><ellipse cx="891" cy="14" fill="#F1F1F1" rx="8" ry="8" style="stroke:#181818;stroke-width:0.5;"/><path d="M891,22 L891,49 M878,30 L904,30 M891,49 L878,64 M891,49 L904,64 " fill="none" style="stroke:#181818;stroke-width:0.5;"/><text fill="#000000" font-family="Noto Sans CJK JP" font-size="14" lengthAdjust="spacing" textLength="30" x="876" y="81.7399">User</text></g><!--entity Developer--><g id="elem_Developer"><ellipse cx="39.5" cy="160" fill="#F1F1F1" rx="8" ry="8" style="stroke:#181818;stroke-width:0.5;"/><path d="M39.5,168 L39.5,195 M26.5,176 L52.5,176 M39.5,195 L26.5,210 M39.5,195 L52.5,210 " fill="none" style="stroke:#181818;stroke-width:0.5;"/><text fill="#000000" font-family="Noto Sans CJK JP" font-size="14" lengthAdjust="spacing" textLength="67" x="6" y="227.7399">Developer</text></g><!--link Developer to GitHubRepo--><g id="link_Developer_GitHubRepo"><path d="M73.3,191.5 C106.03,191.5 151.57,191.5 194.99,191.5 " fill="none" id="Developer-to-GitHubRepo" style="stroke:#181818;stroke-width:1.0;"/><polygon fill="#181818" points="200.99,191.5,191.99,187.5,195.99,191.5,191.99,195.5,200.99,191.5" style="stroke:#181818;stroke-width:1.0;"/><text fill="#000000" font-family="Noto Sans CJK JP" font-size="13" lengthAdjust="spacing" textLength="64" x="104" y="187.58">Push Code</text></g><!--link GitHubRepo to CloudBuild--><g id="link_GitHubRepo_CloudBuild"><path d="M361.07,191.5 C407.42,191.5 458.95,191.5 500.98,191.5 " fill="none" id="GitHubRepo-to-CloudBuild" style="stroke:#181818;stroke-width:1.0;"/><polygon fill="#181818" points="506.98,191.5,497.98,187.5,501.98,191.5,497.98,195.5,506.98,191.5" style="stroke:#181818;stroke-width:1.0;"/><text fill="#000000" font-family="Noto Sans CJK JP" font-size="13" lengthAdjust="spacing" textLength="80" x="394" y="187.58">Trigger CI/CD</text></g><!--link CloudBuild to ArtifactRegistry--><g id="link_CloudBuild_ArtifactRegistry"><path d="M624.34,202.94 C678.77,213.71 754.5342,228.6951 812.9442,240.2551 " fill="none" id="CloudBuild-to-ArtifactRegistry" style="stroke:#181818;stroke-width:1.0;"/><polygon fill="#181818" points="818.83,241.42,810.7778,235.7488,813.9251,240.4493,809.2247,243.5966,818.83,241.42" style="stroke:#181818;stroke-width:1.0;"/><text fill="#000000" font-family="Noto Sans CJK JP" font-size="13" lengthAdjust="spacing" textLength="133" x="655" y="206.58">Push Container Image</text></g><!--link CloudBuild to CloudRun--><g id="link_CloudBuild_CloudRun"><path d="M624.33,184.71 C634.21,183.79 644.39,182.99 654,182.5 C843.58,172.78 893.11,180.21 1080,213.5 C1089.71,215.23 1094.1358,216.0591 1104.0058,218.4291 " fill="none" id="CloudBuild-to-CloudRun" style="stroke:#181818;stroke-width:1.0;"/><polygon fill="#181818" points="1109.84,219.83,1102.0227,213.8392,1104.9782,218.6626,1100.1548,221.6181,1109.84,219.83" style="stroke:#181818;stroke-width:1.0;"/><text fill="#000000" font-family="Noto Sans CJK JP" font-size="13" lengthAdjust="spacing" textLength="83" x="849.5" y="175.58">Deploy Image</text></g><!--link ArtifactRegistry to CloudRun--><g id="link_ArtifactRegistry_CloudRun"><path d="M963.33,249.98 C1009.21,246.43 1061.8779,242.3636 1103.8179,239.1136 " fill="none" id="ArtifactRegistry-to-CloudRun" style="stroke:#181818;stroke-width:1.0;"/><polygon fill="#181818" points="1109.8,238.65,1100.5179,235.3573,1104.8149,239.0363,1101.1359,243.3334,1109.8,238.65" style="stroke:#181818;stroke-width:1.0;"/><text fill="#000000" font-family="Noto Sans CJK JP" font-size="13" lengthAdjust="spacing" textLength="64" x="1004.5" y="237.58">Pull Image</text></g><!--link CloudRun to SecretManager--><g id="link_CloudRun_SecretManager"><path d="M1219.37,220.82 C1229.22,218.35 1239.41,215.83 1249,213.5 C1289.42,203.68 1328.8757,194.4081 1365.3257,185.9381 " fill="none" id="CloudRun-to-SecretManager" style="stroke:#181818;stroke-width:1.0;"/><polygon fill="#181818" points="1371.17,184.58,1361.4982,182.7209,1366.2998,185.7117,1363.3089,190.5133,1371.17,184.58" style="stroke:#181818;stroke-width:1.0;"/><text fill="#000000" font-family="Noto Sans CJK JP" font-size="13" lengthAdjust="spacing" textLength="82" x="1250" y="191.58">Fetch Secrets</text></g><!--link User to CloudRun--><g id="link_User_CloudRun"><path d="M906.47,52.01 C939.11,67.02 1020.25,106.27 1080,151.5 C1102.82,168.77 1121.5987,187.5442 1137.6087,205.0342 " fill="none" id="User-to-CloudRun" style="stroke:#181818;stroke-width:1.0;"/><polygon fill="#181818" points="1141.66,209.46,1138.5336,200.1205,1138.284,205.7719,1132.6326,205.5222,1141.66,209.46" style="stroke:#181818;stroke-width:1.0;"/><text fill="#000000" font-family="Noto Sans CJK JP" font-size="13" lengthAdjust="spacing" textLength="85" x="994" y="93.58">HTTP Request</text></g><!--link CloudRun to NeonPostgreSQL--><g id="link_CloudRun_NeonPostgreSQL"><path d="M1211.61,259.61 C1262.47,287.3 1338.5503,328.7212 1389.4703,356.4412 " fill="none" id="CloudRun-to-NeonPostgreSQL" style="stroke:#181818;stroke-width:1.0;"/><polygon fill="#181818" points="1394.74,359.31,1388.7479,351.4937,1390.3485,356.9194,1384.9229,358.52,1394.74,359.31" style="stroke:#181818;stroke-width:1.0;"/><text fill="#000000" font-family="Noto Sans CJK JP" font-size="13" lengthAdjust="spacing" textLength="62" x="1260" y="278.58">DB Access</text></g><!--link CloudRun to Logging--><g id="link_CloudRun_Logging"><path d="M1219.27,238.21 C1263.67,241.27 1320.8942,245.2174 1368.4742,248.4974 " fill="none" id="CloudRun-to-Logging" style="stroke:#181818;stroke-width:1.0;stroke-dasharray:7.0,7.0;"/><polygon fill="#181818" points="1374.46,248.91,1365.7564,244.3005,1369.4718,248.5661,1365.2062,252.2816,1374.46,248.91" style="stroke:#181818;stroke-width:1.0;"/><text fill="#000000" font-family="Noto Sans CJK JP" font-size="13" lengthAdjust="spacing" textLength="62" x="1260" y="237.58">Send Logs</text></g><!--SRC=[RPBDRXCn4CVlVefHBfnQxXmgjHkLVX4jJNW0iplPM7NinVOYLOW3MOaFbGCdAaweLKzLAKSanDjOLU0j66zskzcaDy_F__cFPppsHAYS6pw55CUya6vNApVWKuJUG3iDGwuiH0U7S13tcCIn0u96P1C7gJ2OEA4LOumdJXjuOT7Knpw-HgbpYbdEanEUaU5JuVQAbprumm0IFSsrGkKQ3CUOQoiezxG7tCA21iZUBdjedKc4IEeYNNEgAEmKGgQLHnLNOLUtRPmOqpkfPYQigoisj84FUHyNgdMcu27DaSuoeR9ALv-xiY4c1XqyuufQCfLkWMhIQNY0Mgqr6Y34shhCuF3vKMKHM8k2noFuz_Li_kstVtVcPvzy-S6NvxxyuMTNxFvxO6DZQsdMy0JYmauWqYco9HnKxJH9DQ8TeAT2jFyuwhEbgw1SdMJhgXmNYjBsfzJSQbepL9BtCPVwj9QjsQs8uqBAMaez-zalN_xniv- -lF5bwSkFyzkB-PVtx3uZf7S6JXwxw999JIrR-5nMyxg-k_t-z-8p2ykzMdblD8ffYLuLQ5tNl_iReQCTs4uIjBRLRMvkDGj2WY6gQdSi-my0]--></g></svg>