<?xml version="1.0" encoding="us-ascii" standalone="no"?><svg xmlns="http://www.w3.org/2000/svg" xmlns:xlink="http://www.w3.org/1999/xlink" contentStyleType="text/css" height="683px" preserveAspectRatio="none" style="width:1162px;height:683px;background:#FFFFFF;" version="1.1" viewBox="0 0 1162 683" width="1162px" zoomAndPan="magnify"><defs/><g><text fill="#000000" font-family="Noto Sans CJK JP" font-size="14" font-weight="bold" lengthAdjust="spacing" textLength="283" x="432.5" y="26.2399">&#20998;&#25955;&#22411;&#22259;&#26360;&#31649;&#29702;&#12450;&#12503;&#12522; &#12450;&#12459;&#12454;&#12531;&#12488;&#30011;&#38754;&#36983;&#31227;&#22259;</text><!--cluster account1--><g id="cluster_account1"><path d="M19.5,311.2719 L605.5,311.2719 A12.5,12.5 0 0 1 618,323.7719 L618,356.8157 L7,356.8157 L7,323.7719 A12.5,12.5 0 0 1 19.5,311.2719 " fill="#F1F1F1" style="stroke:#F1F1F1;stroke-width:1.0;"/><rect fill="none" height="264.5" rx="12.5" ry="12.5" style="stroke:#181818;stroke-width:0.5;" width="611" x="7" y="311.2719"/><line style="stroke:#181818;stroke-width:0.5;" x1="7" x2="618" y1="356.8157" y2="356.8157"/><text fill="#000000" font-family="Noto Sans CJK JP" font-size="14" lengthAdjust="spacing" textLength="154" x="235.5" y="331.5118">&#12450;&#12459;&#12454;&#12531;&#12488;&#21033;&#29992;&#12513;&#12491;&#12517;&#12540;</text><text fill="#000000" font-family="Noto Sans CJK JP" font-size="14" lengthAdjust="spacing" textLength="350" x="139" y="351.7838">&#12518;&#12540;&#12470;&#12540;&#30331;&#37682;&#12539;&#12525;&#12464;&#12452;&#12531;&#12539;&#12525;&#12464;&#12450;&#12454;&#12488;&#12539;&#12497;&#12473;&#12527;&#12540;&#12489;&#22793;&#26356;</text></g><rect fill="#FFE4E1" height="50.5438" rx="12.5" ry="12.5" style="stroke:#181818;stroke-width:0.5;" width="195" x="22.5" y="508.7719"/><text fill="#000000" font-family="Noto Sans CJK JP" font-size="14" lengthAdjust="spacing" textLength="84" x="78" y="530.0118">&#12525;&#12464;&#12452;&#12531;&#30011;&#38754;</text><text fill="#000000" font-family="Noto Sans CJK JP" font-size="14" lengthAdjust="spacing" textLength="182" x="30.5" y="550.2838">&#21517;&#21069;&#12289;&#12497;&#12473;&#12527;&#12540;&#12489;&#12434;&#20837;&#21147;&#12377;&#12427;</text><rect fill="#FFE4E1" height="50.5438" rx="12.5" ry="12.5" style="stroke:#181818;stroke-width:0.5;" width="307" x="75.5" y="370.2719"/><text fill="#000000" font-family="Noto Sans CJK JP" font-size="14" lengthAdjust="spacing" textLength="112" x="173" y="391.5118">&#12518;&#12540;&#12470;&#12540;&#30331;&#37682;&#30011;&#38754;</text><text fill="#000000" font-family="Noto Sans CJK JP" font-size="14" lengthAdjust="spacing" textLength="294" x="83.5" y="411.7838">&#21517;&#21069;&#12289;&#12513;&#12540;&#12523;&#12450;&#12489;&#12524;&#12473;&#12289;&#12497;&#12473;&#12527;&#12540;&#12489;&#12434;&#20837;&#21147;&#12377;&#12427;</text><rect fill="#FFE4E1" height="50.5438" rx="12.5" ry="12.5" style="stroke:#181818;stroke-width:0.5;" width="181" x="417.5" y="370.2719"/><text fill="#000000" font-family="Noto Sans CJK JP" font-size="14" lengthAdjust="spacing" textLength="126" x="445" y="391.5118">&#12497;&#12473;&#12527;&#12540;&#12489;&#22793;&#26356;&#30011;&#38754;</text><text fill="#000000" font-family="Noto Sans CJK JP" font-size="14" lengthAdjust="spacing" textLength="168" x="425.5" y="411.7838">&#12513;&#12540;&#12523;&#12450;&#12489;&#12524;&#12473;&#12434;&#20837;&#21147;&#12377;&#12427;</text><rect fill="#FFFFE0" height="50.5438" rx="12.5" ry="12.5" style="stroke:#181818;stroke-width:0.5;" width="349" x="252.5" y="508.7719"/><text fill="#000000" font-family="Noto Sans CJK JP" font-size="14" lengthAdjust="spacing" textLength="154" x="350" y="530.0118">&#12497;&#12473;&#12527;&#12540;&#12489;&#22793;&#26356;&#30906;&#35469;&#30011;&#38754;</text><text fill="#000000" font-family="Noto Sans CJK JP" font-size="14" lengthAdjust="spacing" textLength="336" x="260.5" y="550.2838">&#12497;&#12473;&#12527;&#12540;&#12489;&#12434;&#22793;&#26356;&#12375;&#12383;&#12392;&#12356;&#12358;&#12513;&#12483;&#12475;&#12540;&#12472;&#12364;&#34920;&#31034;&#12373;&#12428;&#12427;</text><ellipse cx="51" cy="209.7719" fill="#222222" rx="10" ry="10" style="stroke:#222222;stroke-width:1.0;"/><rect fill="#ADD8E6" height="50.5438" rx="12.5" ry="12.5" style="stroke:#181818;stroke-width:0.5;" width="265" x="96.5" y="184.2719"/><text fill="#000000" font-family="Noto Sans CJK JP" font-size="14" lengthAdjust="spacing" textLength="70" x="194" y="205.5118">&#12488;&#12483;&#12503;&#30011;&#38754;</text><text fill="#000000" font-family="Noto Sans CJK JP" font-size="14" lengthAdjust="spacing" textLength="252" x="104.5" y="225.7838">&#12518;&#12540;&#12470;&#12540;&#30331;&#37682;&#12539;&#12525;&#12464;&#12452;&#12531;&#12434;&#36984;&#25246;&#12377;&#12427;&#30011;&#38754;</text><rect fill="#ADD8E6" height="70.8157" rx="12.5" ry="12.5" style="stroke:#181818;stroke-width:0.5;" width="265" x="672.5" y="174.2719"/><text fill="#000000" font-family="Noto Sans CJK JP" font-size="14" lengthAdjust="spacing" textLength="196" x="707" y="195.5118">&#12525;&#12464;&#12452;&#12531;&#12518;&#12540;&#12470;&#12540;&#29992;&#12488;&#12483;&#12503;&#30011;&#38754;</text><text fill="#000000" font-family="Noto Sans CJK JP" font-size="14" lengthAdjust="spacing" textLength="252" x="680.5" y="215.7838">&#19968;&#33324;&#12518;&#12540;&#12470;&#12540;&#12539;&#21496;&#26360;&#12364;&#12525;&#12464;&#12452;&#12531;&#12375;&#12383;&#30011;&#38754;</text><text fill="#000000" font-family="Noto Sans CJK JP" font-size="14" lengthAdjust="spacing" textLength="224" x="694.5" y="236.0557">&#12525;&#12464;&#12450;&#12454;&#12488;&#12539;&#12497;&#12473;&#12527;&#12540;&#12489;&#22793;&#26356;&#12391;&#12365;&#12427;</text><g id="elem_GMN8"><path d="M634,362.7719 L634,429.244 A0,0 0 0 0 634,429.244 L1032,429.244 A0,0 0 0 0 1032,429.244 L1032,372.7719 L1022,362.7719 L832.09,362.7719 L810.27,245.3819 L824.09,362.7719 L634,362.7719 A0,0 0 0 0 634,362.7719 " fill="#FEFFDD" style="stroke:#181818;stroke-width:0.5;"/><path d="M1022,362.7719 L1022,372.7719 L1032,372.7719 L1022,362.7719 " fill="#FEFFDD" style="stroke:#181818;stroke-width:0.5;"/><text fill="#000000" font-family="Noto Sans CJK JP" font-size="13" lengthAdjust="spacing" textLength="312" x="640" y="382.8519">&#12518;&#12540;&#12470;&#12540;&#12398;&#23646;&#24615;&#65288;&#19968;&#33324;&#12518;&#12540;&#12470;&#12540;&#12414;&#12383;&#12399;&#21496;&#26360;&#65289;&#12395;&#12424;&#12426;&#12289;</text><text fill="#000000" font-family="Noto Sans CJK JP" font-size="13" lengthAdjust="spacing" textLength="377" x="640" y="401.6759">&#34920;&#31034;&#20869;&#23481;&#12289;&#36983;&#31227;&#20808;&#12364;&#30064;&#12394;&#12427;&#12290;&#65288;&#12371;&#12398;&#30011;&#38754;&#12399;&#12289;&#20840;&#20307;&#12398;&#30011;&#38754;&#36983;&#31227;&#22259;&#12395;</text><text fill="#000000" font-family="Noto Sans CJK JP" font-size="13" lengthAdjust="spacing" textLength="377" x="640" y="420.5">&#12362;&#12369;&#12427;&#12289;&#19968;&#33324;&#12518;&#12540;&#12470;&#12540;&#29992;&#12488;&#12483;&#12503;&#30011;&#38754;&#12289;&#21496;&#26360;&#29992;&#12488;&#12483;&#12503;&#30011;&#38754;&#12398;&#12371;&#12392;&#65289;</text></g><g id="elem_GMN22"><path d="M63,56.2719 L63,103.9199 A0,0 0 0 0 63,103.9199 L225,103.9199 L229,184.1119 L233,103.9199 L395,103.9199 A0,0 0 0 0 395,103.9199 L395,66.2719 L385,56.2719 L63,56.2719 A0,0 0 0 0 63,56.2719 " fill="#FEFFDD" style="stroke:#181818;stroke-width:0.5;"/><path d="M385,56.2719 L385,66.2719 L395,66.2719 L385,56.2719 " fill="#FEFFDD" style="stroke:#181818;stroke-width:0.5;"/><text fill="#000000" font-family="Noto Sans CJK JP" font-size="13" lengthAdjust="spacing" textLength="143" x="69" y="76.3519">&#12304;&#12504;&#12483;&#12480;&#12540;&#12398;&#20849;&#36890;&#25805;&#20316;&#12305;</text><text fill="#000000" font-family="Noto Sans CJK JP" font-size="13" lengthAdjust="spacing" textLength="299" x="81" y="95.1759">&#24038;&#19978;&#12398;&#12450;&#12503;&#12522;&#21517;&#12434;&#12463;&#12522;&#12483;&#12463;&#12377;&#12427;&#12392;&#12488;&#12483;&#12503;&#30011;&#38754;&#12395;&#25147;&#12427;</text></g><g id="elem_GMN25"><path d="M677.5,47.2719 L677.5,113.744 A0,0 0 0 0 677.5,113.744 L801,113.744 L805,173.9219 L809,113.744 L932.5,113.744 A0,0 0 0 0 932.5,113.744 L932.5,57.2719 L922.5,47.2719 L677.5,47.2719 A0,0 0 0 0 677.5,47.2719 " fill="#FEFFDD" style="stroke:#181818;stroke-width:0.5;"/><path d="M922.5,47.2719 L922.5,57.2719 L932.5,57.2719 L922.5,47.2719 " fill="#FEFFDD" style="stroke:#181818;stroke-width:0.5;"/><text fill="#000000" font-family="Noto Sans CJK JP" font-size="13" lengthAdjust="spacing" textLength="143" x="683.5" y="67.3519">&#12304;&#12504;&#12483;&#12480;&#12540;&#12398;&#20849;&#36890;&#25805;&#20316;&#12305;</text><text fill="#000000" font-family="Noto Sans CJK JP" font-size="13" lengthAdjust="spacing" textLength="221" x="683.5" y="86.1759">&#21491;&#19978;&#12398;&#12450;&#12459;&#12454;&#12531;&#12488;&#21517;&#12434;&#12463;&#12522;&#12483;&#12463;&#12377;&#12427;&#12392;</text><text fill="#000000" font-family="Noto Sans CJK JP" font-size="13" lengthAdjust="spacing" textLength="234" x="683.5" y="105">&#12525;&#12464;&#12452;&#12531;&#12539;&#12497;&#12473;&#12527;&#12540;&#12489;&#22793;&#26356;&#12434;&#36984;&#25246;&#12391;&#12365;&#12427;</text></g><!--link *start* to notLogin--><g id="link_*start*_notLogin"><path d="M61.08,209.7719 C72.78,209.7719 78.48,209.7719 90.17,209.7719 " fill="none" id="*start*-to-notLogin" style="stroke:#181818;stroke-width:1.0;"/><polygon fill="#181818" points="96.17,209.7719,87.17,205.7719,91.17,209.7719,87.17,213.7719,96.17,209.7719" style="stroke:#181818;stroke-width:1.0;"/></g><!--reverse link notLogin to top--><g id="link_notLogin_top"><path d="M367.51,209.7719 C460.69,209.7719 578.88,209.7719 672.14,209.7719 " fill="none" id="notLogin-backto-top" style="stroke:#181818;stroke-width:1.0;"/><polygon fill="#181818" points="361.51,209.7719,370.51,213.7719,366.51,209.7719,370.51,205.7719,361.51,209.7719" style="stroke:#181818;stroke-width:1.0;"/><text fill="#000000" font-family="Noto Sans CJK JP" font-size="13" lengthAdjust="spacing" textLength="247" x="393.5" y="183.8519">&#12450;&#12459;&#12454;&#12531;&#12488;&#21517;&#12434;&#12463;&#12522;&#12483;&#12463;&#8594;&#12525;&#12464;&#12450;&#12454;&#12488;&#36984;&#25246;</text><text fill="#000000" font-family="Noto Sans CJK JP" font-size="13" lengthAdjust="spacing" textLength="221" x="408" y="202.6759">&#19968;&#33324;&#12518;&#12540;&#12470;&#12540;&#12539;&#21496;&#26360;&#12364;&#12525;&#12464;&#12450;&#12454;&#12488;&#12377;&#12427;</text></g><!--link userRegistration to login--><g id="link_userRegistration_login"><path d="M209.26,421.4919 C189.51,446.2319 163.034,479.3734 143.334,504.0434 " fill="none" id="userRegistration-to-login" style="stroke:#181818;stroke-width:1.0;"/><polygon fill="#181818" points="139.59,508.7319,148.3317,504.1951,142.71,504.8248,142.0803,499.2031,139.59,508.7319" style="stroke:#181818;stroke-width:1.0;"/><text fill="#000000" font-family="Noto Sans CJK JP" font-size="13" lengthAdjust="spacing" textLength="91" x="178" y="474.8519">&#12518;&#12540;&#12470;&#12540;&#30331;&#37682;&#24460;</text></g><!--link passwordChange to passwordConfirm--><g id="link_passwordChange_passwordConfirm"><path d="M493.33,421.4919 C478.65,446.2319 459.262,478.9021 444.622,503.5721 " fill="none" id="passwordChange-to-passwordConfirm" style="stroke:#181818;stroke-width:1.0;"/><polygon fill="#181818" points="441.56,508.7319,449.5929,503.0335,444.1117,504.432,442.7131,498.9508,441.56,508.7319" style="stroke:#181818;stroke-width:1.0;"/></g><!--link notLogin to login--><g id="link_notLogin_login"><path d="M144.58,235.4019 C111.56,249.6219 77.09,271.2319 58,303.2719 C29.44,351.1819 43.24,374.9819 58,428.7719 C66.15,458.4719 81.6108,483.4516 96.4508,503.5916 " fill="none" id="notLogin-to-login" style="stroke:#181818;stroke-width:1.0;"/><polygon fill="#181818" points="100.01,508.4219,97.8914,498.8036,97.044,504.3966,91.451,503.5492,100.01,508.4219" style="stroke:#181818;stroke-width:1.0;"/></g><!--link notLogin to userRegistration--><g id="link_notLogin_userRegistration"><path d="M229,235.5919 C229,270.8019 229,328.8919 229,364.0519 " fill="none" id="notLogin-to-userRegistration" style="stroke:#181818;stroke-width:1.0;"/><polygon fill="#181818" points="229,370.0519,233,361.0519,229,365.0519,225,361.0519,229,370.0519" style="stroke:#181818;stroke-width:1.0;"/></g><!--link top to passwordChange--><g id="link_top_passwordChange"><path d="M672.39,231.0919 C618.09,241.8819 563.45,256.7819 544,275.2719 C517.93,300.0619 510.9772,336.9579 508.9972,364.0579 " fill="none" id="top-to-passwordChange" style="stroke:#181818;stroke-width:1.0;"/><polygon fill="#181818" points="508.56,370.0419,513.2052,361.3573,508.9243,365.0552,505.2265,360.7744,508.56,370.0419" style="stroke:#181818;stroke-width:1.0;"/><text fill="#000000" font-family="Noto Sans CJK JP" font-size="13" lengthAdjust="spacing" textLength="260" x="545" y="291.3519">&#12450;&#12459;&#12454;&#12531;&#12488;&#21517;&#12463;&#12522;&#12483;&#12463;&#8594;&#12497;&#12473;&#12527;&#12540;&#12489;&#22793;&#26356;&#36984;&#25246;</text></g><!--link login to top--><g id="link_login_top"><path d="M217.73,511.6719 C223.56,510.6219 229.35,509.6519 235,508.7719 C324.92,494.8219 988.88,496.1819 1050,428.7719 C1087.46,387.4519 1081.72,349.1519 1050,303.2719 C1024.02,265.6819 986.4043,245.1177 943.3443,231.8577 " fill="none" id="login-to-top" style="stroke:#181818;stroke-width:1.0;"/><polygon fill="#181818" points="937.61,230.0919,945.0342,236.5635,942.3886,231.5634,947.3886,228.9178,937.61,230.0919" style="stroke:#181818;stroke-width:1.0;"/><text fill="#000000" font-family="Noto Sans CJK JP" font-size="13" lengthAdjust="spacing" textLength="78" x="1076" y="401.8519">&#12525;&#12464;&#12452;&#12531;&#25104;&#21151;</text></g><rect fill="#DDDDDD" height="70.8157" id="_legend" rx="7.5" ry="7.5" style="stroke:#000000;stroke-width:1.0;" width="302" x="423" y="592.7719"/><text fill="#000000" font-family="Noto Sans CJK JP" font-size="14" lengthAdjust="spacing" textLength="12" x="428" y="614.0118">1.</text><text fill="#000000" font-family="Noto Sans CJK JP" font-size="14" lengthAdjust="spacing" textLength="190" x="444" y="614.0118">LightBlue&#65288;&#38738;&#65289;&#65306;&#12488;&#12483;&#12503;&#30011;&#38754;</text><text fill="#000000" font-family="Noto Sans CJK JP" font-size="14" lengthAdjust="spacing" textLength="12" x="428" y="634.2838">2.</text><text fill="#000000" font-family="Noto Sans CJK JP" font-size="14" lengthAdjust="spacing" textLength="276" x="444" y="634.2838">MistyRose&#65288;&#12500;&#12531;&#12463;&#65289;&#65306;&#12450;&#12459;&#12454;&#12531;&#12488;&#25805;&#20316;&#30011;&#38754;</text><text fill="#000000" font-family="Noto Sans CJK JP" font-size="14" lengthAdjust="spacing" textLength="12" x="428" y="654.5557">3.</text><text fill="#000000" font-family="Noto Sans CJK JP" font-size="14" lengthAdjust="spacing" textLength="202" x="444" y="654.5557">LightYellow&#65288;&#40644;&#33394;&#65289;&#65306;&#30906;&#35469;&#30011;&#38754;</text><!--SRC=[ZLPDJnDH5Ds_N_42EnCMRerXeOaBls9qPTJ524EPE9rfPeOOOqpwPcmpBIK2Gb1H2CX71GKLezMYFyRBQ-cAl-1zxxN3T6OGkcZQphldd7lVlUVMVMHO1StHydHK7zCcJE-ARNatjRnE1sxQdatlQ9PBBr-zHg_U6Y3ZngXEzNp1UuAdtH77A7Y6RH52FCCpTSh3Scl-FL-Qv8jxhSL6UsUbFLq6VnM21GYsgFZaRuE_0S4U165xhjbvjzfXFzgRJGn0b7ld7j0XnyYDUqF3rBAzwtREG7IABzVJF9I4OH04YAU2xriK0eJR1_yxlhTVDpkrhn0q8VW4_cVmrmIJFzjXZLPr2TXhy2TLu03Lt8Y1NhoOm1qUxYUDeSNfvkffFGUDuc7uCNuCzV0N3Qm7i5eV55i0jXnBH3rQbGKAPHOpuF-4O5U2LFXQfRNu3TWci2bCHARWsOKJrOjdGwO-5YyclP2y1JwDOBFW8ycM0F5t_vPd4rfK_SwSN2y3MMz2a5kd3stFi_FK7XEoI1y2s-5Vbbh5pQFzC0EV_S4Y0TjLB4Vx5M0eFWI_2aL63bVgxRLVl5pYEp_nUxUPIiXTQyz_1hQ52g3e8pImbyYa2eHmU9YNwWU_Zt-C6X492B0gi1aPpDAYqXSluAJ0Z4TiHtBNKJlHhL5n5peXlTvAt4RuGIAiG309mJfodQd5Zx-UqZsoQRIH4Nl2yixJfoTrUTIKs1syCeNP9T2mPNXfdLSNrILBMBCtI_qfjLvE7Vn-cvoeP4PPZ2kIQriQI0M2ZqB0cPHCkBfpMyyPhkTemg1E4INVKZ53E3PcRsPIUlcVMiAOCgeTc-siN3AK5pJNVMmxevV7DIkddxMOMTIhlmwtfc82KaNhkic27AywiEV0ob8dUa1JPYjcMWqOi7dmQocHjZLcE7bKgTYwiX8vY3ec8iWpwGhAaQ8wz_-Kl0_SCSBFuc0AFzlH4dQMKI5bQiIC60N-1HeVWrOupQlBf6jXuZdwLxINe3WDmIivwiMkZvM-T8flr1r1SKOr5l-nST2e2XVeBSAqvQeE4DUGz8xjLjWKBeh68KNqQv5UUfeCmb_i7Iluh_L7EaZANh9MqV5cxUwakBz5_ojKcmglkQIDFCevw3tO2ARjP2mkUbri_qlcX9vvF7iOw0tiaYUtRJSpgDUR2lgkRfhsOz60ffuJQhkBYGn6pBWiEkzcqQsFzjya19B1Y4gib61E_h_OxPxDKjUBYv4B_ERpmyfN5HQVL5a_9Opy0m00]--></g></svg>