<?xml version="1.0" encoding="us-ascii" standalone="no"?><svg xmlns="http://www.w3.org/2000/svg" xmlns:xlink="http://www.w3.org/1999/xlink" contentStyleType="text/css" height="604px" preserveAspectRatio="none" style="width:612px;height:604px;background:#FFFFFF;" version="1.1" viewBox="0 0 612 604" width="612px" zoomAndPan="magnify"><defs/><g><!--cluster ??????????--><g id="cluster_&#20998;&#25955;&#22411;&#22259;&#26360;&#31649;&#29702;&#12450;&#12503;&#12522;"><rect fill="none" height="377" rx="2.5" ry="2.5" style="stroke:#181818;stroke-width:1.0;" width="240" x="366" y="221"/><text fill="#000000" font-family="Noto Sans CJK JP" font-size="14" font-weight="bold" lengthAdjust="spacing" textLength="140" x="416" y="239.2399">&#20998;&#25955;&#22411;&#22259;&#26360;&#31649;&#29702;&#12450;&#12503;&#12522;</text></g><!--cluster ?????--><g id="cluster_&#12450;&#12459;&#12454;&#12531;&#12488;"><path d="M392.5,268 L463.5,268 A3.75,3.75 0 0 1 466,270.5 L473,294.2719 L579.5,294.2719 A2.5,2.5 0 0 1 582,296.7719 L582,571.5 A2.5,2.5 0 0 1 579.5,574 L392.5,574 A2.5,2.5 0 0 1 390,571.5 L390,270.5 A2.5,2.5 0 0 1 392.5,268 " fill="none" style="stroke:#000000;stroke-width:1.5;"/><line style="stroke:#000000;stroke-width:1.5;" x1="390" x2="473" y1="294.2719" y2="294.2719"/><text fill="#000000" font-family="Noto Sans CJK JP" font-size="14" font-weight="bold" lengthAdjust="spacing" textLength="70" x="394" y="286.2399">&#12450;&#12459;&#12454;&#12531;&#12488;</text></g><!--cluster ??????????????--><g id="cluster_&#20998;&#25955;&#22411;&#22259;&#26360;&#12450;&#12503;&#12522;&#31649;&#29702;&#12471;&#12473;&#12486;&#12512;"><rect fill="none" height="95" rx="2.5" ry="2.5" style="stroke:#181818;stroke-width:1.0;" width="212" x="380" y="7"/><text fill="#000000" font-family="Noto Sans CJK JP" font-size="14" font-weight="bold" lengthAdjust="spacing" textLength="196" x="388" y="25.2399">&#20998;&#25955;&#22411;&#22259;&#26360;&#12450;&#12503;&#12522;&#31649;&#29702;&#12471;&#12473;&#12486;&#12512;</text></g><g id="elem_&#12518;&#12540;&#12470;&#12540;&#30331;&#37682;"><ellipse cx="485.7886" cy="539.8425" fill="#F1F1F1" rx="73.2886" ry="17.8425" style="stroke:#181818;stroke-width:0.5;"/><text fill="#000000" font-family="Noto Sans CJK JP" font-size="14" lengthAdjust="spacing" textLength="84" x="440.7886" y="545.2125">&#12518;&#12540;&#12470;&#12540;&#30331;&#37682;</text></g><g id="elem_&#12525;&#12464;&#12452;&#12531;"><ellipse cx="486.2322" cy="325.1769" fill="#F1F1F1" rx="52.2322" ry="17.6769" style="stroke:#181818;stroke-width:0.5;"/><text fill="#000000" font-family="Noto Sans CJK JP" font-size="14" lengthAdjust="spacing" textLength="56" x="455.2322" y="330.5469">&#12525;&#12464;&#12452;&#12531;</text></g><g id="elem_&#12525;&#12464;&#12450;&#12454;&#12488;"><ellipse cx="485.759" cy="395.7735" fill="#F1F1F1" rx="62.759" ry="17.7735" style="stroke:#181818;stroke-width:0.5;"/><text fill="#000000" font-family="Noto Sans CJK JP" font-size="14" lengthAdjust="spacing" textLength="70" x="447.759" y="401.1435">&#12525;&#12464;&#12450;&#12454;&#12488;</text></g><g id="elem_&#12497;&#12473;&#12527;&#12540;&#12489;&#22793;&#26356;"><ellipse cx="486.1629" cy="467.9326" fill="#F1F1F1" rx="80.1629" ry="18.4326" style="stroke:#181818;stroke-width:0.5;"/><text fill="#000000" font-family="Noto Sans CJK JP" font-size="14" lengthAdjust="spacing" textLength="98" x="434.1629" y="473.3025">&#12497;&#12473;&#12527;&#12540;&#12489;&#22793;&#26356;</text></g><g id="elem_&#12518;&#12540;&#12470;&#12540;&#23646;&#24615;&#22793;&#26356;"><ellipse cx="486.0433" cy="65.9087" fill="#F1F1F1" rx="85.0433" ry="19.4087" style="stroke:#181818;stroke-width:0.5;"/><text fill="#000000" font-family="Noto Sans CJK JP" font-size="14" lengthAdjust="spacing" textLength="112" x="427.0433" y="71.2786">&#12518;&#12540;&#12470;&#12540;&#23646;&#24615;&#22793;&#26356;</text></g><!--entity loggedInUser--><g id="elem_loggedInUser"><ellipse cx="71" cy="394.5" fill="#F1F1F1" rx="8" ry="8" style="stroke:#181818;stroke-width:0.5;"/><path d="M71,402.5 L71,429.5 M58,410.5 L84,410.5 M71,429.5 L58,444.5 M71,429.5 L84,444.5 " fill="none" style="stroke:#181818;stroke-width:0.5;"/><text fill="#000000" font-family="Noto Sans CJK JP" font-size="14" lengthAdjust="spacing" textLength="112" x="15" y="462.2399">&#12525;&#12464;&#12452;&#12531;&#12518;&#12540;&#12470;&#12540;</text></g><!--entity unloggedUser--><g id="elem_unloggedUser"><ellipse cx="71" cy="214.5" fill="#F1F1F1" rx="8" ry="8" style="stroke:#181818;stroke-width:0.5;"/><path d="M71,222.5 L71,249.5 M58,230.5 L84,230.5 M71,249.5 L58,264.5 M71,249.5 L84,264.5 " fill="none" style="stroke:#181818;stroke-width:0.5;"/><text fill="#000000" font-family="Noto Sans CJK JP" font-size="14" lengthAdjust="spacing" textLength="126" x="8" y="282.2399">&#26410;&#12525;&#12464;&#12452;&#12531;&#12518;&#12540;&#12470;&#12540;</text></g><!--entity guest--><g id="elem_guest"><ellipse cx="71" cy="509.5" fill="#F1F1F1" rx="8" ry="8" style="stroke:#181818;stroke-width:0.5;"/><path d="M71,517.5 L71,544.5 M58,525.5 L84,525.5 M71,544.5 L58,559.5 M71,544.5 L84,559.5 " fill="none" style="stroke:#181818;stroke-width:0.5;"/><text fill="#000000" font-family="Noto Sans CJK JP" font-size="14" lengthAdjust="spacing" textLength="98" x="22" y="577.2399">&#26410;&#30331;&#37682;&#12518;&#12540;&#12470;&#12540;</text></g><!--entity admin--><g id="elem_admin"><ellipse cx="71" cy="34.5" fill="#F1F1F1" rx="8" ry="8" style="stroke:#181818;stroke-width:0.5;"/><path d="M71,42.5 L71,69.5 M58,50.5 L84,50.5 M71,69.5 L58,84.5 M71,69.5 L84,84.5 " fill="none" style="stroke:#181818;stroke-width:0.5;"/><text fill="#000000" font-family="Noto Sans CJK JP" font-size="14" lengthAdjust="spacing" textLength="42" x="50" y="102.2399">&#31649;&#29702;&#32773;</text></g><g id="elem_GMN16"><path d="M6,141.5 L6,170.324 A0,0 0 0 0 6,170.324 L67,170.324 L71,205.92 L75,170.324 L136,170.324 A0,0 0 0 0 136,170.324 L136,151.5 L126,141.5 L6,141.5 A0,0 0 0 0 6,141.5 " fill="#FEFFDD" style="stroke:#181818;stroke-width:0.5;"/><path d="M126,141.5 L126,151.5 L136,151.5 L126,141.5 " fill="#FEFFDD" style="stroke:#181818;stroke-width:0.5;"/><text fill="#000000" font-family="Noto Sans CJK JP" font-size="13" lengthAdjust="spacing" textLength="109" x="12" y="161.58">&#19968;&#33324;&#12518;&#12540;&#12470;&#12540;/&#21496;&#26360;</text></g><g id="elem_GMN19"><path d="M6,321.5 L6,350.324 A0,0 0 0 0 6,350.324 L67,350.324 L71,385.92 L75,350.324 L136,350.324 A0,0 0 0 0 136,350.324 L136,331.5 L126,321.5 L6,321.5 A0,0 0 0 0 6,321.5 " fill="#FEFFDD" style="stroke:#181818;stroke-width:0.5;"/><path d="M126,321.5 L126,331.5 L136,331.5 L126,321.5 " fill="#FEFFDD" style="stroke:#181818;stroke-width:0.5;"/><text fill="#000000" font-family="Noto Sans CJK JP" font-size="13" lengthAdjust="spacing" textLength="109" x="12" y="341.58">&#19968;&#33324;&#12518;&#12540;&#12470;&#12540;/&#21496;&#26360;</text></g><!--link guest to ??????--><g id="link_guest_&#12518;&#12540;&#12470;&#12540;&#30331;&#37682;"><path d="M120.18,540.88 C192.11,540.71 322.06,540.3943 406.16,540.1943 " fill="none" id="guest-to-&#12518;&#12540;&#12470;&#12540;&#30331;&#37682;" style="stroke:#181818;stroke-width:1.0;"/><polygon fill="#181818" points="412.16,540.18,403.1505,536.2014,407.16,540.1919,403.1695,544.2014,412.16,540.18" style="stroke:#181818;stroke-width:1.0;"/><text fill="#000000" font-family="Noto Sans CJK JP" font-size="13" lengthAdjust="spacing" textLength="143" x="186.5" y="517.08">&#19968;&#33324;&#12518;&#12540;&#12470;&#12540;&#12392;&#12375;&#12390;&#30331;&#37682;</text><text fill="#000000" font-family="Noto Sans CJK JP" font-size="13" lengthAdjust="spacing" textLength="182" x="167" y="535.904">&#21496;&#26360;&#12395;&#12394;&#12427;&#12395;&#12399;&#12289;&#31649;&#29702;&#32773;&#12395;&#30003;&#35531;</text></g><!--link unloggedUser to ????--><g id="link_unloggedUser_&#12525;&#12464;&#12452;&#12531;"><path d="M134.28,257.91 C218.44,274.01 360.5568,301.1927 434.4768,315.3327 " fill="none" id="unloggedUser-to-&#12525;&#12464;&#12452;&#12531;" style="stroke:#181818;stroke-width:1.0;"/><polygon fill="#181818" points="440.37,316.46,432.2818,310.8403,435.459,315.5206,430.7787,318.6978,440.37,316.46" style="stroke:#181818;stroke-width:1.0;"/></g><!--link loggedInUser to ?????--><g id="link_loggedInUser_&#12525;&#12464;&#12450;&#12454;&#12488;"><path d="M127.27,421.99 C204.64,416.37 338.7258,406.6247 418.7158,400.8147 " fill="none" id="loggedInUser-to-&#12525;&#12464;&#12450;&#12454;&#12488;" style="stroke:#181818;stroke-width:1.0;"/><polygon fill="#181818" points="424.7,400.38,415.4339,397.0425,419.7131,400.7422,416.0134,405.0215,424.7,400.38" style="stroke:#181818;stroke-width:1.0;"/></g><!--link loggedInUser to ???????--><g id="link_loggedInUser_&#12497;&#12473;&#12527;&#12540;&#12489;&#22793;&#26356;"><path d="M127.27,431.62 C200.79,439.1 324.9708,451.7228 406.3708,460.0028 " fill="none" id="loggedInUser-to-&#12497;&#12473;&#12527;&#12540;&#12489;&#22793;&#26356;" style="stroke:#181818;stroke-width:1.0;"/><polygon fill="#181818" points="412.34,460.61,403.791,455.7198,407.3657,460.104,402.9814,463.6787,412.34,460.61" style="stroke:#181818;stroke-width:1.0;"/></g><!--link admin to ????????--><g id="link_admin_&#12518;&#12540;&#12470;&#12540;&#23646;&#24615;&#22793;&#26356;"><path d="M92.2,66 C147.34,66 296.87,66 394.87,66 " fill="none" id="admin-to-&#12518;&#12540;&#12470;&#12540;&#23646;&#24615;&#22793;&#26356;" style="stroke:#181818;stroke-width:1.0;"/><polygon fill="#181818" points="400.87,66,391.87,62,395.87,66,391.87,70,400.87,66" style="stroke:#181818;stroke-width:1.0;"/></g><!--SRC=[ZL9BIoD14BxthoXoqaFmlWSl2u8A8YpUzj9aEkEGf2VCT4woa9bcGoJ2hg28HCGNKP9TNn6DkF-cTYRPVx7TCtbCuYXsGzDyzTNZgogtOF4oTMW939QdbQ9OihbOeoK6cJLRsF25SXS-hwp2odg655bUW08TozmKO5WEomdBveJGdB0TGFaR_LlqBr1sKRPG_a7_KRr0NIZQficCPRxXCWU6_F2e_PvBXSTEscNYqJzy-RTpFyirAymLephwrwVzdxL1zRksKADagGfrgPIRHQKhgDV2_VFWk14qks6p5xFHFqDvWBATWIrIfha2DHLLetu7_LPKNbtR0EQIoUDovcDuecKAE8i2r8VOBlhFA6zq1BaTN6o7pOTvyarTTI8PaCqkfYQ1J_2tLntKVoLjw5sXTu1UAoPzvS6FdbA5NWUzDlgDw7E3LM_S5ONqzxg3JeCaEppAcjH0fgOsHHXhIgEaIYJS5anjJndiFCmbK-l6G8gqXLWAOTm0xJmJ8fdvuo7UNeJn2emsuYcIKKDvaZBuuEuuh5vEvaUYHNizkscUFly1]--></g></svg>