<?xml version="1.0" encoding="us-ascii" standalone="no"?><svg xmlns="http://www.w3.org/2000/svg" xmlns:xlink="http://www.w3.org/1999/xlink" contentStyleType="text/css" height="430px" preserveAspectRatio="none" style="width:736px;height:430px;background:#FFFFFF;" version="1.1" viewBox="0 0 736 430" width="736px" zoomAndPan="magnify"><defs/><g><!--cluster ??????????--><g id="cluster_&#20998;&#25955;&#22411;&#22259;&#26360;&#31649;&#29702;&#12450;&#12503;&#12522;"><rect fill="none" height="163" rx="2.5" ry="2.5" style="stroke:#181818;stroke-width:1.0;" width="723" x="7" y="261"/><text fill="#000000" font-family="Noto Sans CJK JP" font-size="14" font-weight="bold" lengthAdjust="spacing" textLength="140" x="298.5" y="279.2399">&#20998;&#25955;&#22411;&#22259;&#26360;&#31649;&#29702;&#12450;&#12503;&#12522;</text></g><!--cluster ?????--><g id="cluster_&#12450;&#12459;&#12454;&#12531;&#12488;"><path d="M33.5,308 L104.5,308 A3.75,3.75 0 0 1 107,310.5 L114,334.2719 L703.5,334.2719 A2.5,2.5 0 0 1 706,336.7719 L706,397.5 A2.5,2.5 0 0 1 703.5,400 L33.5,400 A2.5,2.5 0 0 1 31,397.5 L31,310.5 A2.5,2.5 0 0 1 33.5,308 " fill="none" style="stroke:#000000;stroke-width:1.5;"/><line style="stroke:#000000;stroke-width:1.5;" x1="31" x2="114" y1="334.2719" y2="334.2719"/><text fill="#000000" font-family="Noto Sans CJK JP" font-size="14" font-weight="bold" lengthAdjust="spacing" textLength="70" x="35" y="326.2399">&#12450;&#12459;&#12454;&#12531;&#12488;</text></g><g id="elem_&#12518;&#12540;&#12470;&#12540;&#30331;&#37682;"><ellipse cx="259.7886" cy="365.3425" fill="#F1F1F1" rx="73.2886" ry="17.8425" style="stroke:#181818;stroke-width:0.5;"/><text fill="#000000" font-family="Noto Sans CJK JP" font-size="14" lengthAdjust="spacing" textLength="84" x="214.7886" y="370.7125">&#12518;&#12540;&#12470;&#12540;&#30331;&#37682;</text></g><g id="elem_&#12525;&#12464;&#12452;&#12531;"><ellipse cx="99.2322" cy="365.6769" fill="#F1F1F1" rx="52.2322" ry="17.6769" style="stroke:#181818;stroke-width:0.5;"/><text fill="#000000" font-family="Noto Sans CJK JP" font-size="14" lengthAdjust="spacing" textLength="56" x="68.2322" y="371.0469">&#12525;&#12464;&#12452;&#12531;</text></g><g id="elem_&#12525;&#12464;&#12450;&#12454;&#12488;"><ellipse cx="431.759" cy="365.2735" fill="#F1F1F1" rx="62.759" ry="17.7735" style="stroke:#181818;stroke-width:0.5;"/><text fill="#000000" font-family="Noto Sans CJK JP" font-size="14" lengthAdjust="spacing" textLength="70" x="393.759" y="370.6435">&#12525;&#12464;&#12450;&#12454;&#12488;</text></g><g id="elem_&#12497;&#12473;&#12527;&#12540;&#12489;&#22793;&#26356;"><ellipse cx="610.1629" cy="365.4326" fill="#F1F1F1" rx="80.1629" ry="18.4326" style="stroke:#181818;stroke-width:0.5;"/><text fill="#000000" font-family="Noto Sans CJK JP" font-size="14" lengthAdjust="spacing" textLength="98" x="558.1629" y="370.8025">&#12497;&#12473;&#12527;&#12540;&#12489;&#22793;&#26356;</text></g><!--entity loggedInUser--><g id="elem_loggedInUser"><ellipse cx="548" cy="104.5" fill="#F1F1F1" rx="8" ry="8" style="stroke:#181818;stroke-width:0.5;"/><path d="M548,112.5 L548,139.5 M535,120.5 L561,120.5 M548,139.5 L535,154.5 M548,139.5 L561,154.5 " fill="none" style="stroke:#181818;stroke-width:0.5;"/><text fill="#000000" font-family="Noto Sans CJK JP" font-size="14" lengthAdjust="spacing" textLength="112" x="492" y="172.2399">&#12525;&#12464;&#12452;&#12531;&#12518;&#12540;&#12470;&#12540;</text></g><!--entity unloggedUser--><g id="elem_unloggedUser"><ellipse cx="99" cy="104.5" fill="#F1F1F1" rx="8" ry="8" style="stroke:#181818;stroke-width:0.5;"/><path d="M99,112.5 L99,139.5 M86,120.5 L112,120.5 M99,139.5 L86,154.5 M99,139.5 L112,154.5 " fill="none" style="stroke:#181818;stroke-width:0.5;"/><text fill="#000000" font-family="Noto Sans CJK JP" font-size="14" lengthAdjust="spacing" textLength="126" x="36" y="172.2399">&#26410;&#12525;&#12464;&#12452;&#12531;&#12518;&#12540;&#12470;&#12540;</text></g><!--entity guest--><g id="elem_guest"><ellipse cx="260" cy="104.5" fill="#F1F1F1" rx="8" ry="8" style="stroke:#181818;stroke-width:0.5;"/><path d="M260,112.5 L260,139.5 M247,120.5 L273,120.5 M260,139.5 L247,154.5 M260,139.5 L273,154.5 " fill="none" style="stroke:#181818;stroke-width:0.5;"/><text fill="#000000" font-family="Noto Sans CJK JP" font-size="14" lengthAdjust="spacing" textLength="98" x="211" y="172.2399">&#26410;&#30331;&#37682;&#12518;&#12540;&#12470;&#12540;</text></g><g id="elem_GMN15"><path d="M34,6 L34,34.824 A0,0 0 0 0 34,34.824 L95,34.824 L99,95.58 L103,34.824 L164,34.824 A0,0 0 0 0 164,34.824 L164,16 L154,6 L34,6 A0,0 0 0 0 34,6 " fill="#FEFFDD" style="stroke:#181818;stroke-width:0.5;"/><path d="M154,6 L154,16 L164,16 L154,6 " fill="#FEFFDD" style="stroke:#181818;stroke-width:0.5;"/><text fill="#000000" font-family="Noto Sans CJK JP" font-size="13" lengthAdjust="spacing" textLength="109" x="40" y="26.08">&#19968;&#33324;&#12518;&#12540;&#12470;&#12540;/&#21496;&#26360;</text></g><g id="elem_GMN18"><path d="M483,6 L483,34.824 A0,0 0 0 0 483,34.824 L544,34.824 L548,95.58 L552,34.824 L613,34.824 A0,0 0 0 0 613,34.824 L613,16 L603,6 L483,6 A0,0 0 0 0 483,6 " fill="#FEFFDD" style="stroke:#181818;stroke-width:0.5;"/><path d="M603,6 L603,16 L613,16 L603,6 " fill="#FEFFDD" style="stroke:#181818;stroke-width:0.5;"/><text fill="#000000" font-family="Noto Sans CJK JP" font-size="13" lengthAdjust="spacing" textLength="109" x="489" y="26.08">&#19968;&#33324;&#12518;&#12540;&#12470;&#12540;/&#21496;&#26360;</text></g><!--link guest to ??????--><g id="link_guest_&#12518;&#12540;&#12470;&#12540;&#30331;&#37682;"><path d="M260,176.11 C260,226.29 260,305.17 260,341.34 " fill="none" id="guest-to-&#12518;&#12540;&#12470;&#12540;&#30331;&#37682;" style="stroke:#181818;stroke-width:1.0;"/><polygon fill="#181818" points="260,347.34,264,338.34,260,342.34,256,338.34,260,347.34" style="stroke:#181818;stroke-width:1.0;"/><text fill="#000000" font-family="Noto Sans CJK JP" font-size="13" lengthAdjust="spacing" textLength="143" x="291" y="222.08">&#19968;&#33324;&#12518;&#12540;&#12470;&#12540;&#12392;&#12375;&#12390;&#30331;&#37682;</text><text fill="#000000" font-family="Noto Sans CJK JP" font-size="13" lengthAdjust="spacing" textLength="203" x="261" y="240.904">&#21496;&#26360;&#12395;&#12394;&#12427;&#12395;&#12399;&#12289;superuser&#12395;&#30003;&#35531;</text></g><!--link unloggedUser to ????--><g id="link_unloggedUser_&#12525;&#12464;&#12452;&#12531;"><path d="M99,176.11 C99,226.54 99,306.03 99,341.89 " fill="none" id="unloggedUser-to-&#12525;&#12464;&#12452;&#12531;" style="stroke:#181818;stroke-width:1.0;"/><polygon fill="#181818" points="99,347.89,103,338.89,99,342.89,95,338.89,99,347.89" style="stroke:#181818;stroke-width:1.0;"/></g><!--link loggedInUser to ?????--><g id="link_loggedInUser_&#12525;&#12464;&#12450;&#12454;&#12488;"><path d="M528.06,176.11 C502.41,226.42 461.6948,306.2544 443.3348,342.2744 " fill="none" id="loggedInUser-to-&#12525;&#12464;&#12450;&#12454;&#12488;" style="stroke:#181818;stroke-width:1.0;"/><polygon fill="#181818" points="440.61,347.62,448.2609,341.4181,442.8806,343.1653,441.1334,337.7851,440.61,347.62" style="stroke:#181818;stroke-width:1.0;"/></g><!--link loggedInUser to ???????--><g id="link_loggedInUser_&#12497;&#12473;&#12527;&#12540;&#12489;&#22793;&#26356;"><path d="M558.66,176.11 C572.26,226.04 593.6526,304.5211 603.5926,341.0011 " fill="none" id="loggedInUser-to-&#12497;&#12473;&#12527;&#12540;&#12489;&#22793;&#26356;" style="stroke:#181818;stroke-width:1.0;"/><polygon fill="#181818" points="605.17,346.79,606.6633,337.055,603.8555,341.9659,598.9447,339.1582,605.17,346.79" style="stroke:#181818;stroke-width:1.0;"/></g><!--SRC=[ZL5TIm9157sVNt7nIH-aznvw2O8C8eZUUXbqN4ATMVRZAG9t1sJ5e892mWWoaT3Ao0YZ_irjT-rVj1-MgomH0yDmxZdtt7D7hnnmbMgq1YLMfcRLs13SsAOr1fbjOGZOfLo7zS8M57OoXD2Y8JH0-O3s4zezb6EKVPGVQBy6Dr0Tga9HM6cJx-bCWndVknhy9J5vB0ebSuL_-Vvr_BpCLKoc6uHeh6XGhbI3ALsduLtSkjSjjpFsEXF_ySO_RQ3THTb6ESZ08L5fiKALW1gYzX3jVZI44zO0iacBs3GNm_E95u1krC2POMTelw4SXHraq-qrlSvBZXm5Xv1eLiZdrr8zO1K-9_MfSv-ieNM7LXkjVapQv-x990Y5rX2j0Tgjw372kgMRAjFCO641uf-FfyCMIQxnnpKPWInypGBXDr8Q9JKXuS9WO0WLH1coIUjmBv0IRIMEGXWlGIXUQf5q_dUBRm00]--></g></svg>