<?xml version="1.0" encoding="us-ascii" standalone="no"?><svg xmlns="http://www.w3.org/2000/svg" xmlns:xlink="http://www.w3.org/1999/xlink" contentStyleType="text/css" height="205px" preserveAspectRatio="none" style="width:817px;height:205px;background:#FFFFFF;" version="1.1" viewBox="0 0 817 205" width="817px" zoomAndPan="magnify"><defs/><g><!--cluster ??????????--><g id="cluster_&#20998;&#25955;&#22411;&#22259;&#26360;&#31649;&#29702;&#12450;&#12503;&#12522;"><path d="M8.5,106.5 L149.5,106.5 A3.75,3.75 0 0 1 152,109 L159,132.7719 L807.5,132.7719 A2.5,2.5 0 0 1 810,135.2719 L810,196 A2.5,2.5 0 0 1 807.5,198.5 L8.5,198.5 A2.5,2.5 0 0 1 6,196 L6,109 A2.5,2.5 0 0 1 8.5,106.5 " fill="none" style="stroke:#000000;stroke-width:1.5;"/><line style="stroke:#000000;stroke-width:1.5;" x1="6" x2="159" y1="132.7719" y2="132.7719"/><text fill="#000000" font-family="Noto Sans CJK JP" font-size="14" font-weight="bold" lengthAdjust="spacing" textLength="140" x="10" y="124.7399">&#20998;&#25955;&#22411;&#22259;&#26360;&#31649;&#29702;&#12450;&#12503;&#12522;</text></g><g id="elem_&#12450;&#12459;&#12454;&#12531;&#12488;&#27231;&#33021;"><ellipse cx="241.1629" cy="163.9326" fill="#F1F1F1" rx="80.1629" ry="18.4326" style="stroke:#181818;stroke-width:0.5;"/><text fill="#000000" font-family="Noto Sans CJK JP" font-size="14" lengthAdjust="spacing" textLength="98" x="189.1629" y="169.3025">&#12450;&#12459;&#12454;&#12531;&#12488;&#27231;&#33021;</text></g><g id="elem_&#26412;&#12398;&#30331;&#37682;"><ellipse cx="74.2322" cy="164.1769" fill="#F1F1F1" rx="52.2322" ry="17.6769" style="stroke:#181818;stroke-width:0.5;"/><text fill="#000000" font-family="Noto Sans CJK JP" font-size="14" lengthAdjust="spacing" textLength="56" x="43.2322" y="169.5469">&#26412;&#12398;&#30331;&#37682;</text></g><g id="elem_&#26412;&#12398;&#26908;&#32034;"><ellipse cx="408.2322" cy="164.1769" fill="#F1F1F1" rx="52.2322" ry="17.6769" style="stroke:#181818;stroke-width:0.5;"/><text fill="#000000" font-family="Noto Sans CJK JP" font-size="14" lengthAdjust="spacing" textLength="56" x="377.2322" y="169.5469">&#26412;&#12398;&#26908;&#32034;</text></g><g id="elem_&#26412;&#12398;&#36024;&#20986;&#12539;&#20104;&#32004;"><ellipse cx="714.1629" cy="163.9326" fill="#F1F1F1" rx="80.1629" ry="18.4326" style="stroke:#181818;stroke-width:0.5;"/><text fill="#000000" font-family="Noto Sans CJK JP" font-size="14" lengthAdjust="spacing" textLength="98" x="662.1629" y="169.3025">&#26412;&#12398;&#36024;&#20986;&#12539;&#20104;&#32004;</text></g><g id="elem_&#26412;&#12398;&#36820;&#21364;"><ellipse cx="547.2322" cy="164.1769" fill="#F1F1F1" rx="52.2322" ry="17.6769" style="stroke:#181818;stroke-width:0.5;"/><text fill="#000000" font-family="Noto Sans CJK JP" font-size="14" lengthAdjust="spacing" textLength="56" x="516.2322" y="169.5469">&#26412;&#12398;&#36820;&#21364;</text></g><!--entity ??--><g id="elem_&#21496;&#26360;"><ellipse cx="158" cy="14" fill="#F1F1F1" rx="8" ry="8" style="stroke:#181818;stroke-width:0.5;"/><path d="M158,22 L158,49 M145,30 L171,30 M158,49 L145,64 M158,49 L171,64 " fill="none" style="stroke:#181818;stroke-width:0.5;"/><text fill="#000000" font-family="Noto Sans CJK JP" font-size="14" lengthAdjust="spacing" textLength="28" x="144" y="81.7399">&#21496;&#26360;</text></g><!--entity ????--><g id="elem_&#12518;&#12540;&#12470;&#12540;"><ellipse cx="477" cy="14" fill="#F1F1F1" rx="8" ry="8" style="stroke:#181818;stroke-width:0.5;"/><path d="M477,22 L477,49 M464,30 L490,30 M477,49 L464,64 M477,49 L490,64 " fill="none" style="stroke:#181818;stroke-width:0.5;"/><text fill="#000000" font-family="Noto Sans CJK JP" font-size="14" lengthAdjust="spacing" textLength="56" x="449" y="81.7399">&#12518;&#12540;&#12470;&#12540;</text></g><!--link ?? to ???????--><g id="link_&#21496;&#26360;_&#12450;&#12459;&#12454;&#12531;&#12488;&#27231;&#33021;"><path d="M172.08,66.26 C187.9,88.46 209.848,119.2837 224.998,140.5437 " fill="none" id="&#21496;&#26360;-to-&#12450;&#12459;&#12454;&#12531;&#12488;&#27231;&#33021;" style="stroke:#181818;stroke-width:1.0;"/><polygon fill="#181818" points="228.48,145.43,226.5145,135.7793,225.5783,141.3581,219.9995,140.4219,228.48,145.43" style="stroke:#181818;stroke-width:1.0;"/></g><!--link ???? to ???????--><g id="link_&#12518;&#12540;&#12470;&#12540;_&#12450;&#12459;&#12454;&#12531;&#12488;&#27231;&#33021;"><path d="M448.73,55.11 C420.28,64.24 375.5,79.9 339,98.5 C311.78,112.37 287.6697,128.611 268.3497,142.601 " fill="none" id="&#12518;&#12540;&#12470;&#12540;-to-&#12450;&#12459;&#12454;&#12531;&#12488;&#27231;&#33021;" style="stroke:#181818;stroke-width:1.0;"/><polygon fill="#181818" points="263.49,146.12,273.1255,144.0813,267.5397,143.1875,268.4335,137.6017,263.49,146.12" style="stroke:#181818;stroke-width:1.0;"/></g><!--link ?? to ????--><g id="link_&#21496;&#26360;_&#26412;&#12398;&#30331;&#37682;"><path d="M143.94,66 C127.59,88.67 104.4176,120.8021 89.1776,141.9521 " fill="none" id="&#21496;&#26360;-to-&#26412;&#12398;&#30331;&#37682;" style="stroke:#181818;stroke-width:1.0;"/><polygon fill="#181818" points="85.67,146.82,94.1767,141.8566,88.593,142.7634,87.6862,137.1797,85.67,146.82" style="stroke:#181818;stroke-width:1.0;"/></g><!--link ???? to ????--><g id="link_&#12518;&#12540;&#12470;&#12540;_&#26412;&#12398;&#26908;&#32034;"><path d="M453.83,85.62 C441.54,106.37 430.149,125.6184 420.809,141.3784 " fill="none" id="&#12518;&#12540;&#12470;&#12540;-to-&#26412;&#12398;&#26908;&#32034;" style="stroke:#181818;stroke-width:1.0;"/><polygon fill="#181818" points="417.75,146.54,425.7796,140.8369,420.2992,142.2386,418.8974,136.7582,417.75,146.54" style="stroke:#181818;stroke-width:1.0;"/></g><!--link ???? to ???????--><g id="link_&#12518;&#12540;&#12470;&#12540;_&#26412;&#12398;&#36024;&#20986;&#12539;&#20104;&#32004;"><path d="M505.16,54.84 C534.02,63.87 579.81,79.55 617,98.5 C644.03,112.27 667.8541,128.4984 686.9441,142.5184 " fill="none" id="&#12518;&#12540;&#12470;&#12540;-to-&#26412;&#12398;&#36024;&#20986;&#12539;&#20104;&#32004;" style="stroke:#181818;stroke-width:1.0;"/><polygon fill="#181818" points="691.78,146.07,686.8938,137.5187,687.7501,143.1103,682.1584,143.9666,691.78,146.07" style="stroke:#181818;stroke-width:1.0;"/></g><!--link ???? to ????--><g id="link_&#12518;&#12540;&#12470;&#12540;_&#26412;&#12398;&#36820;&#21364;"><path d="M500.5,85.62 C512.98,106.37 524.5497,125.6371 534.0197,141.3971 " fill="none" id="&#12518;&#12540;&#12470;&#12540;-to-&#26412;&#12398;&#36820;&#21364;" style="stroke:#181818;stroke-width:1.0;"/><polygon fill="#181818" points="537.11,146.54,535.9031,136.7654,534.5347,142.2542,529.0459,140.8858,537.11,146.54" style="stroke:#181818;stroke-width:1.0;"/></g><!--SRC=[AyxEp2j8B4hCLKX9JKiipIbnoyyhyKlCJLLGyiiloLS8JimhLd3sybRm2b3YIamkoIzIUDg_uzdi7L3Eu-PbZvltF6xQ1YIvk0eIaxCJqu5wdtQqFPkw-EcyxgUpDmCLFr-tyFc4jiTDYnutJt_Sl4f9ePeBOeg2hgwTWWP8ecdruoQWKPiVDtSyMpd_HVDUJIvai_4gH3RhsPmrZnlNFP-v-sNF9cn6GEIVBPdpVCiYtF8lDkrushxhSVFk9xiwdczfmQDm_vIdlLiqkMe1]--></g></svg>