<?xml version="1.0" encoding="us-ascii" standalone="no"?><svg xmlns="http://www.w3.org/2000/svg" xmlns:xlink="http://www.w3.org/1999/xlink" contentStyleType="text/css" height="718px" preserveAspectRatio="none" style="width:1188px;height:718px;background:#FFFFFF;" version="1.1" viewBox="0 0 1188 718" width="1188px" zoomAndPan="magnify"><defs/><g><!--cluster ??????????--><g id="cluster_&#20998;&#25955;&#22411;&#22259;&#26360;&#31649;&#29702;&#12450;&#12503;&#12522;"><rect fill="none" height="705" rx="2.5" ry="2.5" style="stroke:#181818;stroke-width:1.0;" width="627" x="137" y="7"/><text fill="#000000" font-family="Noto Sans CJK JP" font-size="14" font-weight="bold" lengthAdjust="spacing" textLength="140" x="380.5" y="25.2399">&#20998;&#25955;&#22411;&#22259;&#26360;&#31649;&#29702;&#12450;&#12503;&#12522;</text></g><!--cluster ????--><g id="cluster_&#26412;&#12398;&#31649;&#29702;"><path d="M221.5,54 L278.5,54 A3.75,3.75 0 0 1 281,56.5 L288,80.2719 L737.5,80.2719 A2.5,2.5 0 0 1 740,82.7719 L740,161.5 A2.5,2.5 0 0 1 737.5,164 L221.5,164 A2.5,2.5 0 0 1 219,161.5 L219,56.5 A2.5,2.5 0 0 1 221.5,54 " fill="none" style="stroke:#000000;stroke-width:1.5;"/><line style="stroke:#000000;stroke-width:1.5;" x1="219" x2="288" y1="80.2719" y2="80.2719"/><text fill="#000000" font-family="Noto Sans CJK JP" font-size="14" font-weight="bold" lengthAdjust="spacing" textLength="56" x="223" y="72.2399">&#26412;&#12398;&#31649;&#29702;</text></g><!--cluster ????--><g id="cluster_&#26412;&#12398;&#21033;&#29992;"><path d="M163.5,188 L220.5,188 A3.75,3.75 0 0 1 223,190.5 L230,214.2719 L453.5,214.2719 A2.5,2.5 0 0 1 456,216.7719 L456,685.5 A2.5,2.5 0 0 1 453.5,688 L163.5,688 A2.5,2.5 0 0 1 161,685.5 L161,190.5 A2.5,2.5 0 0 1 163.5,188 " fill="none" style="stroke:#000000;stroke-width:1.5;"/><line style="stroke:#000000;stroke-width:1.5;" x1="161" x2="230" y1="214.2719" y2="214.2719"/><text fill="#000000" font-family="Noto Sans CJK JP" font-size="14" font-weight="bold" lengthAdjust="spacing" textLength="56" x="165" y="206.2399">&#26412;&#12398;&#21033;&#29992;</text></g><!--cluster Google Books API--><g id="cluster_Google Books API"><rect fill="none" height="126" rx="2.5" ry="2.5" style="stroke:#181818;stroke-width:1.0;" width="174" x="938.5" y="48"/><text fill="#000000" font-family="Noto Sans CJK JP" font-size="14" font-weight="bold" lengthAdjust="spacing" textLength="120" x="965.5" y="66.2399">Google Books API</text></g><g id="elem_&#26412;&#12434;&#30331;&#37682;&#12377;&#12427;"><ellipse cx="308.2886" cy="112.8425" fill="#F1F1F1" rx="73.2886" ry="17.8425" style="stroke:#181818;stroke-width:0.5;"/><text fill="#000000" font-family="Noto Sans CJK JP" font-size="14" lengthAdjust="spacing" textLength="84" x="263.2886" y="118.2125">&#26412;&#12434;&#30331;&#37682;&#12377;&#12427;</text></g><g id="elem_ISBN&#12434;&#20837;&#21147;&#12377;&#12427;"><ellipse cx="643.1816" cy="113.1363" fill="#F1F1F1" rx="81.1816" ry="18.6363" style="stroke:#181818;stroke-width:0.5;"/><text fill="#000000" font-family="Noto Sans CJK JP" font-size="14" lengthAdjust="spacing" textLength="101" x="589.6816" y="118.5063">ISBN&#12434;&#20837;&#21147;&#12377;&#12427;</text></g><g id="elem_&#26412;&#12434;&#26908;&#32034;&#12377;&#12427;"><ellipse cx="308.2886" cy="244.8425" fill="#F1F1F1" rx="73.2886" ry="17.8425" style="stroke:#181818;stroke-width:0.5;"/><text fill="#000000" font-family="Noto Sans CJK JP" font-size="14" lengthAdjust="spacing" textLength="84" x="263.2886" y="250.2125">&#26412;&#12434;&#26908;&#32034;&#12377;&#12427;</text></g><g id="elem_&#26412;&#12398;&#35443;&#32048;&#24773;&#22577;&#12434;&#30906;&#35469;&#12377;&#12427;"><ellipse cx="308.735" cy="321.147" fill="#F1F1F1" rx="101.235" ry="22.647" style="stroke:#181818;stroke-width:0.5;"/><text fill="#000000" font-family="Noto Sans CJK JP" font-size="14" lengthAdjust="spacing" textLength="154" x="228.735" y="326.517">&#26412;&#12398;&#35443;&#32048;&#24773;&#22577;&#12434;&#30906;&#35469;&#12377;&#12427;</text></g><g id="elem_&#36024;&#20986;&#12539;&#20104;&#32004;&#12377;&#12427;"><ellipse cx="308.6629" cy="396.9326" fill="#F1F1F1" rx="80.1629" ry="18.4326" style="stroke:#181818;stroke-width:0.5;"/><text fill="#000000" font-family="Noto Sans CJK JP" font-size="14" lengthAdjust="spacing" textLength="98" x="256.6629" y="402.3025">&#36024;&#20986;&#12539;&#20104;&#32004;&#12377;&#12427;</text></g><g id="elem_&#33258;&#20998;&#12364;&#36024;&#20986;&#12539;&#20104;&#32004;&#20013;&#12398;&#26412;&#12434;&#30906;&#35469;&#12377;&#12427;"><ellipse cx="308.4429" cy="479.1886" fill="#F1F1F1" rx="131.4429" ry="28.6886" style="stroke:#181818;stroke-width:0.5;"/><text fill="#000000" font-family="Noto Sans CJK JP" font-size="14" lengthAdjust="spacing" textLength="224" x="195.5483" y="483.7092">&#33258;&#20998;&#12364;&#36024;&#20986;&#12539;&#20104;&#32004;&#20013;&#12398;&#26412;&#12434;&#30906;&#35469;&#12377;&#12427;</text></g><g id="elem_&#36820;&#21364;&#12377;&#12427;&#12539;&#20104;&#32004;&#12434;&#21462;&#12426;&#28040;&#12377;"><ellipse cx="308.515" cy="566.803" fill="#F1F1F1" rx="107.015" ry="23.803" style="stroke:#181818;stroke-width:0.5;"/><text fill="#000000" font-family="Noto Sans CJK JP" font-size="14" lengthAdjust="spacing" textLength="168" x="221.515" y="572.173">&#36820;&#21364;&#12377;&#12427;&#12539;&#20104;&#32004;&#12434;&#21462;&#12426;&#28040;&#12377;</text></g><g id="elem_&#20104;&#32004;&#12375;&#12383;&#36039;&#26009;&#12434;&#36024;&#12375;&#20986;&#12377;"><ellipse cx="308.735" cy="649.147" fill="#F1F1F1" rx="101.235" ry="22.647" style="stroke:#181818;stroke-width:0.5;"/><text fill="#000000" font-family="Noto Sans CJK JP" font-size="14" lengthAdjust="spacing" textLength="154" x="228.735" y="654.517">&#20104;&#32004;&#12375;&#12383;&#36039;&#26009;&#12434;&#36024;&#12375;&#20986;&#12377;</text></g><g id="elem_&#26412;&#24773;&#22577;&#21462;&#24471;"><ellipse cx="1025.259" cy="112.7735" fill="#F1F1F1" rx="62.759" ry="17.7735" style="stroke:#181818;stroke-width:0.5;"/><text fill="#000000" font-family="Noto Sans CJK JP" font-size="14" lengthAdjust="spacing" textLength="70" x="987.259" y="118.1435">&#26412;&#24773;&#22577;&#21462;&#24471;</text></g><!--entity loggedInLibrarian--><g id="elem_loggedInLibrarian"><ellipse cx="48" cy="81.5" fill="#F1F1F1" rx="8" ry="8" style="stroke:#181818;stroke-width:0.5;"/><path d="M48,89.5 L48,116.5 M35,97.5 L61,97.5 M48,116.5 L35,131.5 M48,116.5 L61,131.5 " fill="none" style="stroke:#181818;stroke-width:0.5;"/><text fill="#000000" font-family="Noto Sans CJK JP" font-size="14" lengthAdjust="spacing" textLength="28" x="34" y="149.2399">&#21496;&#26360;</text></g><!--entity loggedInUser--><g id="elem_loggedInUser"><ellipse cx="48" cy="426.5" fill="#F1F1F1" rx="8" ry="8" style="stroke:#181818;stroke-width:0.5;"/><path d="M48,434.5 L48,461.5 M35,442.5 L61,442.5 M48,461.5 L35,476.5 M48,461.5 L61,476.5 " fill="none" style="stroke:#181818;stroke-width:0.5;"/><text fill="#000000" font-family="Noto Sans CJK JP" font-size="14" lengthAdjust="spacing" textLength="84" x="6" y="494.2399">&#19968;&#33324;&#12518;&#12540;&#12470;&#12540;</text></g><g id="elem_GMN26"><path d="M870,201 L870,248.648 L1181,248.648 L1181,211 L1171,201 L870,201 " fill="#FEFFDD" style="stroke:#181818;stroke-width:0.5;"/><path d="M1171,201 L1171,211 L1181,211 L1171,201 " fill="#FEFFDD" style="stroke:#181818;stroke-width:1.0;"/><text fill="#000000" font-family="Noto Sans CJK JP" font-size="13" lengthAdjust="spacing" textLength="119" x="876" y="221.08">&#22806;&#37096;&#12471;&#12473;&#12486;&#12512;(API)&#12290;</text><text fill="#000000" font-family="Noto Sans CJK JP" font-size="13" lengthAdjust="spacing" textLength="290" x="876" y="239.904">ISBN&#12434;&#20837;&#21147;&#12377;&#12427;&#12392;&#12289;&#26412;&#12398;&#12487;&#12540;&#12479;&#12434;&#36865;&#12387;&#12390;&#12367;&#12428;&#12427;&#12290;</text></g><!--link ?????? to ISBN?????--><g id="link_&#26412;&#12434;&#30331;&#37682;&#12377;&#12427;_ISBN&#12434;&#20837;&#21147;&#12377;&#12427;"><path d="M382.06,113 C435.08,113 500.99,113 555.73,113 " fill="none" id="&#26412;&#12434;&#30331;&#37682;&#12377;&#12427;-to-ISBN&#12434;&#20837;&#21147;&#12377;&#12427;" style="stroke:#181818;stroke-width:1.0;stroke-dasharray:7.0,7.0;"/><polygon fill="#181818" points="561.73,113,552.73,109,556.73,113,552.73,117,561.73,113" style="stroke:#181818;stroke-width:1.0;"/><text fill="#000000" font-family="Noto Sans CJK JP" font-size="13" lengthAdjust="spacing" textLength="58" x="473" y="109.08">&#171;include&#187;</text></g><!--link loggedInLibrarian to ??????--><g id="link_loggedInLibrarian_&#26412;&#12434;&#30331;&#37682;&#12377;&#12427;"><path d="M62.17,113 C93.5,113 168.34,113 228.72,113 " fill="none" id="loggedInLibrarian-to-&#26412;&#12434;&#30331;&#37682;&#12377;&#12427;" style="stroke:#181818;stroke-width:1.0;"/><polygon fill="#181818" points="234.72,113,225.72,109,229.72,113,225.72,117,234.72,113" style="stroke:#181818;stroke-width:1.0;"/></g><!--link loggedInUser to ??????--><g id="link_loggedInUser_&#26412;&#12434;&#26908;&#32034;&#12377;&#12427;"><path d="M56.15,417.7 C65.58,376.88 86.27,315.04 129,281 C158.55,257.46 193.4369,248.6173 228.6069,245.2773 " fill="none" id="loggedInUser-to-&#26412;&#12434;&#26908;&#32034;&#12377;&#12427;" style="stroke:#181818;stroke-width:1.0;"/><polygon fill="#181818" points="234.58,244.71,225.2421,241.5788,229.6024,245.1827,225.9985,249.543,234.58,244.71" style="stroke:#181818;stroke-width:1.0;"/></g><!--link loggedInUser to ???????--><g id="link_loggedInUser_&#36024;&#20986;&#12539;&#20104;&#32004;&#12377;&#12427;"><path d="M90.29,444.2 C102.66,440.31 116.31,436.25 129,433 C166.97,423.27 204.1429,415.6266 238.4629,409.1866 " fill="none" id="loggedInUser-to-&#36024;&#20986;&#12539;&#20104;&#32004;&#12377;&#12427;" style="stroke:#181818;stroke-width:1.0;"/><polygon fill="#181818" points="244.36,408.08,234.7767,405.8085,239.4458,409.0021,236.2521,413.6712,244.36,408.08" style="stroke:#181818;stroke-width:1.0;"/></g><!--link loggedInUser to ???????????--><g id="link_loggedInUser_&#26412;&#12398;&#35443;&#32048;&#24773;&#22577;&#12434;&#30906;&#35469;&#12377;&#12427;"><path d="M73.16,417.55 C87.07,397.62 106.31,374.94 129,361 C154.71,345.21 180.0359,336.8036 209.1159,331.0036 " fill="none" id="loggedInUser-to-&#26412;&#12398;&#35443;&#32048;&#24773;&#22577;&#12434;&#30906;&#35469;&#12377;&#12427;" style="stroke:#181818;stroke-width:1.0;"/><polygon fill="#181818" points="215,329.83,205.3915,327.6676,210.0966,330.808,206.9562,335.5131,215,329.83" style="stroke:#181818;stroke-width:1.0;"/></g><!--link ISBN????? to ?????--><g id="link_ISBN&#12434;&#20837;&#21147;&#12377;&#12427;_&#26412;&#24773;&#22577;&#21462;&#24471;"><path d="M724.23,113 C795.2,113 891.29,113 956.25,113 " fill="none" id="ISBN&#12434;&#20837;&#21147;&#12377;&#12427;-to-&#26412;&#24773;&#22577;&#21462;&#24471;" style="stroke:#181818;stroke-width:1.0;stroke-dasharray:7.0,7.0;"/><polygon fill="#181818" points="962.25,113,953.25,109,957.25,113,953.25,117,962.25,113" style="stroke:#181818;stroke-width:1.0;"/><text fill="#000000" font-family="Noto Sans CJK JP" font-size="13" lengthAdjust="spacing" textLength="58" x="781" y="109.08">&#171;include&#187;</text></g><!--link loggedInUser to ????????????????--><g id="link_loggedInUser_&#33258;&#20998;&#12364;&#36024;&#20986;&#12539;&#20104;&#32004;&#20013;&#12398;&#26412;&#12434;&#30906;&#35469;&#12377;&#12427;"><path d="M90.25,461.35 C116.12,463.45 144.9697,465.7936 179.1497,468.5736 " fill="none" id="loggedInUser-to-&#33258;&#20998;&#12364;&#36024;&#20986;&#12539;&#20104;&#32004;&#20013;&#12398;&#26412;&#12434;&#30906;&#35469;&#12377;&#12427;" style="stroke:#181818;stroke-width:1.0;"/><polygon fill="#181818" points="185.13,469.06,176.4839,464.3436,180.1465,468.6547,175.8354,472.3172,185.13,469.06" style="stroke:#181818;stroke-width:1.0;"/></g><!--link loggedInUser to ????????????--><g id="link_loggedInUser_&#36820;&#21364;&#12377;&#12427;&#12539;&#20104;&#32004;&#12434;&#21462;&#12426;&#28040;&#12377;"><path d="M89.55,498.17 C101.47,508.18 115.07,518.03 129,525 C156.33,538.68 182.395,546.7443 211.635,553.0543 " fill="none" id="loggedInUser-to-&#36820;&#21364;&#12377;&#12427;&#12539;&#20104;&#32004;&#12434;&#21462;&#12426;&#28040;&#12377;" style="stroke:#181818;stroke-width:1.0;"/><polygon fill="#181818" points="217.5,554.32,209.5463,548.5115,212.6125,553.2653,207.8587,556.3315,217.5,554.32" style="stroke:#181818;stroke-width:1.0;"/></g><!--link loggedInUser to ???????????--><g id="link_loggedInUser_&#20104;&#32004;&#12375;&#12383;&#36039;&#26009;&#12434;&#36024;&#12375;&#20986;&#12377;"><path d="M60.13,498.31 C71.71,532.65 93.26,580.64 129,608 C152.61,626.07 176.9001,635.2156 205.7001,641.0656 " fill="none" id="loggedInUser-to-&#20104;&#32004;&#12375;&#12383;&#36039;&#26009;&#12434;&#36024;&#12375;&#20986;&#12377;" style="stroke:#181818;stroke-width:1.0;"/><polygon fill="#181818" points="211.58,642.26,203.5564,636.5485,206.6801,641.2647,201.9639,644.3884,211.58,642.26" style="stroke:#181818;stroke-width:1.0;"/></g><!--link GMN26 to Google Books API--><g id="link_GMN26_Google Books API"><path d="M1025.5,200.57 C1025.5,194.9 1025.5,189.2275 1025.5,183.555 C1025.5,180.7188 1025.5,177.8825 1025.5,175.0466 C1025.5,174.8693 1025.5,174.6921 1025.5,174.5148 C1025.5,174.4262 1025.5,174.3376 1025.5,174.249 C1025.5,174.2047 1025.5,174.1603 1025.5,174.116 " fill="none" id="GMN26-Google Books API" style="stroke:#181818;stroke-width:1.0;stroke-dasharray:7.0,7.0;"/></g><!--SRC=[bLJHJjfW5Bx_d-B4cyc5Fi1YIEQIBRY5c9WzG0U5DM1BIhrQJ6WxWGc6nIZ4O3P5nf0ujWbn31TzcCFVbhVOAMY0qYtkfatE-SvtldFEbp-TaEIKe0gR41LZmbPIUwR8MbZO564Xh6WAR0Xo6fwklO2rzGMM56CQK52LucyqY4gg6D4aHMPCY6YA2hpKiwez4DAGLE9nCHgINqglLK6L1FaECUXbdFm5cWqqVwDnHTzfzAkqg09ZpAKLv7YIDF1yrZeyunyBlDeXRhjzQd_8eb53iu9cQm7UifGGIGXnWbh75wYtnmWt0R3eXenz- -XwMBn4_GYDGi0DXpPMmnJdEv_vRdKgxWE7vUMWVm4yXfKLIOuajw9YCCYscLS9pv_R1yqP9LRzsExMF1trjdFUiRlVBNE7d_nm1TJwJcjl2kLSzdYkZ-Rre9-tk-yccL4orw8beLxqe0QzhqHzDz8Su-q1t-kE0nDUch1KHcFNkifJQWIyxrX1_PFJoLbbgjYdJXHncurHDFpspDMUAuhxNrMKH1gUh8ScInWFIMtuJINWLh4vgy3IKj3_5emzWl76xXTPGEEzPsxUBWxwMUUqQTT9tmtgNr3_HhuRPixSe-GQP0ysuxYfVZC7ei7cSVwtWBym_lksD92_jKQcysxBOpW_RVzj1H-E1pbZlku1Hc6oeedqVAH0YVbuX1m2mElbeTb4uoSQlz3CedcoIBa0PenHscTRg3Sneu-NZMPkzB3S4cQOqL6dapTGBw5HT9548ifH6CbWVm00]--></g></svg>