<?xml version="1.0" encoding="us-ascii" standalone="no"?><svg xmlns="http://www.w3.org/2000/svg" xmlns:xlink="http://www.w3.org/1999/xlink" contentStyleType="text/css" height="758px" preserveAspectRatio="none" style="width:1320px;height:758px;background:#FFFFFF;" version="1.1" viewBox="0 0 1320 758" width="1320px" zoomAndPan="magnify"><defs/><g><!--cluster ??????????--><g id="cluster_&#20998;&#25955;&#22411;&#22259;&#26360;&#31649;&#29702;&#12450;&#12503;&#12522;"><rect fill="none" height="715" rx="2.5" ry="2.5" style="stroke:#181818;stroke-width:1.0;" width="731" x="165" y="37"/><text fill="#000000" font-family="Noto Sans CJK JP" font-size="14" font-weight="bold" lengthAdjust="spacing" textLength="140" x="460.5" y="55.2399">&#20998;&#25955;&#22411;&#22259;&#26360;&#31649;&#29702;&#12450;&#12503;&#12522;</text></g><!--cluster ????--><g id="cluster_&#26412;&#12398;&#31649;&#29702;"><path d="M249.5,84 L306.5,84 A3.75,3.75 0 0 1 309,86.5 L316,110.2719 L816.5,110.2719 A2.5,2.5 0 0 1 819,112.7719 L819,191.5 A2.5,2.5 0 0 1 816.5,194 L249.5,194 A2.5,2.5 0 0 1 247,191.5 L247,86.5 A2.5,2.5 0 0 1 249.5,84 " fill="none" style="stroke:#000000;stroke-width:1.5;"/><line style="stroke:#000000;stroke-width:1.5;" x1="247" x2="316" y1="110.2719" y2="110.2719"/><text fill="#000000" font-family="Noto Sans CJK JP" font-size="14" font-weight="bold" lengthAdjust="spacing" textLength="56" x="251" y="102.2399">&#26412;&#12398;&#31649;&#29702;</text></g><!--cluster ????--><g id="cluster_&#26412;&#12398;&#21033;&#29992;"><path d="M191.5,218 L248.5,218 A3.75,3.75 0 0 1 251,220.5 L258,244.2719 L869.5,244.2719 A2.5,2.5 0 0 1 872,246.7719 L872,725.5 A2.5,2.5 0 0 1 869.5,728 L191.5,728 A2.5,2.5 0 0 1 189,725.5 L189,220.5 A2.5,2.5 0 0 1 191.5,218 " fill="none" style="stroke:#000000;stroke-width:1.5;"/><line style="stroke:#000000;stroke-width:1.5;" x1="189" x2="258" y1="244.2719" y2="244.2719"/><text fill="#000000" font-family="Noto Sans CJK JP" font-size="14" font-weight="bold" lengthAdjust="spacing" textLength="56" x="193" y="236.2399">&#26412;&#12398;&#21033;&#29992;</text></g><!--cluster openBD--><g id="cluster_openBD"><rect fill="none" height="126" rx="2.5" ry="2.5" style="stroke:#181818;stroke-width:1.0;" width="174" x="1070.5" y="78"/><text fill="#000000" font-family="Noto Sans CJK JP" font-size="14" font-weight="bold" lengthAdjust="spacing" textLength="55" x="1130" y="96.2399">openBD</text></g><g id="elem_&#26412;&#12434;&#30331;&#37682;&#12377;&#12427;"><ellipse cx="336.2886" cy="142.8425" fill="#F1F1F1" rx="73.2886" ry="17.8425" style="stroke:#181818;stroke-width:0.5;"/><text fill="#000000" font-family="Noto Sans CJK JP" font-size="14" lengthAdjust="spacing" textLength="84" x="291.2886" y="148.2125">&#26412;&#12434;&#30331;&#37682;&#12377;&#12427;</text></g><g id="elem_ISBN&#12434;&#20837;&#21147;&#12377;&#12427;"><ellipse cx="722.1816" cy="143.1363" fill="#F1F1F1" rx="81.1816" ry="18.6363" style="stroke:#181818;stroke-width:0.5;"/><text fill="#000000" font-family="Noto Sans CJK JP" font-size="14" lengthAdjust="spacing" textLength="101" x="668.6816" y="148.5063">ISBN&#12434;&#20837;&#21147;&#12377;&#12427;</text></g><g id="elem_&#26412;&#12434;&#26908;&#32034;&#12377;&#12427;"><ellipse cx="336.2886" cy="274.8425" fill="#F1F1F1" rx="73.2886" ry="17.8425" style="stroke:#181818;stroke-width:0.5;"/><text fill="#000000" font-family="Noto Sans CJK JP" font-size="14" lengthAdjust="spacing" textLength="84" x="291.2886" y="280.2125">&#26412;&#12434;&#26908;&#32034;&#12377;&#12427;</text></g><g id="elem_&#36024;&#20986;&#12539;&#20104;&#32004;&#12377;&#12427;"><ellipse cx="336.6629" cy="346.9326" fill="#F1F1F1" rx="80.1629" ry="18.4326" style="stroke:#181818;stroke-width:0.5;"/><text fill="#000000" font-family="Noto Sans CJK JP" font-size="14" lengthAdjust="spacing" textLength="98" x="284.6629" y="352.3025">&#36024;&#20986;&#12539;&#20104;&#32004;&#12377;&#12427;</text></g><g id="elem_&#36024;&#20986;&#12539;&#20104;&#32004;&#24773;&#22577;&#12434;&#30906;&#35469;&#12377;&#12427;"><ellipse cx="336.515" cy="424.803" fill="#F1F1F1" rx="107.015" ry="23.803" style="stroke:#181818;stroke-width:0.5;"/><text fill="#000000" font-family="Noto Sans CJK JP" font-size="14" lengthAdjust="spacing" textLength="168" x="249.515" y="430.173">&#36024;&#20986;&#12539;&#20104;&#32004;&#24773;&#22577;&#12434;&#30906;&#35469;&#12377;&#12427;</text></g><g id="elem_&#21508;&#26412;&#12398;&#12362;&#12377;&#12377;&#12417;&#26360;&#31821;&#12434;&#32057;&#20171;&#12377;&#12427;"><ellipse cx="336.4789" cy="510.1958" fill="#F1F1F1" rx="118.9789" ry="26.1958" style="stroke:#181818;stroke-width:0.5;"/><text fill="#000000" font-family="Noto Sans CJK JP" font-size="14" lengthAdjust="spacing" textLength="196" x="235.4789" y="515.5657">&#21508;&#26412;&#12398;&#12362;&#12377;&#12377;&#12417;&#26360;&#31821;&#12434;&#32057;&#20171;&#12377;&#12427;</text></g><g id="elem_&#33258;&#20998;&#12364;&#36024;&#20986;&#12539;&#20104;&#32004;&#20013;&#12398;&#26412;&#12434;&#30906;&#35469;&#12377;&#12427;"><ellipse cx="336.4429" cy="600.1886" fill="#F1F1F1" rx="131.4429" ry="28.6886" style="stroke:#181818;stroke-width:0.5;"/><text fill="#000000" font-family="Noto Sans CJK JP" font-size="14" lengthAdjust="spacing" textLength="224" x="223.5483" y="604.7092">&#33258;&#20998;&#12364;&#36024;&#20986;&#12539;&#20104;&#32004;&#20013;&#12398;&#26412;&#12434;&#30906;&#35469;&#12377;&#12427;</text></g><g id="elem_&#36820;&#21364;&#12377;&#12427;&#12539;&#20104;&#32004;&#12434;&#21462;&#12426;&#28040;&#12377;"><ellipse cx="336.515" cy="687.803" fill="#F1F1F1" rx="107.015" ry="23.803" style="stroke:#181818;stroke-width:0.5;"/><text fill="#000000" font-family="Noto Sans CJK JP" font-size="14" lengthAdjust="spacing" textLength="168" x="249.515" y="693.173">&#36820;&#21364;&#12377;&#12427;&#12539;&#20104;&#32004;&#12434;&#21462;&#12426;&#28040;&#12377;</text></g><g id="elem_GMN16"><path d="M588,495.5 L588,506 L455.69,510 L588,514 L588,524.324 A0,0 0 0 0 588,524.324 L856,524.324 A0,0 0 0 0 856,524.324 L856,505.5 L846,495.5 L588,495.5 A0,0 0 0 0 588,495.5 " fill="#FEFFDD" style="stroke:#181818;stroke-width:0.5;"/><path d="M846,495.5 L846,505.5 L856,505.5 L846,495.5 " fill="#FEFFDD" style="stroke:#181818;stroke-width:0.5;"/><text fill="#000000" font-family="Noto Sans CJK JP" font-size="13" lengthAdjust="spacing" textLength="247" x="594" y="515.58">&#12362;&#12377;&#12377;&#12417;&#26360;&#31821;&#12399;&#12289;&#33879;&#32773;&#12398;&#12411;&#12363;&#12398;&#33879;&#20316;&#12434;&#20104;&#23450;</text></g><g id="elem_&#26412;&#24773;&#22577;&#21462;&#24471;"><ellipse cx="1157.259" cy="142.7735" fill="#F1F1F1" rx="62.759" ry="17.7735" style="stroke:#181818;stroke-width:0.5;"/><text fill="#000000" font-family="Noto Sans CJK JP" font-size="14" lengthAdjust="spacing" textLength="70" x="1119.259" y="148.1435">&#26412;&#24773;&#22577;&#21462;&#24471;</text></g><!--entity loggedInLibrarian--><g id="elem_loggedInLibrarian"><ellipse cx="62" cy="111.5" fill="#F1F1F1" rx="8" ry="8" style="stroke:#181818;stroke-width:0.5;"/><path d="M62,119.5 L62,146.5 M49,127.5 L75,127.5 M62,146.5 L49,161.5 M62,146.5 L75,161.5 " fill="none" style="stroke:#181818;stroke-width:0.5;"/><text fill="#000000" font-family="Noto Sans CJK JP" font-size="14" lengthAdjust="spacing" textLength="28" x="48" y="179.2399">&#21496;&#26360;</text></g><!--entity loggedInUser--><g id="elem_loggedInUser"><ellipse cx="62" cy="446.5" fill="#F1F1F1" rx="8" ry="8" style="stroke:#181818;stroke-width:0.5;"/><path d="M62,454.5 L62,481.5 M49,462.5 L75,462.5 M62,481.5 L49,496.5 M62,481.5 L75,496.5 " fill="none" style="stroke:#181818;stroke-width:0.5;"/><text fill="#000000" font-family="Noto Sans CJK JP" font-size="14" lengthAdjust="spacing" textLength="84" x="20" y="514.2399">&#19968;&#33324;&#12518;&#12540;&#12470;&#12540;</text></g><g id="elem_GMN29"><path d="M6,38.5 L6,67.324 A0,0 0 0 0 6,67.324 L58,67.324 L62,102.92 L66,67.324 L118,67.324 A0,0 0 0 0 118,67.324 L118,48.5 L108,38.5 L6,38.5 A0,0 0 0 0 6,38.5 " fill="#FEFFDD" style="stroke:#181818;stroke-width:0.5;"/><path d="M108,38.5 L108,48.5 L118,48.5 L108,38.5 " fill="#FEFFDD" style="stroke:#181818;stroke-width:0.5;"/><text fill="#000000" font-family="Noto Sans CJK JP" font-size="13" lengthAdjust="spacing" textLength="91" x="12" y="58.58">&#12525;&#12464;&#12452;&#12531;&#12364;&#24517;&#35201;</text></g><g id="elem_GMN32"><path d="M6,373.5 L6,402.324 A0,0 0 0 0 6,402.324 L58,402.324 L62,437.92 L66,402.324 L118,402.324 A0,0 0 0 0 118,402.324 L118,383.5 L108,373.5 L6,373.5 A0,0 0 0 0 6,373.5 " fill="#FEFFDD" style="stroke:#181818;stroke-width:0.5;"/><path d="M108,373.5 L108,383.5 L118,383.5 L108,373.5 " fill="#FEFFDD" style="stroke:#181818;stroke-width:0.5;"/><text fill="#000000" font-family="Noto Sans CJK JP" font-size="13" lengthAdjust="spacing" textLength="91" x="12" y="393.58">&#12525;&#12464;&#12452;&#12531;&#12364;&#24517;&#35201;</text></g><g id="elem_GMN35"><path d="M1002,6 L1002,53.648 L1313,53.648 L1313,16 L1303,6 L1002,6 " fill="#FEFFDD" style="stroke:#181818;stroke-width:0.5;"/><path d="M1303,6 L1303,16 L1313,16 L1303,6 " fill="#FEFFDD" style="stroke:#181818;stroke-width:1.0;"/><text fill="#000000" font-family="Noto Sans CJK JP" font-size="13" lengthAdjust="spacing" textLength="119" x="1008" y="26.08">&#22806;&#37096;&#12471;&#12473;&#12486;&#12512;(API)&#12290;</text><text fill="#000000" font-family="Noto Sans CJK JP" font-size="13" lengthAdjust="spacing" textLength="290" x="1008" y="44.904">ISBN&#12434;&#20837;&#21147;&#12377;&#12427;&#12392;&#12289;&#26412;&#12398;&#12487;&#12540;&#12479;&#12434;&#36865;&#12387;&#12390;&#12367;&#12428;&#12427;&#12290;</text></g><!--link ?????? to ISBN?????--><g id="link_&#26412;&#12434;&#30331;&#37682;&#12377;&#12427;_ISBN&#12434;&#20837;&#21147;&#12377;&#12427;"><path d="M410.08,143 C475.88,143 566.69,143 634.76,143 " fill="none" id="&#26412;&#12434;&#30331;&#37682;&#12377;&#12427;-to-ISBN&#12434;&#20837;&#21147;&#12377;&#12427;" style="stroke:#181818;stroke-width:1.0;stroke-dasharray:7.0,7.0;"/><polygon fill="#181818" points="640.76,143,631.76,139,635.76,143,631.76,147,640.76,143" style="stroke:#181818;stroke-width:1.0;"/><text fill="#000000" font-family="Noto Sans CJK JP" font-size="13" lengthAdjust="spacing" textLength="58" x="499" y="139.08">&#171;include&#187;</text></g><!--link loggedInLibrarian to ??????--><g id="link_loggedInLibrarian_&#26412;&#12434;&#30331;&#37682;&#12377;&#12427;"><path d="M76.14,143 C109.31,143 192.37,143 256.88,143 " fill="none" id="loggedInLibrarian-to-&#26412;&#12434;&#30331;&#37682;&#12377;&#12427;" style="stroke:#181818;stroke-width:1.0;"/><polygon fill="#181818" points="262.88,143,253.88,139,257.88,143,253.88,147,262.88,143" style="stroke:#181818;stroke-width:1.0;"/></g><!--link loggedInUser to ??????--><g id="link_loggedInUser_&#26412;&#12434;&#26908;&#32034;&#12377;&#12427;"><path d="M104.08,438.91 C109.18,432.89 114,426.5 118,420 C144.95,376.17 118.08,344.66 157,311 C185.93,285.98 221.4105,277.0561 257.0905,274.0961 " fill="none" id="loggedInUser-to-&#26412;&#12434;&#26908;&#32034;&#12377;&#12427;" style="stroke:#181818;stroke-width:1.0;"/><polygon fill="#181818" points="263.07,273.6,253.7701,270.3578,258.0871,274.0134,254.4315,278.3304,263.07,273.6" style="stroke:#181818;stroke-width:1.0;"/></g><!--link loggedInUser to ???????--><g id="link_loggedInUser_&#36024;&#20986;&#12539;&#20104;&#32004;&#12377;&#12427;"><path d="M101.73,437.81 C126.04,412.76 153.45,384.91 157,383 C188.3,366.11 220.6217,357.9686 253.6817,353.1886 " fill="none" id="loggedInUser-to-&#36024;&#20986;&#12539;&#20104;&#32004;&#12377;&#12427;" style="stroke:#181818;stroke-width:1.0;"/><polygon fill="#181818" points="259.62,352.33,250.1402,349.659,254.6715,353.0455,251.285,357.5767,259.62,352.33" style="stroke:#181818;stroke-width:1.0;"/></g><!--link loggedInUser to ????????????--><g id="link_loggedInUser_&#36024;&#20986;&#12539;&#20104;&#32004;&#24773;&#22577;&#12434;&#30906;&#35469;&#12377;&#12427;"><path d="M104.09,470.01 C143.94,462.26 199.5804,451.4359 249.1804,441.7859 " fill="none" id="loggedInUser-to-&#36024;&#20986;&#12539;&#20104;&#32004;&#24773;&#22577;&#12434;&#30906;&#35469;&#12377;&#12427;" style="stroke:#181818;stroke-width:1.0;"/><polygon fill="#181818" points="255.07,440.64,245.4717,438.4324,250.162,441.5949,246.9995,446.2852,255.07,440.64" style="stroke:#181818;stroke-width:1.0;"/></g><!--link loggedInUser to ??????????????--><g id="link_loggedInUser_&#21508;&#26412;&#12398;&#12362;&#12377;&#12377;&#12417;&#26360;&#31821;&#12434;&#32057;&#20171;&#12377;&#12427;"><path d="M104.09,482.83 C137.77,486.78 180.981,491.8501 225.341,497.0601 " fill="none" id="loggedInUser-to-&#21508;&#26412;&#12398;&#12362;&#12377;&#12377;&#12417;&#26360;&#31821;&#12434;&#32057;&#20171;&#12377;&#12427;" style="stroke:#181818;stroke-width:1.0;"/><polygon fill="#181818" points="231.3,497.76,222.828,492.7375,226.3341,497.1768,221.8949,500.6829,231.3,497.76" style="stroke:#181818;stroke-width:1.0;"/></g><!--link ISBN????? to ?????--><g id="link_ISBN&#12434;&#20837;&#21147;&#12377;&#12427;_&#26412;&#24773;&#22577;&#21462;&#24471;"><path d="M803.02,143 C887.17,143 1011.81,143 1088.48,143 " fill="none" id="ISBN&#12434;&#20837;&#21147;&#12377;&#12427;-to-&#26412;&#24773;&#22577;&#21462;&#24471;" style="stroke:#181818;stroke-width:1.0;stroke-dasharray:7.0,7.0;"/><polygon fill="#181818" points="1094.48,143,1085.48,139,1089.48,143,1085.48,147,1094.48,143" style="stroke:#181818;stroke-width:1.0;"/><text fill="#000000" font-family="Noto Sans CJK JP" font-size="13" lengthAdjust="spacing" textLength="58" x="913" y="139.08">&#171;include&#187;</text></g><!--link loggedInUser to ????????????????--><g id="link_loggedInUser_&#33258;&#20998;&#12364;&#36024;&#20986;&#12539;&#20104;&#32004;&#20013;&#12398;&#26412;&#12434;&#30906;&#35469;&#12377;&#12427;"><path d="M104.39,517.17 C119.92,530.14 138.34,543.63 157,553 C181.48,565.3 203.7175,573.0933 230.2075,580.0633 " fill="none" id="loggedInUser-to-&#33258;&#20998;&#12364;&#36024;&#20986;&#12539;&#20104;&#32004;&#20013;&#12398;&#26412;&#12434;&#30906;&#35469;&#12377;&#12427;" style="stroke:#181818;stroke-width:1.0;"/><polygon fill="#181818" points="236.01,581.59,228.3241,575.4315,231.1746,580.3177,226.2884,583.1682,236.01,581.59" style="stroke:#181818;stroke-width:1.0;"/></g><!--link loggedInUser to ????????????--><g id="link_loggedInUser_&#36820;&#21364;&#12377;&#12427;&#12539;&#20104;&#32004;&#12434;&#21462;&#12426;&#28040;&#12377;"><path d="M74.98,518.3 C88.58,556.95 114.56,614.01 157,646 C179.75,663.15 202.5622,672.1413 230.2122,678.2713 " fill="none" id="loggedInUser-to-&#36820;&#21364;&#12377;&#12427;&#12539;&#20104;&#32004;&#12434;&#21462;&#12426;&#28040;&#12377;" style="stroke:#181818;stroke-width:1.0;"/><polygon fill="#181818" points="236.07,679.57,228.1491,673.7168,231.1885,678.4878,226.4176,681.5272,236.07,679.57" style="stroke:#181818;stroke-width:1.0;"/></g><!--link openBD to GMN35--><g id="link_openBD_GMN35"><path d="M1110.1966,204.0037 C1109.9065,204.0346 1109.6154,204.0652 1109.3235,204.0956 C1106.9883,204.3389 1104.5977,204.5666 1102.1586,204.7746 C1092.4022,205.6066 1081.87,206.1225 1071.005,206.05 C1027.545,205.76 978.76,196.055 953,159.5 C918.02,109.86 987.68,75 1055,54.05 " fill="none" id="openBD-GMN35" style="stroke:#181818;stroke-width:1.0;stroke-dasharray:7.0,7.0;"/></g><!--SRC=[bLJRJjj047tVhrZnKdY03wXGfDAgKcWL8Q5-W4bCQX7io35F5PBN9fUI86X5YIYeufAcQGHfWOY6f8MF6M_i_4LddKIvO2HuySFCcJDdPiyujQAeIKcNLcbCNfRM4iPhJJKYqgfC9oAQeT55IKtHb_DlwFp214d8omR5eAx4tniqfkXor50qbH0fQcWwvTkDza63IYcQqE9nEHPMtofBkgGhajf3E0tJovs1NGRxBrZN-1r6lql9EYM425f9ZITG0yzbsbzE-RSyFxX2RhTsxEvam3e1kmXsTO9-84afkYB54Te-F0DMwo94Wj994R8-k_kjJk4Is3vO-Qa7mdHc9aGdmujp4Spmz7U-UT3FFAUpiueQJQp5v528h9FnZZptqzsjZ7HibmxT-ibGH- -omRDDi5jEC-VMDuOoGIq3AjfscXzT2DKdJQ-wDGJaEnjT7S0sHLXac5ZLnPQ0rs-SLhuFHxpFdQtYNe4LnfeuZNFawMrdl8ztjyktwjt0O11Klhq7rcRxEeSfluEg6NBF8Thoq_HH6W1Yly1atgUYPwPzbXOmBAXXnFbtY1IeXDU-OgsinhhDnPZhugM6ZAGbPNNkrU2LkWj5yVosE2Mmv9vdwVHqADWiX3oZtQ7wBvq7w-FODdcju3Gptd75BJM1tGBxWQFW0NJCK-6QR1bzIaQiFzHln44updrSiAKUWGosKb3XawmLV3p-MOslU-oaWYG_sQ4178ypBF4jOsX9twttJ21CYRQqpy7w3LO9x2jKnU_INfcHlk4Uu11I7bVU8rZI34DR5Hnzk_hLlBJNiIjW_G7h1kmCs4UJBnR2Ks1QVZfWxy0gU3EzjxEp_i_s3Z4Tam53zvM1RODL44Wa6TpDVm00]--></g></svg>