<?xml version="1.0" encoding="us-ascii" standalone="no"?><svg xmlns="http://www.w3.org/2000/svg" xmlns:xlink="http://www.w3.org/1999/xlink" contentStyleType="text/css" height="709px" preserveAspectRatio="none" style="width:487px;height:709px;background:#FFFFFF;" version="1.1" viewBox="0 0 487 709" width="487px" zoomAndPan="magnify"><defs/><g><!--cluster ??????????--><g id="cluster_&#20998;&#25955;&#22411;&#22259;&#26360;&#31649;&#29702;&#12450;&#12503;&#12522;"><rect fill="none" height="696" rx="2.5" ry="2.5" style="stroke:#181818;stroke-width:1.0;" width="343" x="138" y="7"/><text fill="#000000" font-family="Noto Sans CJK JP" font-size="14" font-weight="bold" lengthAdjust="spacing" textLength="140" x="239.5" y="25.2399">&#20998;&#25955;&#22411;&#22259;&#26360;&#31649;&#29702;&#12450;&#12503;&#12522;</text></g><!--cluster ????--><g id="cluster_&#26412;&#12398;&#31649;&#29702;"><path d="M222.5,54 L279.5,54 A3.75,3.75 0 0 1 282,56.5 L289,80.2719 L396.5,80.2719 A2.5,2.5 0 0 1 399,82.7719 L399,142.5 A2.5,2.5 0 0 1 396.5,145 L222.5,145 A2.5,2.5 0 0 1 220,142.5 L220,56.5 A2.5,2.5 0 0 1 222.5,54 " fill="none" style="stroke:#000000;stroke-width:1.5;"/><line style="stroke:#000000;stroke-width:1.5;" x1="220" x2="289" y1="80.2719" y2="80.2719"/><text fill="#000000" font-family="Noto Sans CJK JP" font-size="14" font-weight="bold" lengthAdjust="spacing" textLength="56" x="224" y="72.2399">&#26412;&#12398;&#31649;&#29702;</text></g><!--cluster ????--><g id="cluster_&#26412;&#12398;&#21033;&#29992;"><path d="M164.5,169 L221.5,169 A3.75,3.75 0 0 1 224,171.5 L231,195.2719 L454.5,195.2719 A2.5,2.5 0 0 1 457,197.7719 L457,676.5 A2.5,2.5 0 0 1 454.5,679 L164.5,679 A2.5,2.5 0 0 1 162,676.5 L162,171.5 A2.5,2.5 0 0 1 164.5,169 " fill="none" style="stroke:#000000;stroke-width:1.5;"/><line style="stroke:#000000;stroke-width:1.5;" x1="162" x2="231" y1="195.2719" y2="195.2719"/><text fill="#000000" font-family="Noto Sans CJK JP" font-size="14" font-weight="bold" lengthAdjust="spacing" textLength="56" x="166" y="187.2399">&#26412;&#12398;&#21033;&#29992;</text></g><g id="elem_&#26412;&#12434;&#30331;&#37682;&#12377;&#12427;"><ellipse cx="309.2886" cy="110.8425" fill="#F1F1F1" rx="73.2886" ry="17.8425" style="stroke:#181818;stroke-width:0.5;"/><text fill="#000000" font-family="Noto Sans CJK JP" font-size="14" lengthAdjust="spacing" textLength="84" x="264.2886" y="116.2125">&#26412;&#12434;&#30331;&#37682;&#12377;&#12427;</text></g><g id="elem_&#26412;&#12434;&#26908;&#32034;&#12377;&#12427;"><ellipse cx="309.2886" cy="225.8425" fill="#F1F1F1" rx="73.2886" ry="17.8425" style="stroke:#181818;stroke-width:0.5;"/><text fill="#000000" font-family="Noto Sans CJK JP" font-size="14" lengthAdjust="spacing" textLength="84" x="264.2886" y="231.2125">&#26412;&#12434;&#26908;&#32034;&#12377;&#12427;</text></g><g id="elem_&#26412;&#12398;&#36024;&#20986;&#12539;&#20104;&#32004;&#29366;&#27841;&#12434;&#30906;&#35469;&#12377;&#12427;"><ellipse cx="309.4789" cy="305.1958" fill="#F1F1F1" rx="118.9789" ry="26.1958" style="stroke:#181818;stroke-width:0.5;"/><text fill="#000000" font-family="Noto Sans CJK JP" font-size="14" lengthAdjust="spacing" textLength="196" x="208.4789" y="310.5657">&#26412;&#12398;&#36024;&#20986;&#12539;&#20104;&#32004;&#29366;&#27841;&#12434;&#30906;&#35469;&#12377;&#12427;</text></g><g id="elem_&#36024;&#20986;&#12539;&#20104;&#32004;&#12377;&#12427;"><ellipse cx="309.6629" cy="384.9326" fill="#F1F1F1" rx="80.1629" ry="18.4326" style="stroke:#181818;stroke-width:0.5;"/><text fill="#000000" font-family="Noto Sans CJK JP" font-size="14" lengthAdjust="spacing" textLength="98" x="257.6629" y="390.3025">&#36024;&#20986;&#12539;&#20104;&#32004;&#12377;&#12427;</text></g><g id="elem_&#36024;&#20986;&#12539;&#20104;&#32004;&#24773;&#22577;&#12434;&#30906;&#35469;&#12377;&#12427;"><ellipse cx="309.515" cy="462.803" fill="#F1F1F1" rx="107.015" ry="23.803" style="stroke:#181818;stroke-width:0.5;"/><text fill="#000000" font-family="Noto Sans CJK JP" font-size="14" lengthAdjust="spacing" textLength="168" x="222.515" y="468.173">&#36024;&#20986;&#12539;&#20104;&#32004;&#24773;&#22577;&#12434;&#30906;&#35469;&#12377;&#12427;</text></g><g id="elem_&#33258;&#20998;&#12364;&#36024;&#20986;&#12539;&#20104;&#32004;&#20013;&#12398;&#26412;&#12434;&#30906;&#35469;&#12377;&#12427;"><ellipse cx="309.4429" cy="551.1886" fill="#F1F1F1" rx="131.4429" ry="28.6886" style="stroke:#181818;stroke-width:0.5;"/><text fill="#000000" font-family="Noto Sans CJK JP" font-size="14" lengthAdjust="spacing" textLength="224" x="196.5483" y="555.7092">&#33258;&#20998;&#12364;&#36024;&#20986;&#12539;&#20104;&#32004;&#20013;&#12398;&#26412;&#12434;&#30906;&#35469;&#12377;&#12427;</text></g><g id="elem_&#36820;&#21364;&#12377;&#12427;&#12539;&#20104;&#32004;&#12434;&#21462;&#12426;&#28040;&#12377;"><ellipse cx="309.515" cy="638.803" fill="#F1F1F1" rx="107.015" ry="23.803" style="stroke:#181818;stroke-width:0.5;"/><text fill="#000000" font-family="Noto Sans CJK JP" font-size="14" lengthAdjust="spacing" textLength="168" x="222.515" y="644.173">&#36820;&#21364;&#12377;&#12427;&#12539;&#20104;&#32004;&#12434;&#21462;&#12426;&#28040;&#12377;</text></g><!--entity loggedInLibrarian--><g id="elem_loggedInLibrarian"><ellipse cx="62" cy="79.5" fill="#F1F1F1" rx="8" ry="8" style="stroke:#181818;stroke-width:0.5;"/><path d="M62,87.5 L62,114.5 M49,95.5 L75,95.5 M62,114.5 L49,129.5 M62,114.5 L75,129.5 " fill="none" style="stroke:#181818;stroke-width:0.5;"/><text fill="#000000" font-family="Noto Sans CJK JP" font-size="14" lengthAdjust="spacing" textLength="28" x="48" y="147.2399">&#21496;&#26360;</text></g><!--entity loggedInUser--><g id="elem_loggedInUser"><ellipse cx="62" cy="392.5" fill="#F1F1F1" rx="8" ry="8" style="stroke:#181818;stroke-width:0.5;"/><path d="M62,400.5 L62,427.5 M49,408.5 L75,408.5 M62,427.5 L49,442.5 M62,427.5 L75,442.5 " fill="none" style="stroke:#181818;stroke-width:0.5;"/><text fill="#000000" font-family="Noto Sans CJK JP" font-size="14" lengthAdjust="spacing" textLength="84" x="20" y="460.2399">&#19968;&#33324;&#12518;&#12540;&#12470;&#12540;</text></g><g id="elem_GMN21"><path d="M6,6.5 L6,35.324 A0,0 0 0 0 6,35.324 L58,35.324 L62,70.92 L66,35.324 L118,35.324 A0,0 0 0 0 118,35.324 L118,16.5 L108,6.5 L6,6.5 A0,0 0 0 0 6,6.5 " fill="#FEFFDD" style="stroke:#181818;stroke-width:0.5;"/><path d="M108,6.5 L108,16.5 L118,16.5 L108,6.5 " fill="#FEFFDD" style="stroke:#181818;stroke-width:0.5;"/><text fill="#000000" font-family="Noto Sans CJK JP" font-size="13" lengthAdjust="spacing" textLength="91" x="12" y="26.58">&#12525;&#12464;&#12452;&#12531;&#12364;&#24517;&#35201;</text></g><g id="elem_GMN24"><path d="M6,319.5 L6,348.324 A0,0 0 0 0 6,348.324 L58,348.324 L62,383.92 L66,348.324 L118,348.324 A0,0 0 0 0 118,348.324 L118,329.5 L108,319.5 L6,319.5 A0,0 0 0 0 6,319.5 " fill="#FEFFDD" style="stroke:#181818;stroke-width:0.5;"/><path d="M108,319.5 L108,329.5 L118,329.5 L108,319.5 " fill="#FEFFDD" style="stroke:#181818;stroke-width:0.5;"/><text fill="#000000" font-family="Noto Sans CJK JP" font-size="13" lengthAdjust="spacing" textLength="91" x="12" y="339.58">&#12525;&#12464;&#12452;&#12531;&#12364;&#24517;&#35201;</text></g><!--link loggedInLibrarian to ??????--><g id="link_loggedInLibrarian_&#26412;&#12434;&#30331;&#37682;&#12377;&#12427;"><path d="M76.2,111 C105.83,111 173.46,111 229.95,111 " fill="none" id="loggedInLibrarian-to-&#26412;&#12434;&#30331;&#37682;&#12377;&#12427;" style="stroke:#181818;stroke-width:1.0;"/><polygon fill="#181818" points="235.95,111,226.95,107,230.95,111,226.95,115,235.95,111" style="stroke:#181818;stroke-width:1.0;"/></g><!--link loggedInUser to ??????--><g id="link_loggedInUser_&#26412;&#12434;&#26908;&#32034;&#12377;&#12427;"><path d="M104.16,387.33 C109.59,380.74 114.48,373.55 118,366 C127.93,344.72 114.07,278.26 130,261 C157.1,231.65 195.0047,222.9983 232.4847,221.5083 " fill="none" id="loggedInUser-to-&#26412;&#12434;&#26908;&#32034;&#12377;&#12427;" style="stroke:#181818;stroke-width:1.0;"/><polygon fill="#181818" points="238.48,221.27,229.3282,217.6307,233.4839,221.4686,229.646,225.6244,238.48,221.27" style="stroke:#181818;stroke-width:1.0;"/></g><!--link loggedInUser to ??????????????--><g id="link_loggedInUser_&#26412;&#12398;&#36024;&#20986;&#12539;&#20104;&#32004;&#29366;&#27841;&#12434;&#30906;&#35469;&#12377;&#12427;"><path d="M102.53,383.8 C107.86,377.95 113.16,371.9 118,366 C123.86,358.85 122.36,354.21 130,349 C152.01,333.98 172.8414,325.5342 198.7514,319.0142 " fill="none" id="loggedInUser-to-&#26412;&#12398;&#36024;&#20986;&#12539;&#20104;&#32004;&#29366;&#27841;&#12434;&#30906;&#35469;&#12377;&#12427;" style="stroke:#181818;stroke-width:1.0;"/><polygon fill="#181818" points="204.57,317.55,194.866,315.8672,199.7212,318.7702,196.8182,323.6254,204.57,317.55" style="stroke:#181818;stroke-width:1.0;"/></g><!--link loggedInUser to ???????--><g id="link_loggedInUser_&#36024;&#20986;&#12539;&#20104;&#32004;&#12377;&#12427;"><path d="M104.09,417.47 C142.04,411.44 193.1143,403.3316 237.2943,396.3116 " fill="none" id="loggedInUser-to-&#36024;&#20986;&#12539;&#20104;&#32004;&#12377;&#12427;" style="stroke:#181818;stroke-width:1.0;"/><polygon fill="#181818" points="243.22,395.37,233.7038,392.8319,238.2819,396.1546,234.9592,400.7328,243.22,395.37" style="stroke:#181818;stroke-width:1.0;"/></g><!--link loggedInUser to ????????????--><g id="link_loggedInUser_&#36024;&#20986;&#12539;&#20104;&#32004;&#24773;&#22577;&#12434;&#30906;&#35469;&#12377;&#12427;"><path d="M104.09,430.53 C136.1,435.61 175.7442,441.9091 215.7342,448.2591 " fill="none" id="loggedInUser-to-&#36024;&#20986;&#12539;&#20104;&#32004;&#24773;&#22577;&#12434;&#30906;&#35469;&#12377;&#12427;" style="stroke:#181818;stroke-width:1.0;"/><polygon fill="#181818" points="221.66,449.2,213.3987,443.8381,216.7219,448.4159,212.1441,451.7391,221.66,449.2" style="stroke:#181818;stroke-width:1.0;"/></g><!--link loggedInUser to ????????????????--><g id="link_loggedInUser_&#33258;&#20998;&#12364;&#36024;&#20986;&#12539;&#20104;&#32004;&#20013;&#12398;&#26412;&#12434;&#30906;&#35469;&#12377;&#12427;"><path d="M88.67,464.03 C99.78,478.52 113.94,493.81 130,504 C151.65,517.74 171.4079,525.8777 196.3079,532.7777 " fill="none" id="loggedInUser-to-&#33258;&#20998;&#12364;&#36024;&#20986;&#12539;&#20104;&#32004;&#20013;&#12398;&#26412;&#12434;&#30906;&#35469;&#12377;&#12427;" style="stroke:#181818;stroke-width:1.0;"/><polygon fill="#181818" points="202.09,534.38,194.485,528.1219,197.2716,533.0448,192.3487,535.8313,202.09,534.38" style="stroke:#181818;stroke-width:1.0;"/></g><!--link loggedInUser to ????????????--><g id="link_loggedInUser_&#36820;&#21364;&#12377;&#12427;&#12539;&#20104;&#32004;&#12434;&#21462;&#12426;&#28040;&#12377;"><path d="M67.74,464.09 C74.57,503.68 91.01,563.06 130,597 C151.25,615.5 173.2843,624.9121 200.6843,631.0321 " fill="none" id="loggedInUser-to-&#36820;&#21364;&#12377;&#12427;&#12539;&#20104;&#32004;&#12434;&#21462;&#12426;&#28040;&#12377;" style="stroke:#181818;stroke-width:1.0;"/><polygon fill="#181818" points="206.54,632.34,198.6284,626.4743,201.6602,631.2501,196.8845,634.2819,206.54,632.34" style="stroke:#181818;stroke-width:1.0;"/></g><!--SRC=[bLFHIXj157sVhxZaHVlWB_H5ADGMAPH-m9XijejnDcosJwNWpDPaQo8MiIsYI8qXjK7JQa9Orb8_vcPsrx_eJ1Ff9jb0-Z8FzvvpxvbpPYgR5YjJXsv1mIZIDoNtYStSTRfbG6xTTcruILa5LjUUmTgB72aPHHTKqR7CrouKBCV8kvRD2A5vrtP0xWVHSG2q0YNRD8t2K_RSsd2eOr4sHWo3xSI_HA-DtYyK0tMcqQygXWE443sMChEaD4Y_6dqwbwTrUTnJi-FkMVonYgA9tXVqEZbuIyeqlqbD1OrEBf5tHmZT05ZM9N4G7ztUDswG7w6eFoBlo3H5-j_Zmui9IjGwYVlD1ygupBl9JI1h8Ngtmz2F- -_ZtK7Kutf3CqmwUodu571-9_9svDVhZ15_iRMEkZ_onXHf65mfCUFBpQo-EvHx_L7Xdm1n8FS_ezYD1hvgQHUK3sGc9bXPUPnfcufb2KOcF7XJH_5XIfZiDePXDJcxY5iXyj_8lo7_eJA_tpxNFjVQAXeoaNPgtuJdC0UsO0PPzEnC5a1cPmGf_rBK_uuiOyP22HB2RDTGlx4CTX6MPwBKZm40lIiKFr6qqEifLV9k9sbpOh02QFQS6LhAGlG_]--></g></svg>